<svg id="decentralized" xmlns="http://www.w3.org/2000/svg" width="87" height="87" viewBox="0 0 87 87">
  <path id="Path_582" data-name="Path 582" d="M191.09,175a1.274,1.274,0,0,0,1.274-1.274v-9.2a1.274,1.274,0,0,0-.827-1.193l-15.105-5.664a1.275,1.275,0,0,0-.9,0l-15.105,5.664a1.274,1.274,0,0,0-.827,1.193v4.092a1.274,1.274,0,1,0,2.549,0v-2.253l12.556,4.709v16.846l-12.556-4.709v-8.632a1.274,1.274,0,0,0-2.549,0v9.515a1.274,1.274,0,0,0,.827,1.193l15.105,5.664v0a1.248,1.248,0,0,0,.894,0l15.105-5.664a1.274,1.274,0,0,0,.827-1.193v-4.424a1.274,1.274,0,0,0-2.549,0v3.541l-12.556,4.709V171.072l12.556-4.709v7.364A1.274,1.274,0,0,0,191.09,175Zm-15.105-6.174-11.476-4.3,11.476-4.3,11.476,4.3Z" transform="translate(-132.485 -130.808)" fill="#f62d2d"/>
  <path id="Path_583" data-name="Path 583" d="M223.345,12.72v9.152a1.274,1.274,0,1,0,2.549,0V12.72a6.424,6.424,0,1,0-2.549,0Zm1.274-10.172a3.875,3.875,0,1,1-3.875,3.875A3.88,3.88,0,0,1,224.619,2.549Z" transform="translate(-181.119)" fill="#f62d2d"/>
  <path id="Path_584" data-name="Path 584" d="M349,340.173a8.78,8.78,0,0,0-5.272,1.752l-3.051-3.051a1.274,1.274,0,1,0-1.8,1.8l3.051,3.051A8.824,8.824,0,1,0,349,340.173Zm0,15.105A6.278,6.278,0,1,1,355.278,349,6.285,6.285,0,0,1,349,355.278Z" transform="translate(-280.982 -280.982)" fill="#f62d2d"/>
  <path id="Path_585" data-name="Path 585" d="M68.594,77.421a8.78,8.78,0,0,0,5.273-1.752l3.051,3.051a1.274,1.274,0,0,0,1.8-1.8l-3.051-3.051a8.824,8.824,0,1,0-7.075,3.554Zm0-15.105a6.278,6.278,0,1,1-6.278,6.278A6.285,6.285,0,0,1,68.594,62.316Z" transform="translate(-49.611 -49.611)" fill="#f62d2d"/>
  <path id="Path_586" data-name="Path 586" d="M225.893,386.206v-9.152a1.274,1.274,0,1,0-2.549,0v9.152a6.424,6.424,0,1,0,2.549,0Zm-1.274,10.172a3.875,3.875,0,1,1,3.875-3.875A3.88,3.88,0,0,1,224.619,396.378Z" transform="translate(-181.119 -311.927)" fill="#f62d2d"/>
  <path id="Path_587" data-name="Path 587" d="M392.5,218.2a6.435,6.435,0,0,0-6.3,5.149h-9.152a1.274,1.274,0,1,0,0,2.549h9.152a6.424,6.424,0,1,0,6.3-7.7Zm0,10.3a3.875,3.875,0,1,1,3.875-3.875A3.88,3.88,0,0,1,392.5,228.494Z" transform="translate(-311.927 -181.119)" fill="#f62d2d"/>
  <path id="Path_588" data-name="Path 588" d="M12.72,225.893h9.152a1.274,1.274,0,1,0,0-2.549H12.72a6.424,6.424,0,1,0,0,2.549Zm-6.3,2.6a3.875,3.875,0,1,1,3.875-3.875A3.879,3.879,0,0,1,6.424,228.494Z" transform="translate(0 -181.119)" fill="#f62d2d"/>
  <path id="Path_589" data-name="Path 589" d="M339.775,79.092a1.271,1.271,0,0,0,.9-.373l3.051-3.051a8.836,8.836,0,1,0-1.8-1.8l-3.051,3.051a1.275,1.275,0,0,0,.9,2.176ZM349,62.315a6.278,6.278,0,1,1-6.278,6.278A6.285,6.285,0,0,1,349,62.315Z" transform="translate(-280.982 -49.61)" fill="#f62d2d"/>
  <path id="Path_590" data-name="Path 590" d="M76.916,338.875l-3.051,3.051a8.836,8.836,0,1,0,1.8,1.8l3.051-3.051a1.274,1.274,0,0,0-1.8-1.8Zm-8.323,16.4A6.278,6.278,0,1,1,74.871,349,6.285,6.285,0,0,1,68.593,355.278Z" transform="translate(-49.61 -280.983)" fill="#f62d2d"/>
</svg>
