<svg width="99" height="88" viewBox="0 0 99 88" fill="none" xmlns="http://www.w3.org/2000/svg">
<rect y="87.7196" width="73.7197" height="73.7197" rx="18" transform="rotate(-90 0 87.7196)" fill="#D91965"/>
<rect x="83.3867" y="79.1771" width="15.1065" height="15.1065" rx="6" transform="rotate(-90 83.3867 79.1771)" fill="#D91965"/>
<rect x="37.625" y="56.9999" width="52" height="53" rx="18" transform="rotate(-90 37.625 56.9999)" fill="#831F81"/>
<rect x="31.4219" y="7.27185" width="6.64686" height="6.64686" rx="3" transform="rotate(-90 31.4219 7.27185)" fill="#831F81"/>
<path d="M8.625 68.6364H65.8067C65.8067 70.4941 64.3008 72.0001 62.4431 72.0001H11.9886C10.1309 72.0001 8.625 70.4941 8.625 68.6364Z" fill="white"/>
<path d="M59.3992 65.5938L16.1508 65.5938L16.1508 37.9999C16.1508 36.7849 17.1358 35.7999 18.3508 35.7999L57.1992 35.7999C58.4142 35.7999 59.3992 36.7849 59.3992 37.9999L59.3992 65.5938Z" stroke="white" stroke-width="1.6"/>
<path d="M59.0781 41.7273L16.4721 41.7273L16.4721 39.1212C16.4721 37.4644 17.8153 36.1212 19.4721 36.1212L56.0781 36.1212C57.735 36.1212 59.0781 37.4644 59.0781 39.1212L59.0781 41.7273Z" fill="white"/>
<path d="M27.6855 52.9395C29.031 50.5414 30.988 47.9252 33.8012 47.9252C36.6145 47.9252 39.8509 49.2333 43.2757 49.2333C49.7583 49.1243 54.5946 45.091 54.5946 45.091V52.9395H29.5203H27.6855Z" fill="white"/>
<rect x="27.6855" y="57.424" width="11.2121" height="1.12121" rx="0.560605" fill="#831F81"/>
<rect x="43.3828" y="57.424" width="11.2121" height="1.12121" rx="0.560605" fill="white"/>
<rect x="27.6855" y="60.7878" width="7.84847" height="1.12121" rx="0.560605" fill="#831F81"/>
<rect x="43.3828" y="60.7878" width="5.60605" height="1.12121" rx="0.560605" fill="white"/>
<rect x="19.8359" y="43.9699" width="3.36363" height="3.36363" rx="1" fill="#831F81"/>
<rect x="19.8359" y="48.4543" width="3.36363" height="3.36363" rx="1" fill="white"/>
<rect x="19.8359" y="52.9392" width="3.36363" height="3.36363" rx="1" fill="white"/>
<rect x="19.8359" y="57.424" width="3.36363" height="3.36363" rx="1" fill="white"/>
<circle cx="56.125" cy="32.5" r="13.5" fill="#831F81"/>
<path d="M56.0484 46.4035C58.4679 46.4035 60.7296 45.7724 62.7283 44.6678L69.6187 51.5581C71.0388 52.9783 73.4583 53.0309 74.931 51.5581C76.4038 50.0854 76.3512 47.7185 74.931 46.2457L67.9881 39.408C69.0927 37.4093 69.7238 35.1476 69.7238 32.7281C69.7238 25.0488 63.5173 19 56.0484 19C48.4743 19 42.3203 25.154 42.3203 32.7281C42.3203 40.2496 48.4743 46.4035 56.0484 46.4035ZM56.0484 20.052C63.0439 20.052 68.7245 25.7325 68.7245 32.7281C68.7245 39.7236 63.0439 45.4042 56.0484 45.4042C49.0529 45.3516 43.3723 39.671 43.3723 32.7281C43.3723 25.7325 49.0529 20.052 56.0484 20.052Z" fill="white"/>
<path d="M48.2643 38.7855H51.4201C51.6831 38.7855 51.9461 38.5225 51.9461 38.2596V33.5257C51.9461 33.2627 51.6831 32.9998 51.4201 32.9998H48.2643C48.0013 32.9998 47.7383 33.2627 47.7383 33.5257V38.2596C47.7383 38.5225 47.9487 38.7855 48.2643 38.7855Z" fill="#D91965"/>
<path d="M57.3102 30H54.6803C54.3647 30 54.1543 30.2104 54.1543 30.526V38.4157C54.1543 38.6787 54.3647 38.9417 54.6803 38.9417H57.3102C57.5732 38.9417 57.8362 38.6787 57.8362 38.4157V30.526C57.8362 30.263 57.6258 30 57.3102 30Z" fill="#D91965"/>
<path d="M60.1964 39H63.0536C63.3964 39 63.625 38.7273 63.625 38.4545V27.5455C63.625 27.2182 63.3964 27 63.0536 27H60.1964C59.8536 27 59.625 27.2182 59.625 27.5455V38.4545C59.625 38.7818 59.8536 39 60.1964 39Z" fill="#D91965"/>
</svg>
