<svg width="705" height="567" viewBox="0 0 705 567" fill="none" xmlns="http://www.w3.org/2000/svg">
<path d="M630.83 221.203C634.574 223.359 637.614 228.628 637.614 232.951V309.559C637.614 313.892 634.574 315.638 630.82 313.472L498.154 236.874C494.41 234.707 491.37 229.449 491.36 225.115V148.507C491.36 144.174 494.399 142.428 498.154 144.595L630.83 221.203Z" fill="white"/>
<path d="M590.633 246.686C590.623 239.471 585.564 230.71 579.316 227.103L491.37 176.325V225.115C491.37 229.448 494.41 234.707 498.165 236.874L590.633 290.27V264.418V246.686Z" fill="#DEEAF9"/>
<path d="M516.191 198.191L506.221 192.438C505.316 191.912 504.591 192.343 504.58 193.374L504.591 223.454C504.591 224.495 505.316 225.757 506.21 226.283L516.181 232.036C517.085 232.551 517.811 232.13 517.811 231.089V201.01C517.821 199.968 517.096 198.717 516.191 198.191ZM533.955 195.393L523.985 189.63C523.08 189.114 522.354 189.535 522.354 190.566V233.708C522.354 234.749 523.08 236.001 523.985 236.527L533.955 242.28C534.849 242.805 535.585 242.385 535.585 241.344V198.212C535.575 197.171 534.849 195.909 533.955 195.393ZM551.719 231.762L541.748 225.999C540.844 225.483 540.118 225.904 540.118 226.945V243.962C540.118 245.004 540.854 246.266 541.759 246.781L551.729 252.545C552.623 253.07 553.36 252.65 553.36 251.609V234.591C553.349 233.54 552.613 232.288 551.719 231.762ZM569.483 200.968L559.512 195.215C558.618 194.689 557.882 195.109 557.882 196.151V254.227C557.882 255.269 558.608 256.531 559.512 257.046L569.483 262.799C570.377 263.325 571.113 262.894 571.102 261.863V203.786C571.102 202.745 570.377 201.483 569.483 200.968ZM587.236 239.219L577.255 233.456C576.361 232.94 575.625 233.361 575.635 234.392V264.471C575.635 265.523 576.361 266.775 577.265 267.29L587.236 273.053C588.13 273.569 588.866 273.148 588.856 272.107V242.038C588.866 240.997 588.13 239.724 587.236 239.219ZM622.753 259.717L612.783 253.954C611.878 253.439 611.152 253.859 611.152 254.89V284.959C611.163 286 611.889 287.262 612.783 287.778L622.753 293.541C623.647 294.056 624.383 293.646 624.383 292.605L624.394 262.536C624.383 261.505 623.647 260.243 622.753 259.717ZM605 236.411L595.019 230.647C594.125 230.122 593.389 230.553 593.399 231.594V274.715C593.399 275.767 594.125 277.018 595.029 277.534L605 283.287C605.904 283.813 606.63 283.381 606.63 282.351L606.619 239.219C606.619 238.188 605.894 236.926 605 236.411Z" fill="#0038EA"/>
<path d="M633.859 315.712C632.702 315.712 631.44 315.344 630.168 314.597L497.502 237.999C493.327 235.591 490.066 229.932 490.056 225.115V148.507C490.056 145.93 490.992 143.974 492.695 142.985C494.399 141.997 496.576 142.165 498.817 143.459L631.482 220.057C635.658 222.465 638.918 228.123 638.918 232.94V309.549C638.918 312.125 637.982 314.092 636.278 315.07C635.553 315.501 634.732 315.712 633.859 315.712ZM495.115 144.984C494.694 144.984 494.315 145.078 494 145.257C493.148 145.741 492.664 146.929 492.664 148.518V225.126C492.664 228.965 495.483 233.824 498.806 235.748L631.472 312.346C632.839 313.146 634.122 313.314 634.974 312.83C635.826 312.346 636.31 311.158 636.31 309.57V232.961C636.31 229.123 633.512 224.264 630.178 222.339L497.512 145.741C496.64 145.236 495.819 144.984 495.115 144.984Z" fill="#002A91"/>
<path d="M700.297 438.218L458.03 298.347C451.783 294.74 451.773 288.892 458.03 285.285L462.048 282.95C468.295 279.353 468.295 273.505 462.048 269.887L355.634 208.445C349.386 204.838 339.248 204.838 333 208.435L328.972 210.78C322.714 214.377 312.586 214.377 306.339 210.77C300.081 207.162 289.953 207.162 283.716 210.759L268.371 219.615L138.24 294.456C131.993 298.063 132.003 303.911 138.261 307.529L532.23 534.988C538.488 538.595 548.606 538.595 554.864 534.988L684.984 460.146L700.339 451.291C706.566 447.683 706.555 441.825 700.297 438.218Z" fill="#DEEAF9"/>
<path d="M660.973 464.322C634.049 448.788 590.318 448.788 563.33 464.385C536.364 479.919 536.322 505.192 563.299 520.737C590.234 536.302 633.954 536.302 660.931 520.705C687.919 505.139 687.919 479.898 660.973 464.322Z" fill="#DEEAF9"/>
<path d="M681.177 427.49H681.145C681.135 424.64 680.641 421.79 679.578 418.992L619.146 426.607L626.886 406.14V388.565C604.674 385.768 580.558 389.312 563.299 399.282C549.815 407.065 543.084 417.278 543.105 427.49V445.022C543.105 445.033 543.105 445.043 543.105 445.064V445.075C543.126 455.266 549.878 465.458 563.362 473.24C590.349 488.817 634.08 488.838 661.036 473.272C674.519 465.489 681.177 455.277 681.145 445.075H681.177V427.49Z" fill="white"/>
<path d="M612.204 427.437L625.298 410.326L626.876 406.15V388.576C604.695 385.778 580.621 389.312 563.372 399.24L612.204 427.437Z" fill="#DEEAF9"/>
<path d="M681.135 427.49C681.166 437.702 674.509 447.915 661.026 455.708C634.07 471.274 590.339 471.253 563.351 455.676C549.868 447.883 543.116 437.692 543.095 427.501V445.033C543.095 445.043 543.095 445.054 543.095 445.075V445.086C543.116 455.277 549.868 465.468 563.351 473.251C590.339 488.827 634.07 488.848 661.026 473.283C674.509 465.5 681.166 455.287 681.135 445.086H681.166V427.49H681.135Z" fill="#DEEAF9"/>
<path d="M612.246 486.219C594.304 486.219 576.361 482.275 562.699 474.387C549.237 466.625 541.812 456.223 541.791 445.096V427.5C541.77 416.352 549.174 405.94 562.636 398.157C579.548 388.397 603.622 384.327 627.044 387.282C627.696 387.366 628.191 387.924 628.191 388.576V406.15C628.191 406.308 628.159 406.466 628.106 406.613L621.133 425.05L679.421 417.698C680.02 417.625 680.598 417.972 680.809 418.529C681.861 421.306 682.407 424.209 682.46 427.174C682.481 427.28 682.502 427.374 682.502 427.49V445.085C682.502 445.191 682.492 445.296 682.46 445.401C682.355 456.444 674.993 466.741 661.688 474.418C648.058 482.285 630.147 486.219 612.246 486.219ZM611.92 388.944C594.051 388.944 576.834 392.972 563.94 400.418C551.319 407.707 544.378 417.32 544.399 427.49V445.033C544.42 455.245 551.382 464.837 564.003 472.115C590.591 487.47 633.817 487.481 660.374 472.147C672.952 464.879 679.862 455.266 679.831 445.085C679.831 444.98 679.841 444.875 679.862 444.77V427.795C679.841 427.7 679.831 427.595 679.831 427.49C679.82 425.081 679.442 422.705 678.684 420.412L619.293 427.9C618.83 427.953 618.388 427.774 618.104 427.416C617.82 427.059 617.747 426.575 617.905 426.144L625.561 405.898V389.722C621.018 389.207 616.443 388.944 611.92 388.944Z" fill="#002A91"/>
<path d="M628.864 372.758L612.152 416.941V427.49L688.686 417.835V407.286C682.176 390.08 658.701 376.523 628.864 372.758Z" fill="#0038EA"/>
<path opacity="0.5" d="M612.162 416.941V427.49L688.686 417.846V407.297L612.162 416.941Z" fill="black"/>
<path d="M612.162 428.805C611.847 428.805 611.542 428.689 611.3 428.479C611.016 428.226 610.858 427.869 610.858 427.501V416.952C610.858 416.794 610.889 416.636 610.942 416.489L627.654 372.306C627.864 371.738 628.453 371.401 629.042 371.475C659.332 375.292 683.238 389.186 689.927 406.844C689.98 406.992 690.011 407.149 690.011 407.307V417.856C690.011 418.519 689.517 419.066 688.865 419.15L612.33 428.805C612.267 428.794 612.215 428.805 612.162 428.805ZM613.466 417.183V426.007L687.382 416.689V407.539C680.988 391.068 658.459 378.048 629.726 374.188L613.466 417.183Z" fill="#002A91"/>
<path d="M129.753 50.0227L129.742 294.046C129.742 301.261 134.811 310.032 141.069 313.64L535.049 541.109C538.183 542.907 541.012 543.076 543.053 541.898L561.121 531.465V531.454C563.193 530.287 564.476 527.741 564.466 524.113L564.477 280.1L546.366 290.554L129.753 50.0227Z" fill="white"/>
<path d="M474.848 426.817C474.848 431.139 477.887 436.409 481.631 438.575L522.333 462.071C526.088 464.227 529.128 462.492 529.128 458.158V411.851C529.128 407.528 526.088 402.259 522.333 400.092L481.631 376.607C477.877 374.43 474.837 376.186 474.837 380.509L474.848 426.817Z" fill="#DEEAF9"/>
<path d="M212.882 261.253L212.892 133.625C212.892 129.292 209.842 124.044 206.087 121.866L129.763 77.7988V221.087L206.108 265.165C209.842 267.332 212.882 265.586 212.882 261.253Z" fill="#DEEAF9"/>
<path d="M242.814 260.054V372.379L429.192 479.993V334.559L242.814 260.054Z" fill="#DEEAF9"/>
<path d="M546.376 290.565L546.366 534.578C546.366 538.164 545.114 540.678 543.095 541.877L561.121 531.475V531.465C563.193 530.297 564.476 527.752 564.466 524.123L564.477 280.111L546.376 290.565Z" fill="#DEEAF9"/>
<path d="M493.095 272.222C489.341 270.056 486.301 271.812 486.301 276.145L486.291 309.79C486.291 314.113 489.33 319.372 493.085 321.549L546.366 352.312V302.986L493.095 272.222Z" fill="#DEEAF9"/>
<path d="M540.108 543.959C538.33 543.959 536.385 543.381 534.397 542.234L140.417 314.776C133.812 310.969 128.438 301.671 128.438 294.046L128.448 50.0228C128.448 49.56 128.701 49.1288 129.1 48.8869C129.5 48.6555 130.005 48.6555 130.405 48.8869L546.366 289.04L563.824 278.964C564.224 278.733 564.729 278.733 565.129 278.964C565.539 279.196 565.781 279.627 565.781 280.1L565.77 524.113C565.781 528.057 564.392 531.033 561.879 532.527C561.847 532.548 561.805 532.58 561.773 532.601L543.705 543.034C542.621 543.654 541.412 543.959 540.108 543.959ZM131.067 52.2945L131.057 294.057C131.057 300.851 135.842 309.128 141.732 312.515L535.701 539.984C538.309 541.488 540.686 541.761 542.4 540.773L560.364 530.402C560.396 530.371 560.438 530.35 560.48 530.329C562.215 529.351 563.172 527.142 563.162 524.124L563.172 282.372L547.018 291.701C546.618 291.932 546.113 291.932 545.713 291.701L131.067 52.2945Z" fill="#002A91"/>
<path d="M133.181 24.939C133.108 24.9811 133.044 25.0231 132.971 25.0652L132.771 25.1809L132.792 25.2124C130.92 26.464 129.753 28.8725 129.753 32.2906V50.0228L546.376 290.554L564.487 280.1V262.368C564.476 255.153 559.418 246.392 553.16 242.785L159.191 15.3261C156.004 13.4961 153.143 13.3594 151.082 14.611L133.181 24.939Z" fill="#0038EA"/>
<path opacity="0.5" d="M564.487 262.379C564.476 255.164 559.418 246.403 553.16 242.795L159.191 15.3261C156.004 13.4961 153.143 13.3594 151.082 14.611L133.244 24.9074C135.274 23.8347 138.03 24.0345 141.069 25.7909L535.038 253.271C541.296 256.867 546.366 265.639 546.366 272.854L546.376 290.586L564.487 280.132V262.379Z" fill="black"/>
<path d="M546.376 291.869C546.155 291.869 545.924 291.806 545.724 291.69L129.101 51.1586C128.69 50.9272 128.448 50.496 128.448 50.0227V32.301C128.448 28.7356 129.637 25.9169 131.804 24.3183C131.888 24.2131 131.993 24.129 132.109 24.0554L132.529 23.8135L150.43 13.4854C152.985 11.9289 156.33 12.1813 159.843 14.2006L553.812 241.67C560.522 245.54 565.781 254.638 565.791 262.389V280.121C565.791 280.584 565.539 281.015 565.139 281.257L547.028 291.711C546.828 291.806 546.597 291.869 546.376 291.869ZM131.067 49.276L546.376 289.05L563.183 279.343V262.368C563.172 255.584 558.387 247.307 552.518 243.92L158.539 16.4513C155.899 14.9263 153.49 14.6739 151.765 15.7151L133.833 26.0642C133.833 26.0642 133.833 26.0642 133.823 26.0642L133.707 26.1378C133.655 26.2009 133.581 26.2535 133.518 26.2956C131.93 27.3473 131.057 29.4823 131.057 32.2905V49.276H131.067Z" fill="#002A91"/>
<path d="M358.61 166.765C358.61 170.993 355.633 172.707 351.963 170.593L153.553 56.0384C149.883 53.9139 146.906 48.7709 146.906 44.5429C146.906 40.3044 149.883 38.5901 153.553 40.7146L351.963 155.269C355.644 157.394 358.61 162.537 358.61 166.765ZM502.54 247.328C501.33 246.623 500.342 247.191 500.342 248.59C500.342 249.989 501.32 251.703 502.54 252.397C503.749 253.102 504.738 252.534 504.738 251.135C504.738 249.747 503.76 248.022 502.54 247.328ZM516.98 258.203C516.98 259.602 515.991 260.169 514.782 259.475C513.562 258.781 512.563 257.067 512.573 255.668C512.573 254.269 513.551 253.712 514.771 254.416C515.991 255.1 516.98 256.793 516.98 258.203ZM529.212 265.27C529.201 266.669 528.223 267.237 527.014 266.532C525.794 265.828 524.815 264.124 524.815 262.715C524.815 261.316 525.804 260.748 527.014 261.453C528.223 262.157 529.212 263.861 529.212 265.27Z" fill="white"/>
<path d="M293.886 76.5683C291.814 77.7357 290.531 80.2809 290.542 83.8989V88.558C290.542 89.3679 290.458 90.1041 290.331 90.7982C289.669 90.5458 288.985 90.2513 288.281 89.8517L290.321 91.0296C289.269 96.3935 284.705 98.2445 279.225 95.0893L290.542 101.621L419.6 176.136L430.917 182.667L439.972 177.44C433.725 173.833 428.645 165.051 428.645 157.846V153.177C428.645 145.972 423.576 137.201 417.328 133.593L310.914 72.151C307.79 70.342 304.951 70.1737 302.91 71.3622L293.886 76.5683Z" fill="white"/>
<path d="M428.645 157.846V153.177C428.645 145.972 423.576 137.201 417.328 133.593L310.914 72.151C307.79 70.342 304.951 70.1737 302.91 71.3622L293.897 76.5683C295.948 75.4114 298.756 75.5797 301.869 77.3781L408.273 138.82C414.52 142.428 419.59 151.21 419.59 158.414V163.073C419.59 170.278 424.669 179.06 430.917 182.667L439.972 177.44C433.714 173.833 428.645 165.051 428.645 157.846Z" fill="#DEEAF9"/>
<path d="M430.917 183.971C430.696 183.971 430.464 183.908 430.265 183.793L278.562 96.2251C278.562 96.2251 278.562 96.2251 278.552 96.2251C277.931 95.8675 277.711 95.0682 278.068 94.4372C278.426 93.8167 279.225 93.5958 279.856 93.9534C282.264 95.3417 284.526 95.6888 286.198 94.921C287.418 94.3636 288.301 93.2487 288.785 91.6711L287.597 90.9875C286.976 90.6299 286.755 89.8306 287.113 89.1996C287.471 88.579 288.27 88.3582 288.89 88.7158C288.996 88.7789 289.09 88.8314 289.195 88.884C289.195 88.7789 289.206 88.6632 289.206 88.558V83.8988C289.195 79.9653 290.573 76.9994 293.076 75.5165C293.118 75.4849 293.16 75.4534 293.203 75.4324L302.226 70.2263C304.782 68.7433 308.095 69.0273 311.545 71.0151L417.97 132.457C424.575 136.265 429.939 145.562 429.939 153.177V157.846C429.939 164.63 434.724 172.907 440.603 176.304C441.003 176.536 441.255 176.967 441.255 177.44C441.255 177.903 441.003 178.334 440.603 178.576L431.548 183.803C431.369 183.919 431.137 183.971 430.917 183.971ZM286.303 97.666L430.917 181.153L437.5 177.356C431.758 173.023 427.351 164.746 427.351 157.846V153.177C427.351 146.393 422.566 138.116 416.687 134.719L310.262 73.2868C307.664 71.7828 305.276 71.4989 303.562 72.498L294.675 77.6305C294.633 77.662 294.58 77.6936 294.528 77.7251C292.792 78.6927 291.846 80.8909 291.846 83.9093V88.5685C291.846 89.3573 291.772 90.1566 291.614 91.0085C291.614 91.1032 291.604 91.1979 291.593 91.282C291.025 94.1637 289.5 96.2988 287.302 97.2979C286.976 97.4557 286.64 97.5714 286.303 97.666Z" fill="#002A91"/>
<path d="M373.355 130.291C373.355 131.322 372.63 131.753 371.725 131.227L305.55 93.0175C304.656 92.5021 303.93 91.24 303.92 90.1988C303.93 89.1576 304.645 88.7369 305.55 89.2628L371.725 127.472C372.63 127.988 373.355 129.25 373.355 130.291ZM350.722 124.738C350.722 123.697 349.986 122.434 349.081 121.919L305.55 96.7827C304.656 96.2673 303.92 96.688 303.92 97.7187C303.93 98.7599 304.646 100.022 305.539 100.537L349.081 125.663C349.996 126.2 350.711 125.779 350.722 124.738ZM403.509 151.462L405.728 150.179C406.369 149.811 406.369 148.612 405.738 147.518C405.097 146.414 404.066 145.815 403.435 146.183L401.205 147.455L398.986 143.595C398.344 142.502 397.314 141.902 396.683 142.281C396.041 142.638 396.041 143.837 396.683 144.931L398.902 148.78L396.672 150.064C396.041 150.432 396.031 151.62 396.672 152.724C397.303 153.818 398.344 154.418 398.986 154.05L401.216 152.777L403.435 156.637C404.076 157.741 405.107 158.33 405.738 157.962C406.38 157.594 406.38 156.406 405.738 155.301L403.509 151.462Z" fill="#0038EA"/>
<path d="M290.521 88.5477L290.51 83.8885C290.521 76.6736 285.441 67.9022 279.194 64.2947L172.779 2.85241C169.645 1.04343 166.816 0.875152 164.765 2.06361L155.762 7.25918C157.802 6.10227 152.407 7.3959 152.407 14.6108V19.27C152.407 26.4849 147.338 29.3982 141.08 25.7907L152.396 32.322L281.455 106.837L292.782 113.369L301.837 108.142C295.59 104.534 290.51 95.7626 290.521 88.5477Z" fill="#0038EA"/>
<path opacity="0.5" d="M290.521 88.5477L290.51 83.8885C290.521 76.6736 285.441 67.9022 279.193 64.2947L172.779 2.85241C169.645 1.04343 166.816 0.875152 164.765 2.06361L155.762 7.25918C157.802 6.10227 160.621 6.29158 163.724 8.07953L270.138 69.5218C276.396 73.1293 281.465 81.9113 281.465 89.1157V93.7854C281.465 100.99 286.535 109.772 292.792 113.369L301.848 108.142C295.59 104.534 290.51 95.7626 290.521 88.5477Z" fill="black"/>
<path d="M301.837 109.456C301.616 109.456 301.396 109.404 301.185 109.277C294.58 105.46 289.206 96.1622 289.216 88.5476L289.206 83.8885C289.216 77.1048 284.431 68.8276 278.541 65.42L172.116 3.98821C169.508 2.48423 167.131 2.20026 165.406 3.19941L156.456 8.36342C156.435 8.37394 156.414 8.38446 156.393 8.40549C156.256 8.47911 156.109 8.5317 155.962 8.55273C155.141 9.27843 153.701 11.0559 153.701 14.6107V19.2699C153.701 23.2455 152.291 26.2429 149.735 27.7153C147.18 29.1878 143.867 28.9143 140.417 26.916C139.797 26.5584 139.576 25.7591 139.933 25.1281C140.291 24.5075 141.101 24.2867 141.721 24.6548C144.33 26.1588 146.706 26.4427 148.421 25.4541C150.135 24.4655 151.082 22.2673 151.082 19.2699V14.6107C151.082 8.45808 154.679 5.81823 155.92 5.60788C155.951 5.59736 155.993 5.59736 156.025 5.59736L164.102 0.938178C166.658 -0.544768 169.971 -0.260799 173.421 1.72698L279.835 63.1693C286.44 66.9871 291.814 76.2844 291.804 83.899L291.814 88.5582C291.804 95.3419 296.589 103.619 302.479 107.027C303.099 107.384 303.32 108.184 302.963 108.815C302.721 109.214 302.29 109.456 301.837 109.456Z" fill="#002A91"/>
<path d="M235.221 61.0029C235.221 62.0441 234.495 62.4543 233.59 61.9494L167.415 23.7294C166.511 23.2035 165.775 21.952 165.785 20.9107C165.785 19.8695 166.511 19.4488 167.415 19.9747L233.59 58.1842C234.495 58.6996 235.221 59.9616 235.221 61.0029ZM212.577 55.4392C212.577 54.4085 211.84 53.1359 210.946 52.6205L167.415 27.4841C166.511 26.9687 165.785 27.3894 165.785 28.4201C165.785 29.4613 166.511 30.7234 167.415 31.2388L210.946 56.3752C211.851 56.9011 212.577 56.4804 212.577 55.4392ZM265.363 82.1637L267.593 80.8806C268.224 80.5125 268.224 79.3241 267.593 78.2197C266.951 77.1154 265.921 76.5159 265.279 76.8946L263.049 78.1672L260.83 74.3178C260.199 73.224 259.158 72.6245 258.527 72.9926C257.885 73.3502 257.885 74.5492 258.527 75.6535L260.757 79.5134L258.537 80.7965C257.906 81.1541 257.906 82.3425 258.537 83.4469C259.169 84.5512 260.199 85.1402 260.83 84.7721L263.06 83.4889L265.279 87.3488C265.921 88.4531 266.951 89.0526 267.593 88.6845C268.224 88.3059 268.234 87.1174 267.603 86.0236L265.363 82.1637Z" fill="white"/>
<path d="M423.67 340.669C422.566 341.311 421.03 341.206 419.348 340.238L236.588 234.749C233.212 232.803 230.477 228.06 230.477 224.169C230.477 222.223 231.161 220.856 232.265 220.214L235.967 218.079C237.071 217.427 238.617 217.501 240.332 218.489L423.081 323.968C426.457 325.913 429.192 330.657 429.192 334.548C429.192 336.536 428.477 337.903 427.33 338.524L427.341 338.534L423.67 340.669Z" fill="#0038EA"/>
<path opacity="0.5" d="M422.492 338.629C422.208 338.787 421.514 338.776 420.515 338.198L237.766 232.709C236.504 231.983 235.231 230.626 234.295 229.007C233.359 227.387 232.823 225.631 232.823 224.179C232.823 223.022 233.149 222.423 233.433 222.255C233.716 222.097 234.4 222.107 235.399 222.686L418.159 328.175C420.683 329.616 423.102 333.802 423.102 336.704C423.102 337.861 422.776 338.461 422.492 338.629Z" fill="black"/>
<path opacity="0.5" d="M422.808 334.811L241.846 230.353C240.584 229.627 239.322 228.281 238.386 226.651C237.829 225.683 237.429 224.674 237.187 223.706L418.17 328.175C420.178 329.332 422.103 332.213 422.808 334.811Z" fill="black"/>
<path d="M422.082 342.384C421.02 342.384 419.863 342.047 418.685 341.364L235.925 235.875C232.128 233.687 229.152 228.544 229.162 224.158C229.162 221.792 230.025 219.983 231.602 219.068L235.305 216.933C235.347 216.912 235.389 216.891 235.431 216.87C236.998 216.018 238.954 216.186 240.973 217.354L423.723 322.832C427.519 325.02 430.485 330.163 430.485 334.538C430.485 336.82 429.633 338.629 428.14 339.555C428.087 339.597 428.035 339.639 427.972 339.67L424.301 341.784C423.649 342.184 422.892 342.384 422.082 342.384ZM236.503 219.278L232.917 221.34C232.202 221.76 231.781 222.791 231.781 224.169C231.781 227.587 234.274 231.91 237.24 233.613L420 339.102C421.199 339.796 422.303 339.944 423.018 339.534L426.52 337.514C426.583 337.462 426.647 337.42 426.71 337.388C427.456 336.978 427.888 335.947 427.888 334.559C427.888 331.141 425.384 326.818 422.429 325.114L239.68 219.625C238.47 218.931 237.366 218.784 236.63 219.205C236.588 219.236 236.546 219.257 236.503 219.278Z" fill="#002A91"/>
<path d="M174.472 448.083C174.472 432.738 185.295 414.007 198.599 406.329L221.306 419.434V269.646C221.295 255.006 231.161 237.305 243.613 229.039L417.696 329.542C405.391 336.936 395.452 354.29 395.452 368.551V519.959C395.442 535.293 384.63 554.025 371.325 561.713C364.72 565.53 358.725 565.909 354.361 563.448H354.35L354.266 563.406V563.395L181.634 463.712V463.702C177.217 461.209 174.472 455.814 174.472 448.083Z" fill="white"/>
<g opacity="0.5">
<path d="M243.624 229.039L417.707 329.542C416.329 330.373 414.993 331.341 413.679 332.403L239.764 231.994C241.026 230.921 242.309 229.912 243.624 229.039Z" fill="#DAE8FF"/>
</g>
<path d="M371.336 561.702C364.731 565.52 358.736 565.898 354.371 563.437H354.361L354.277 563.395V563.385L181.634 463.712V463.701C177.217 461.209 174.472 455.803 174.472 448.083C174.472 432.738 185.295 414.007 198.599 406.329L221.306 419.434V408.853L395.463 509.399V519.948C395.463 535.293 384.64 554.024 371.336 561.702Z" fill="#DEEAF9"/>
<path d="M360.577 566.309C358.126 566.309 355.833 565.751 353.803 564.615C353.782 564.605 353.761 564.594 353.73 564.584L353.646 564.542C353.593 564.51 353.551 564.489 353.509 564.457L180.972 464.858C180.93 464.837 180.888 464.806 180.856 464.785C175.892 461.903 173.158 455.992 173.168 448.104C173.168 432.349 184.274 413.102 197.947 405.214C198.347 404.983 198.851 404.983 199.251 405.214L220.002 417.194V269.646C219.991 254.785 230.056 236.474 242.898 227.945C243.308 227.671 243.845 227.65 244.276 227.902L418.359 328.406C418.759 328.638 419.011 329.069 419.011 329.532C419.011 329.994 418.769 330.426 418.38 330.667C406.464 337.83 396.767 354.826 396.767 368.561V519.969C396.756 535.724 385.639 554.971 371.988 562.848C367.991 565.141 364.11 566.309 360.577 566.309ZM355.013 562.301C359.146 564.636 364.71 564.026 370.684 560.577C383.62 553.109 394.159 534.883 394.159 519.959V368.551C394.159 354.468 403.267 337.819 415.204 329.605L243.687 230.584C231.823 238.851 222.621 255.837 222.621 269.646V419.444C222.621 419.907 222.368 420.338 221.969 420.58C221.569 420.812 221.064 420.812 220.664 420.58L198.62 407.854C185.968 415.553 175.787 433.422 175.797 448.094C175.797 455.067 178.101 460.21 182.297 462.576C182.35 462.607 182.392 462.629 182.434 462.66L354.96 562.259C354.96 562.27 354.992 562.28 355.013 562.301Z" fill="#002A91"/>
<path d="M347.209 547.808C347.209 555.476 349.912 560.871 354.287 563.374L181.634 463.712V463.701C177.217 461.209 174.472 455.803 174.472 448.083C174.472 432.738 185.295 414.007 198.599 406.329L371.336 506.065C358.042 513.743 347.209 532.474 347.209 547.808Z" fill="white"/>
<path d="M354.277 563.385L181.634 463.712V463.701C177.217 461.209 174.472 455.803 174.472 448.083C174.472 446.947 174.546 445.801 174.651 444.644L347.388 544.369C347.272 545.526 347.198 546.673 347.198 547.798C347.209 555.476 349.912 560.871 354.277 563.385Z" fill="#DEEAF9"/>
<path d="M354.277 564.689C354.056 564.689 353.835 564.636 353.625 564.521C353.604 564.51 353.572 564.489 353.551 564.479L180.972 464.848C180.93 464.827 180.888 464.795 180.856 464.774C175.892 461.893 173.158 455.971 173.168 448.094C173.168 432.339 184.274 413.092 197.947 405.204C198.347 404.973 198.851 404.973 199.251 405.204L371.988 504.94C372.398 505.171 372.64 505.603 372.64 506.076C372.64 506.539 372.388 506.97 371.988 507.212C359.041 514.69 348.513 532.906 348.513 547.83C348.513 554.74 350.775 559.851 354.876 562.239L354.929 562.27C355.549 562.628 355.77 563.427 355.413 564.058C355.171 564.458 354.729 564.689 354.277 564.689ZM182.413 462.65L347.977 558.231C346.61 555.371 345.905 551.847 345.905 547.809C345.905 532.79 356.012 514.595 368.801 506.097L198.62 407.833C185.968 415.532 175.787 433.401 175.797 448.073C175.797 455.046 178.101 460.189 182.297 462.555C182.329 462.597 182.371 462.618 182.413 462.65Z" fill="#002A91"/>
<path d="M240.805 291.9C241.079 291.795 241.426 291.816 241.815 292.048L257.075 300.861C257.496 301.103 257.875 301.534 258.159 302.008L255.277 303.669L243.75 297.012L240.805 291.9ZM255.34 308.991V317.3L243.54 310.495V302.008L240.216 296.244V310.558C240.227 311.578 240.931 312.82 241.815 313.324L257.075 322.138C257.959 322.653 258.664 322.233 258.664 321.212V307.067L255.34 308.991ZM240.805 325.167C241.079 325.062 241.426 325.083 241.815 325.304L257.075 334.117C257.496 334.359 257.875 334.78 258.159 335.253L255.277 336.915L243.75 330.257L240.805 325.167ZM255.34 342.247V350.556L243.54 343.74V335.253L240.216 329.5V343.814C240.227 344.834 240.931 346.075 241.815 346.58L257.075 355.394C257.959 355.899 258.664 355.488 258.664 354.468V340.333L255.34 342.247ZM240.816 358.423C241.089 358.318 241.426 358.339 241.815 358.559L257.075 367.373C257.496 367.615 257.875 368.036 258.159 368.519L255.277 370.181L243.75 363.524L240.816 358.423ZM255.351 375.513V383.822L243.55 377.007V368.53L240.227 362.766V377.091C240.237 378.111 240.942 379.352 241.825 379.857L257.086 388.671C257.969 389.175 258.674 388.765 258.674 387.745V373.599L255.351 375.513ZM257.075 400.639L241.815 391.826C240.931 391.321 240.216 391.731 240.216 392.741V410.347C240.227 411.367 240.931 412.598 241.815 413.102L257.075 421.916C257.959 422.421 258.664 422.011 258.664 421.001V403.395C258.674 402.385 257.959 401.144 257.075 400.639ZM255.34 417.088L243.54 410.273V396.664L255.34 403.479V417.088Z" fill="#DEEAF9"/>
<path d="M374.375 375.524C374.375 376.544 373.66 376.954 372.777 376.439L272.61 318.615C271.726 318.099 271.011 316.869 271.011 315.849C271.011 314.839 271.726 314.418 272.61 314.934L372.777 372.768C373.66 373.273 374.375 374.514 374.375 375.524ZM362.838 376.229C362.838 375.208 362.123 373.967 361.239 373.463L272.62 322.296C271.737 321.78 271.022 322.191 271.022 323.211C271.022 324.231 271.737 325.472 272.62 325.977L361.239 377.144C362.123 377.659 362.838 377.249 362.838 376.229ZM374.375 408.79C374.375 409.81 373.66 410.221 372.777 409.705L272.61 351.87C271.726 351.366 271.011 350.125 271.011 349.104C271.011 348.095 271.726 347.674 272.61 348.189L372.777 406.024C373.66 406.54 374.375 407.77 374.375 408.79ZM362.838 409.495C362.838 408.485 362.123 407.244 361.239 406.729L272.62 355.562C271.737 355.047 271.022 355.457 271.022 356.477C271.022 357.497 271.737 358.738 272.62 359.243L361.239 410.41C362.112 410.925 362.838 410.515 362.838 409.495ZM374.375 442.057C374.375 443.077 373.66 443.487 372.777 442.972L272.61 385.137C271.726 384.632 271.011 383.391 271.011 382.371C271.011 381.351 271.726 380.94 272.61 381.456L372.777 439.291C373.66 439.795 374.375 441.036 374.375 442.057ZM362.838 442.751C362.838 441.731 362.123 440.5 361.239 439.995L272.62 388.828C271.737 388.313 271.022 388.723 271.022 389.743C271.022 390.764 271.737 392.005 272.62 392.509L361.239 443.676C362.112 444.181 362.838 443.782 362.838 442.751ZM374.375 475.313C374.375 476.333 373.66 476.743 372.777 476.238L272.61 418.403C271.726 417.898 271.011 416.657 271.011 415.637C271.011 414.627 271.726 414.217 272.61 414.722L372.777 472.557C373.66 473.072 374.375 474.303 374.375 475.313ZM362.838 476.028C362.838 475.008 362.123 473.777 361.25 473.262L272.62 422.095C271.737 421.579 271.022 422 271.022 423.01C271.022 424.03 271.737 425.271 272.62 425.776L361.239 476.943C362.123 477.458 362.838 477.037 362.838 476.028Z" fill="#DEEAF9"/>
<path d="M249.524 312.336L237.829 292.09L240.153 290.754L249.524 306.972L261.503 300.073L263.828 304.101L249.524 312.336ZM263.838 337.356L261.514 333.328L249.535 340.228L240.164 324.01L237.829 325.346L249.524 345.592L263.838 337.356ZM263.838 370.623L261.514 366.595L249.535 373.494L240.164 357.287L237.839 358.623L249.535 378.868L263.838 370.623Z" fill="#0038EA"/>
<path d="M57.0356 369.287C54.6061 370.696 50.6621 370.696 48.2221 369.287L27.0086 357.034C24.5791 355.636 24.5791 353.353 26.9981 351.944L81.9828 320.192C84.4123 318.783 88.3563 318.793 90.7963 320.192L112.01 332.445C114.45 333.854 114.45 336.126 112.01 337.535L57.0356 369.287ZM159.695 353.185C162.125 351.786 162.125 349.504 159.695 348.105L138.471 335.853C136.042 334.443 132.098 334.443 129.658 335.842L64.3873 373.526C61.9578 374.935 61.9683 377.207 64.3978 378.616L85.6113 390.858C88.0513 392.268 91.9848 392.268 94.4248 390.869L159.695 353.185ZM172.095 389.186C174.525 387.787 174.525 385.505 172.085 384.096L150.871 371.853C148.442 370.444 144.498 370.444 142.058 371.853L101.766 395.118C99.3259 396.517 99.3364 398.799 101.776 400.208L122.99 412.45C125.43 413.849 129.374 413.849 131.803 412.45L172.095 389.186Z" fill="#DEEAF9"/>
<path d="M56.1733 334.264C56.1733 333.339 55.5633 332.413 54.3433 331.719L33.1298 319.466C30.6898 318.068 26.7563 318.068 24.3163 319.466L3.12383 331.698C1.90382 332.403 1.29382 333.339 1.30433 334.264V368.172V368.183C1.30433 369.098 1.91434 370.013 3.12383 370.717L24.3373 382.97C26.7668 384.379 30.7108 384.379 33.1508 382.97L54.3433 370.738C55.5633 370.034 56.1733 369.108 56.1628 368.193V334.264H56.1733Z" fill="white"/>
<path d="M56.1522 334.117C56.2258 335.085 55.6263 336.063 54.3537 336.799L33.1613 349.041C31.9413 349.746 30.3427 350.093 28.744 350.093V384.011C30.3427 384.022 31.9413 383.664 33.1613 382.959L54.3537 370.728C55.5738 370.023 56.1838 369.098 56.1732 368.183V334.264C56.1732 334.212 56.1522 334.17 56.1522 334.117Z" fill="#DEEAF9"/>
<g opacity="0.5">
<path d="M24.3478 349.041L3.13432 336.789C1.92483 336.094 1.32534 335.179 1.31482 334.264V368.172V368.183C1.31482 369.098 1.92483 370.013 3.13432 370.718L24.3478 382.97C25.5573 383.664 27.1454 384.022 28.7441 384.022V350.104C27.1454 350.083 25.5573 349.735 24.3478 349.041Z" fill="#DEEAF9"/>
</g>
<path d="M28.7545 385.336C26.935 385.336 25.1155 384.926 23.6957 384.106L2.47167 371.853C0.883548 370.928 9.17624e-05 369.623 9.17624e-05 368.193V334.264C-0.0104256 332.834 0.883548 331.488 2.47167 330.573L23.6641 318.341C26.5038 316.7 30.9421 316.7 33.7818 318.341L54.9953 330.594C56.5729 331.498 57.4774 332.844 57.4774 334.275V368.193C57.4774 368.225 57.4774 368.267 57.4774 368.298C57.4353 369.697 56.5413 370.991 54.9953 371.874L33.8028 384.106C32.3935 384.926 30.574 385.336 28.7545 385.336ZM28.723 319.719C27.3557 319.719 25.9884 320.013 24.9683 320.602L3.77582 332.834C3.0396 333.254 2.60839 333.791 2.60839 334.254V368.172C2.60839 368.645 3.0396 369.161 3.77582 369.592L24.9893 381.845C27.0191 383.023 30.4583 383.023 32.4882 381.845L53.6806 369.613C54.4273 369.182 54.848 368.666 54.848 368.204C54.848 368.172 54.848 368.14 54.848 368.119V334.285C54.848 333.822 54.4063 333.286 53.6701 332.865L32.4566 320.613C31.4575 320.013 30.0902 319.719 28.723 319.719Z" fill="#002A91"/>
<path d="M93.5519 332.087C93.5519 331.172 92.9419 330.247 91.7219 329.542L70.5084 317.3C68.0789 315.901 64.1349 315.891 61.7054 317.3L40.513 329.532C39.293 330.236 38.6935 331.162 38.6935 332.087V389.743C38.6935 389.754 38.6935 389.754 38.6935 389.754C38.704 390.679 39.3035 391.584 40.5235 392.289L61.737 404.541C64.177 405.951 68.121 405.951 70.5505 404.552L91.743 392.31C92.963 391.605 93.5625 390.679 93.5625 389.754H93.573V332.087H93.5519Z" fill="#0038EA"/>
<path opacity="0.5" d="M93.5309 331.94C93.6045 332.918 93.005 333.896 91.7324 334.632L70.54 346.875C69.32 347.579 67.7213 347.926 66.1227 347.926V405.603C67.7108 405.614 69.32 405.256 70.54 404.552L91.7324 392.309C92.9524 391.605 93.5519 390.679 93.5519 389.754H93.5624V332.077C93.5519 332.035 93.5309 331.993 93.5309 331.94Z" fill="black"/>
<path opacity="0.2" d="M61.7265 346.864L40.513 334.611C39.3035 333.917 38.6935 333.002 38.683 332.087V389.743C38.683 389.754 38.683 389.754 38.683 389.754C38.6935 390.679 39.293 391.584 40.513 392.288L61.7265 404.541C62.9465 405.246 64.5241 405.593 66.1227 405.593V347.916C64.5241 347.916 62.9465 347.569 61.7265 346.864Z" fill="black"/>
<path d="M66.1437 406.908C64.3242 406.908 62.4942 406.498 61.0743 405.677L39.8608 393.435C38.2727 392.509 37.3893 391.216 37.3788 389.775V332.098C37.3682 330.667 38.2727 329.311 39.8503 328.406L61.0428 316.175C63.8719 314.534 68.3103 314.544 71.1605 316.175L92.3845 328.427C93.9621 329.342 94.8666 330.678 94.8666 332.098V389.775C94.8666 389.828 94.8666 389.88 94.856 389.933C94.7929 391.31 93.9095 392.583 92.3845 393.456L71.192 405.698C69.7722 406.508 67.9527 406.908 66.1437 406.908ZM66.0911 317.542C64.7238 317.542 63.3671 317.836 62.3469 318.425L41.1545 330.657C40.4077 331.088 39.9871 331.604 39.9871 332.077V389.743C39.9871 390.217 40.4183 390.732 41.165 391.163L62.3785 403.416C64.4188 404.594 67.8475 404.594 69.8773 403.426L91.0698 391.184C91.806 390.764 92.2372 390.238 92.2372 389.775C92.2372 389.733 92.2372 389.68 92.2477 389.638V332.098C92.2477 331.635 91.806 331.109 91.0698 330.689L69.8563 318.436C68.8361 317.836 67.4584 317.542 66.0911 317.542Z" fill="#002A91"/>
<path d="M130.931 384.201C130.931 383.275 130.321 382.36 129.101 381.655L107.887 369.403C105.447 368.004 101.514 367.993 99.0735 369.403L77.881 381.634C76.6505 382.35 76.051 383.275 76.0615 384.201V411.325C76.0615 411.325 76.0615 411.325 76.0615 411.335V411.346C76.0615 412.261 76.6715 413.176 77.8916 413.87L99.105 426.123C101.545 427.522 105.479 427.522 107.919 426.123L129.111 413.891C130.331 413.186 130.941 412.261 130.941 411.346V384.201H130.931Z" fill="white"/>
<path d="M130.909 384.064C130.983 385.031 130.394 386.009 129.111 386.756L107.919 398.998C106.698 399.703 105.1 400.04 103.501 400.04V427.185C105.1 427.185 106.698 426.838 107.919 426.133L129.111 413.901C130.331 413.197 130.941 412.271 130.941 411.356V384.221C130.93 384.158 130.909 384.116 130.909 384.064Z" fill="#DEEAF9"/>
<g opacity="0.5">
<path d="M99.105 398.978L77.8915 386.725C76.682 386.02 76.072 385.116 76.0615 384.201V411.325C76.0615 411.325 76.0615 411.325 76.0615 411.335V411.346C76.0615 412.261 76.6715 413.176 77.8915 413.87L99.105 426.123C100.315 426.817 101.913 427.175 103.501 427.175V400.029C101.903 400.029 100.315 399.682 99.105 398.978Z" fill="#DEEAF9"/>
</g>
<path d="M103.512 428.489C101.692 428.489 99.8727 428.079 98.4529 427.259L77.2394 415.006C75.6723 414.112 74.7573 412.776 74.7573 411.346V384.201C74.7573 384.169 74.7573 384.137 74.7573 384.106C74.7889 382.686 75.6618 381.413 77.2289 380.509L98.4213 368.277C101.261 366.647 105.699 366.647 108.539 368.277L129.753 380.53C131.351 381.456 132.235 382.76 132.235 384.201V411.335C132.245 412.755 131.341 414.101 129.753 415.016L108.56 427.248C107.151 428.079 105.331 428.489 103.512 428.489ZM77.3656 384.295V411.335C77.3656 411.809 77.8073 412.324 78.533 412.745L99.757 425.008C101.787 426.175 105.226 426.175 107.266 425.008L128.459 412.776C129.195 412.356 129.637 411.819 129.637 411.367V384.222C129.637 383.759 129.206 383.243 128.459 382.812L107.235 370.56C105.195 369.382 101.766 369.382 99.7255 370.56L78.533 382.791C77.7863 383.222 77.3656 383.738 77.3656 384.211C77.3656 384.232 77.3656 384.264 77.3656 384.295Z" fill="#002A91"/>
<path d="M95.4135 224.211C95.4135 228.544 98.453 233.803 102.208 235.969L179.941 280.847C183.696 283.014 186.736 281.268 186.736 276.934V149.307C186.736 144.973 183.686 139.725 179.931 137.548L102.208 92.6811C98.453 90.5146 95.4135 92.2604 95.4135 96.5831V224.211Z" fill="white"/>
<path d="M182.991 283.098C181.835 283.098 180.572 282.729 179.3 281.993L101.566 237.105C97.3908 234.697 94.1199 229.038 94.1199 224.211V96.583C94.1199 94.0063 95.0559 92.05 96.7597 91.0614C98.4635 90.0728 100.641 90.2516 102.87 91.5452L180.604 136.423C184.79 138.842 188.061 144.5 188.061 149.306V276.934C188.061 279.511 187.125 281.478 185.421 282.456C184.674 282.887 183.864 283.098 182.991 283.098ZM99.1577 93.0597C98.737 93.0597 98.3584 93.1544 98.0428 93.3332C97.2015 93.817 96.7071 95.0054 96.7071 96.583V224.211C96.7071 228.05 99.5153 232.919 102.849 234.833L180.583 279.722C181.961 280.51 183.233 280.689 184.085 280.195C184.927 279.711 185.421 278.512 185.41 276.934V149.306C185.41 145.478 182.592 140.609 179.258 138.684L101.556 93.817C100.693 93.3121 99.8623 93.0597 99.1577 93.0597Z" fill="#002A91"/>
<path d="M173.505 244.951C173.515 246.014 172.779 246.424 171.885 245.908L110.274 210.339C109.381 209.823 108.644 208.561 108.644 207.52C108.644 206.489 109.381 206.069 110.274 206.595L171.875 242.143C172.769 242.648 173.505 243.921 173.505 244.951ZM162.178 253.46C162.178 254.512 161.452 254.922 160.547 254.396L110.264 225.379C109.359 224.853 108.634 223.591 108.634 222.549C108.623 221.519 109.359 221.087 110.264 221.624L160.537 250.641C161.452 251.167 162.178 252.429 162.178 253.46ZM150.861 239.409C150.861 238.367 150.135 237.116 149.241 236.59L110.274 214.093C109.381 213.578 108.655 213.999 108.644 215.019C108.644 216.06 109.37 217.322 110.274 217.848L149.241 240.355C150.135 240.871 150.861 240.439 150.861 239.409ZM173.505 218.647C173.505 219.689 172.779 220.109 171.875 219.594L110.264 184.024C109.37 183.509 108.634 182.247 108.634 181.206C108.634 180.175 109.37 179.754 110.264 180.27L171.875 215.839C172.779 216.344 173.515 217.617 173.505 218.647ZM162.188 227.145C162.178 228.176 161.452 228.597 160.558 228.092L110.274 199.054C109.381 198.538 108.655 197.276 108.655 196.235C108.644 195.194 109.37 194.763 110.274 195.299L160.558 224.327C161.452 224.842 162.178 226.104 162.188 227.145ZM150.85 213.084C150.861 212.064 150.135 210.801 149.231 210.276L110.264 187.768C109.37 187.253 108.634 187.674 108.634 188.715C108.634 189.756 109.359 191.008 110.274 191.534L149.22 214.02C150.135 214.546 150.861 214.135 150.85 213.084ZM141.08 135.087C129.658 128.503 120.413 133.825 120.413 146.993C120.413 160.171 129.668 176.189 141.08 182.773C152.502 189.367 161.757 184.035 161.757 170.867L141.09 158.93V135.087H141.08Z" fill="#0038EA"/>
<path d="M145.602 132.479V156.332L166.269 168.259C166.279 155.091 157.024 139.073 145.602 132.479Z" fill="#DEEAF9"/>
<path d="M459.156 437.271C459.156 441.594 462.195 446.863 465.939 449.03L506.641 472.525C510.386 474.682 513.436 472.946 513.436 468.613V422.305C513.436 417.983 510.396 412.713 506.641 410.547L465.939 387.051C462.185 384.874 459.145 386.63 459.145 390.953L459.156 437.271Z" fill="white"/>
<path d="M509.681 474.765C508.524 474.765 507.262 474.397 505.989 473.661L465.287 450.165C461.112 447.746 457.852 442.088 457.852 437.271L457.841 390.963C457.841 388.386 458.777 386.43 460.481 385.442C462.185 384.453 464.362 384.632 466.602 385.925L507.304 409.411C511.48 411.83 514.75 417.488 514.75 422.305V468.602C514.75 471.179 513.814 473.135 512.121 474.124C511.374 474.555 510.564 474.765 509.681 474.765ZM462.9 387.44C462.479 387.44 462.101 387.534 461.785 387.713C460.933 388.197 460.449 389.386 460.449 390.963L460.46 437.271C460.46 441.11 463.268 445.979 466.592 447.904L507.294 471.4C508.671 472.189 509.944 472.367 510.796 471.873C511.637 471.389 512.121 470.201 512.121 468.623V422.315C512.121 418.476 509.313 413.607 505.979 411.682L465.277 388.197C464.425 387.692 463.605 387.44 462.9 387.44Z" fill="#002A91"/>
<path d="M494.42 440.616C495.735 441.363 497.05 439.69 497.06 436.167C497.05 429.131 493.137 421.369 486.48 417.53C480.443 414.049 475.563 416.899 475.563 423.862C475.563 430.751 480.127 438.512 486.101 441.962C487.931 443.024 490.34 443.697 492.138 443.182L493.611 447C491.749 447.61 488.573 446.842 486.091 445.412C478.287 440.9 472.376 430.887 472.366 422.021C472.366 413.018 478.592 409.611 486.469 414.154C494.305 418.666 500.194 428.763 500.194 437.871C500.194 443.392 497.586 445.433 494.021 443.371C492.096 442.267 490.676 440.605 490.266 438.365L490.203 437.881C488.951 439.206 487.206 439.08 485.418 438.05C481.81 435.957 478.413 430.593 478.413 425.45C478.413 420.696 480.99 418.214 484.965 420.517C487.5 421.99 489.141 424.892 489.277 425.313V423.42L493.221 425.692L493.211 438.102C493.232 439.448 493.716 440.206 494.42 440.616ZM482.757 427.764C482.757 430.214 483.956 433.054 485.849 434.137C487.837 435.305 489.025 433.906 489.025 431.413C489.036 429.005 487.805 426.375 485.786 425.208C483.977 424.177 482.757 425.429 482.757 427.764Z" fill="#DEEAF9"/>
<path d="M465.382 322.864C465.382 327.186 468.421 332.445 472.176 334.622L549.92 379.51C553.665 381.666 556.704 379.92 556.704 375.598V341.953C556.704 337.63 553.675 332.361 549.91 330.184L472.166 285.306C468.411 283.14 465.371 284.896 465.371 289.229L465.382 322.864Z" fill="white"/>
<path d="M552.949 381.74C551.793 381.74 550.541 381.372 549.258 380.635L471.514 335.747C467.338 333.328 464.067 327.67 464.067 322.863V289.219C464.067 286.642 465.003 284.675 466.707 283.686C468.411 282.698 470.588 282.866 472.818 284.16L550.562 329.037C554.737 331.456 558.008 337.115 558.008 341.931V375.576C558.008 378.153 557.072 380.12 555.368 381.098C554.643 381.529 553.822 381.74 552.949 381.74ZM466.686 322.863C466.686 326.702 469.505 331.561 472.828 333.486L550.573 378.374C551.94 379.163 553.212 379.342 554.064 378.847C554.906 378.364 555.4 377.175 555.4 375.587V341.942C555.4 338.103 552.592 333.234 549.258 331.309L471.524 286.431C470.146 285.643 468.874 285.464 468.022 285.958C467.17 286.452 466.686 287.641 466.686 289.219V322.863Z" fill="#002A91"/>
<path d="M543.473 343.604C543.473 344.645 542.748 345.065 541.843 344.54L480.232 308.97C479.338 308.444 478.602 307.193 478.602 306.151C478.602 305.11 479.338 304.689 480.232 305.205L541.843 340.774C542.737 341.3 543.473 342.562 543.473 343.604ZM532.146 352.102C532.157 353.153 531.42 353.553 530.516 353.038L480.232 324.01C479.338 323.484 478.613 322.232 478.602 321.181C478.613 320.16 479.328 319.729 480.232 320.255L530.516 349.283C531.42 349.809 532.157 351.06 532.146 352.102ZM520.829 338.05C520.819 337.009 520.093 335.747 519.21 335.232L480.254 312.735C479.349 312.209 478.613 312.63 478.623 313.671C478.613 314.712 479.349 315.974 480.254 316.49L519.21 338.986C520.104 339.502 520.84 339.092 520.829 338.05Z" fill="#DEEAF9"/>
<path d="M30.5003 245.046C35.0123 240.523 42.3428 240.534 46.8548 245.046C51.3772 249.558 51.3772 256.878 46.8653 261.39C42.3534 265.912 35.0228 265.912 30.5108 261.39C25.9884 256.878 25.9884 249.558 30.5003 245.046Z" fill="white"/>
<path d="M43.0581 257.593C46.9179 253.733 47.4543 247.843 44.7093 243.384C45.4665 243.847 46.2027 244.383 46.8548 245.046C51.3773 249.557 51.3773 256.878 46.8653 261.389C42.3534 265.912 35.0228 265.912 30.5109 261.389C29.8483 260.737 29.3224 260.001 28.8491 259.244C33.298 261.989 39.1982 261.453 43.0581 257.593Z" fill="#DEEAF9"/>
<path d="M38.6828 266.091C35.2436 266.091 32.0148 264.755 29.5748 262.315C27.1453 259.886 25.8096 256.657 25.8096 253.218C25.8096 249.779 27.1453 246.55 29.5748 244.12C32.0043 241.691 35.2331 240.344 38.6723 240.344C42.1115 240.344 45.3403 241.68 47.7698 244.12C50.1993 246.55 51.5455 249.779 51.5455 253.218C51.5455 256.657 50.2098 259.886 47.7803 262.315C45.3508 264.755 42.122 266.091 38.6828 266.091ZM38.6828 242.963C35.9378 242.963 33.3715 244.036 31.4363 245.971C29.5012 247.906 28.4284 250.483 28.4284 253.218C28.4284 255.952 29.4906 258.529 31.4363 260.464C33.3715 262.399 35.9483 263.472 38.6933 263.472C41.4383 263.472 44.0151 262.399 45.9503 260.464C47.8855 258.529 48.9582 255.952 48.9477 253.218C48.9477 250.483 47.875 247.906 45.9398 245.971C43.9941 244.036 41.4173 242.963 38.6828 242.963Z" fill="#002A91"/>
</svg>
