<?xml version="1.0" encoding="utf-8"?>
<!-- Generator: Adobe Illustrator 17.1.0, SVG Export Plug-In . SVG Version: 6.00 Build 0)  -->
<!DOCTYPE svg PUBLIC "-//W3C//DTD SVG 1.1//EN" "http://www.w3.org/Graphics/SVG/1.1/DTD/svg11.dtd">
<svg version="1.1" xmlns="http://www.w3.org/2000/svg" xmlns:xlink="http://www.w3.org/1999/xlink" x="0px" y="0px"
	 viewBox="0 0 355 380" enable-background="new 0 0 355 380" xml:space="preserve">
<g id="Layer_6">
	<g>
		<g>
			<path fill="#9D9D9D" d="M281.8,202.3c0,5.5-4.5,10-10,10H23.2c-5.5,0-10-4.5-10-10V31c0-5.5,4.5-10,10-10h248.7
				c5.5,0,10,4.5,10,10V202.3z"/>
		</g>
		<polygon fill="#9D9D9D" points="184.7,200.9 119.8,200.9 97.1,248.3 205.2,247.4 		"/>
		<rect x="53.3" y="249.7" fill="#9D9D9D" width="198.7" height="6.7"/>
		<rect x="25.3" y="34.3" fill="#FFFFFF" width="244.5" height="152"/>
		<g id="window">
			<rect x="46.7" y="34.3" fill="#CFCFCE" width="201.5" height="152"/>
		</g>
		<rect x="119.8" y="34.3" fill="#2AA5DE" width="55.4" height="15.9"/>
		<rect x="189.9" y="61" fill="#2AA5DE" width="15.3" height="4.1"/>
		<rect x="59.8" y="73.3" fill="#E2E2E2" width="175.4" height="52.7"/>
		<rect x="59.8" y="137.1" fill="#E2E2E2" width="50.5" height="32.7"/>
		<rect x="169.9" y="61" fill="#2AA5DE" width="15.3" height="4.1"/>
		<rect x="149.9" y="61" fill="#2AA5DE" width="15.3" height="4.1"/>
		<rect x="159.6" y="41" fill="#2AA5DE" width="15.3" height="4.1"/>
		<rect x="184.8" y="137.1" fill="#2AA5DE" width="50.5" height="32.7"/>
		<rect x="121.8" y="137.1" fill="#E2E2E2" width="50.5" height="32.7"/>
		<rect x="129.9" y="61" fill="#2AA5DE" width="15.3" height="4.1"/>
		<rect x="109.9" y="61" fill="#2AA5DE" width="15.3" height="4.1"/>
		<rect x="89.9" y="61" fill="#2AA5DE" width="15.3" height="4.1"/>
		<polygon fill="#F4F4F4" points="25.3,186.4 25.3,34.3 269.7,34.3 		"/>
	</g>
</g>
<g id="Layer_4">
	<g>
		<g>
			<path fill="#60C9E2" d="M353,244.6c0,5.5-4.5,10-10,10H236.6c-5.5,0-10-4.5-10-10V76.2c0-5.5,4.5-10,10-10H343
				c5.5,0,10,4.5,10,10V244.6z"/>
		</g>
		<rect x="236" y="82.2" fill="#FFFFFF" width="109.7" height="137.6"/>
		<circle fill="#FFFFFF" cx="289.8" cy="236.5" r="10.6"/>
		<polygon fill="#EFEFEF" points="236,219.8 236,82.2 345.6,82.2 		"/>
		<rect x="251" y="129.8" fill="#ED993D" width="22.5" height="72"/>
		<rect x="281.1" y="124.2" fill="#ED993D" width="22.5" height="77.7"/>
		<rect x="310.8" y="99.2" fill="#ED993D" width="22.5" height="102.7"/>
	</g>
</g>
<g id="line">
	<g>
		<circle fill="#C6C6C5" cx="153.9" cy="293.9" r="5.7"/>
		<line fill="none" stroke="#60C9E2" stroke-width="3" stroke-miterlimit="10" x1="117.1" y1="325.2" x2="153.9" y2="293.9"/>
		<circle fill="#3CAEC1" cx="117.1" cy="325.2" r="5.7"/>
		<circle fill="#3CAEC1" cx="153.9" cy="293.9" r="5.7"/>
		<polygon fill="#E0E0E0" points="152.2,324.3 118.2,358.3 89.4,358.3 89.4,332.3 93.3,321.4 123.9,316.3 148.1,321.1 		"/>
		<circle fill="#3CAEC1" cx="278.6" cy="249.1" r="5.7"/>
		<g>
			<path fill="#29A5DE" d="M87.2,230.8c-5.5,0-10,4.5-10,10v107.5c0,5.5,4.5,10,10,10h208.6c5.5,0,10-4.5,10-10V240.8
				c0-5.5-4.5-10-10-10H87.2z M272.8,337.3c0,5.5-4.5,10-10,10H109.2c-5.5,0-10-4.5-10-10v-85.5c0-5.5,4.5-10,10-10h153.6
				c5.5,0,10,4.5,10,10V337.3z"/>
		</g>
		<circle fill="#1C88AF" cx="290.7" cy="294.5" r="9.9"/>
		<rect x="99.2" y="241.8" fill="#FFFFFF" width="176.8" height="105.3"/>
		<line fill="none" stroke="#60C9E2" stroke-width="3" stroke-miterlimit="10" x1="155.9" y1="280.4" x2="207.9" y2="305.3"/>
		<circle fill="#FFFFFF" cx="120.7" cy="292.9" r="39.3"/>
		<line fill="none" stroke="#60C9E2" stroke-width="5" stroke-miterlimit="10" x1="119.3" y1="289.9" x2="164.3" y2="300"/>
		<line fill="none" stroke="#60C9E2" stroke-width="6" stroke-miterlimit="10" x1="87" y1="317.4" x2="119.3" y2="289.9"/>
		<g>
			<path fill="#ED993D" d="M120.7,336.9c25.4,0,46-20.6,46-46s-20.6-46-46-46s-46,20.6-46,46S95.3,336.9,120.7,336.9z M86.2,290.9
				c0-19,15.5-34.5,34.5-34.5s34.5,15.5,34.5,34.5s-15.5,34.5-34.5,34.5S86.2,309.9,86.2,290.9z"/>
			<path fill="#ED993D" d="M47.4,364.2c4.5,4.5,11.8,4.5,16.3,0l35-35c-6.5-4.2-12.1-9.7-16.3-16.3l-35,35
				C42.9,352.4,42.9,359.7,47.4,364.2z"/>
		</g>
		<circle fill="#3CAEC1" cx="119.3" cy="289.9" r="9.5"/>
		<line fill="none" stroke="#60C9E2" stroke-width="3" stroke-miterlimit="10" x1="207.9" y1="305.3" x2="237.7" y2="265"/>
		<circle fill="#3CAEC1" cx="207.9" cy="305.3" r="5.7"/>
		<line fill="none" stroke="#60C9E2" stroke-width="3" stroke-miterlimit="10" x1="256.2" y1="328" x2="237.7" y2="265"/>
		<circle fill="#3CAEC1" cx="256.2" cy="328" r="5.7"/>
		<circle fill="#3CAEC1" cx="237.7" cy="265" r="5.7"/>
	</g>
</g>
<g id="Layer_5">
</g>
<g id="large_circle">
</g>
<g id="small_circle">
</g>
</svg>
