<svg width="84" height="103" viewBox="0 0 84 103" fill="none" xmlns="http://www.w3.org/2000/svg">
<circle cx="39.2942" cy="51.1585" r="38.6692" fill="#D91965"/>
<circle cx="60.911" cy="71.3339" r="22.8173" fill="#831F81"/>
<circle cx="43.8585" cy="98.4747" r="3.84291" fill="#831F81"/>
<circle cx="67.8774" cy="6.72509" r="6.72509" fill="#D91965"/>
<path fill-rule="evenodd" clip-rule="evenodd" d="M67.4213 60.0459L66.2367 69.3516C66.0045 71.1788 66.3442 73.3427 66.2179 74.8993C66.1691 75.5021 65.5828 76.2469 64.5674 76.2469H51.965C51.1202 76.2469 50.5039 75.7569 49.9605 75.109L45.1697 69.3997C44.5759 68.6925 44.3369 67.1299 44.1415 66.2279L41.4567 53.8541C40.6352 49.7082 47.0284 49.9562 48.0439 53.3422L49.5523 59.5077C49.8402 60.4878 51.1864 60.2368 52.628 60.2398C54.029 60.2435 55.0459 59.6483 56.0621 58.6516C56.9219 57.8083 57.4857 56.6892 57.4857 55.4332V41.4426C58.1328 41.7997 58.7326 42.2378 59.17 42.664C60.0329 43.5036 60.1997 46.4694 61.1453 47.7239C62.511 49.5353 63.927 51.4775 65.2822 52.677C67.6174 54.744 67.9151 56.1615 67.4213 60.0459ZM54.5949 34.5789C55.0632 34.6781 55.4217 35.0922 55.4217 35.5898V40.0469C55.4217 40.5445 55.0632 40.9586 54.5949 41.0578V42.1627C55.0632 42.2619 55.4217 42.676 55.4217 43.1744V45.8208C55.4217 46.3184 55.0639 46.74 54.5949 46.8415V57.8166C54.5949 57.9113 54.5559 57.9932 54.4814 58.0518C54.0124 58.4246 52.3183 58.8313 51.8696 58.3983C51.8087 58.3397 51.7779 58.2661 51.7779 58.1819V32.1549C51.7779 31.4995 51.239 30.9606 50.5836 30.9606H47.4396L47.4253 30.9817C46.8074 31.9407 45.8198 32.4886 44.6774 32.4886H38.0699C36.923 32.4886 35.9323 31.9445 35.31 30.9779L35.2995 30.9606H32.154C31.5038 30.9606 30.9596 31.5048 30.9596 32.1549V72.2356C30.9596 72.8857 31.5038 73.4299 32.154 73.4299H45.8506C46.0806 73.4299 46.2791 73.5223 46.4271 73.6982L48.1506 75.7531C48.228 75.8448 48.2438 75.9651 48.1934 76.0733C48.1431 76.1816 48.0401 76.2469 47.9206 76.2469H32.154C29.948 76.2469 28.1426 74.4408 28.1426 72.2356V32.1549C28.1426 29.9489 29.948 28.1436 32.154 28.1436H50.5836C52.7896 28.1436 54.5949 29.9489 54.5949 32.1549V34.5789Z" fill="white"/>
<rect x="33.3262" y="50.956" width="7.25849" height="1.03693" rx="0.518464" fill="white"/>
<rect x="33.3262" y="54.0667" width="4.14771" height="1.03693" rx="0.518464" fill="white"/>
<rect x="33.3262" y="57.1775" width="7.25849" height="1.03693" rx="0.518464" fill="white"/>
<rect x="33.3262" y="60.2883" width="7.25849" height="1.03693" rx="0.518464" fill="white"/>
<path d="M33.3262 67.0283C33.3262 65.5966 34.4868 64.436 35.9185 64.436H41.6482C41.9342 64.436 42.1804 64.6379 42.2365 64.9183L43.0574 69.0226C43.1192 69.332 42.8826 69.6206 42.5671 69.6206H35.9185C34.4868 69.6206 33.3262 68.46 33.3262 67.0283Z" fill="white"/>
<rect x="33.3262" y="34.3651" width="16.5908" height="14.517" rx="1" fill="#831F81"/>
<path d="M17.7734 32.2913V50.956H26.0689" stroke="white" stroke-linecap="round" stroke-linejoin="round"/>
<path d="M21.9199 70.6576V58.2144H26.0676" stroke="#831F81" stroke-linecap="round" stroke-linejoin="round"/>
<circle cx="17.7731" cy="31.2543" r="2.07385" fill="white"/>
<circle cx="21.9215" cy="71.6945" r="2.07385" fill="#831F81"/>
</svg>
