<svg width="121" height="117" viewBox="0 0 121 117" fill="none" xmlns="http://www.w3.org/2000/svg">
<path d="M81.6979 30.3215L80.8248 109.485C80.7912 112.531 77.5005 114.423 74.8509 112.92L6.65738 74.2223C3.97768 72.7017 3.95104 68.8497 6.60945 67.2922L75.6761 26.8261C78.3597 25.2538 81.7322 27.2115 81.6979 30.3215Z" fill="#D91965"/>
<path d="M103.576 61.6528L105.631 53.2838C105.994 51.8067 104.64 50.4813 103.171 50.875L94.9648 53.0739C93.4789 53.472 92.98 55.3284 94.066 56.4178L100.217 62.5878C101.318 63.6924 103.204 63.1674 103.576 61.6528Z" fill="#D91965"/>
<path d="M51.7756 49.0686L52.7603 107.858C52.7986 110.145 55.2792 111.549 57.2599 110.406L108.241 80.972C110.252 79.8111 110.238 76.904 108.216 75.7619L56.2507 46.4063C54.2314 45.2656 51.7367 46.7497 51.7756 49.0686Z" fill="#831F81"/>
<path d="M30.4979 100.585L27.4192 106.299C27.0603 106.966 27.5428 107.774 28.2996 107.774L34.6493 107.774C35.4175 107.774 35.8988 106.944 35.5172 106.277L32.2461 100.562C31.8564 99.8812 30.87 99.8939 30.4979 100.585Z" fill="#831F81"/>
<path d="M75.6246 53.9998H36.6274C34.9676 53.9998 33.625 55.3438 33.625 57.0008V82.2493C33.625 83.9064 34.9676 85.2497 36.6274 85.2531H75.6246C77.281 85.2497 78.6236 83.9064 78.625 82.2493V57.0002C78.6236 55.3397 77.281 53.9998 75.6246 53.9998ZM75.531 82.1577H36.7183V57.0918H75.5303V82.1577H75.531Z" fill="white"/>
<path d="M63.2957 87.8979H48.9604C47.328 87.8979 46.0059 89.22 46.0059 90.847C46.0059 91.0651 46.0346 91.2763 46.0776 91.4827H66.1744C66.2188 91.2763 66.2476 91.0657 66.2476 90.847C66.2476 89.2193 64.9261 87.8979 63.2957 87.8979Z" fill="white"/>
<circle cx="71.4297" cy="64.4998" r="13.5" fill="#831F81"/>
<path d="M71.3531 78.4033C73.7726 78.4033 76.0343 77.7721 78.033 76.6676L84.9233 83.5579C86.3435 84.978 88.763 85.0306 90.2357 83.5579C91.7085 82.0851 91.6559 79.7182 90.2357 78.2455L83.2928 71.4078C84.3974 69.409 85.0285 67.1473 85.0285 64.7278C85.0285 57.0485 78.822 50.9998 71.3531 50.9998C63.779 50.9998 57.625 57.1537 57.625 64.7278C57.625 72.2493 63.779 78.4033 71.3531 78.4033ZM71.3531 52.0517C78.3486 52.0517 84.0292 57.7323 84.0292 64.7278C84.0292 71.7234 78.3486 77.4039 71.3531 77.4039C64.3575 77.3513 58.677 71.6708 58.677 64.7278C58.677 57.7323 64.3575 52.0517 71.3531 52.0517Z" fill="white"/>
<path d="M69.0404 57.714C69.5942 57.714 70.1481 57.902 70.5173 58.2404C69.5942 58.5787 69.0404 59.3682 68.9942 60.1577C68.9481 61.1351 69.7788 61.9998 71.625 61.9998C73.5173 61.9998 74.2558 61.2479 74.2558 60.2704C74.2558 59.3682 73.6558 58.5411 72.7327 58.2028C73.1481 57.8644 73.6558 57.6764 74.2096 57.6764C74.4404 57.6764 74.625 57.5261 74.625 57.3381C74.625 57.1501 74.4404 56.9998 74.2096 56.9998C73.2404 56.9998 72.4096 57.3757 71.8096 58.0148C71.6712 58.0148 71.5327 58.0148 71.4404 58.0148C70.8865 57.3757 70.0096 56.9998 69.0404 56.9998C68.8096 56.9998 68.625 57.1501 68.625 57.3381C68.625 57.5637 68.8096 57.714 69.0404 57.714Z" fill="#D91965"/>
<path d="M78.5121 70.2209C78.6507 70.4132 78.5583 70.7017 78.3736 70.8459C78.1888 70.9901 77.9117 70.894 77.7732 70.7017L76.9418 69.2594H75.6025C75.0021 70.5574 74.0784 71.5671 72.9238 71.9998L71.6306 65.6536L70.2913 71.9517C69.1366 71.519 68.1668 70.5094 67.6126 69.2113H66.2732L65.4419 70.6536C65.3033 70.8459 65.0724 70.9421 64.8415 70.7978C64.6568 70.6536 64.5644 70.4132 64.7029 70.1728L65.6728 68.5382C65.7652 68.394 65.9037 68.2978 66.0423 68.2978H67.2893C67.1045 67.7209 67.0122 67.0478 67.0122 66.3748C67.0122 66.1824 67.0122 65.9421 67.0583 65.7498H66.2732L65.4419 67.1921C65.3033 67.3844 65.0724 67.4805 64.8415 67.3363C64.6106 67.1921 64.5644 66.9517 64.7029 66.7113L65.6728 65.0286C65.7652 64.8844 65.9037 64.8363 66.0423 64.8363H67.1969C67.4278 63.7305 67.9359 62.769 68.6286 61.9998C69.3214 63.1536 70.3374 63.4901 71.6306 63.4901C72.8776 63.4901 74.0322 63.1536 74.6788 62.0478C75.3254 62.769 75.8334 63.7305 76.0643 64.8363H77.2189C77.3575 64.8363 77.496 64.9324 77.5884 65.0286L78.5583 66.7113C78.6968 66.9036 78.6045 67.1921 78.4197 67.3363C78.235 67.4805 77.9579 67.3844 77.8193 67.1921L76.988 65.7498H76.2029C76.2029 65.9421 76.2491 66.1824 76.2491 66.3748C76.2491 67.0478 76.1567 67.6728 75.972 68.2978H77.2189C77.3575 68.2978 77.496 68.394 77.5884 68.5382L78.5121 70.2209Z" fill="#D91965"/>
</svg>
