<?xml version="1.0" encoding="UTF-8"?> <svg xmlns="http://www.w3.org/2000/svg" width="48" height="48" viewBox="0 0 48 48" fill="none"><g clip-path="url(#clip0_903_2308)"><path d="M10.7808 39.0919H7.03098C3.928 39.0919 1.40625 41.6137 1.40625 44.7166V46.5916H16.4055V44.7166C16.4055 41.6137 13.8838 39.0919 10.7808 39.0919Z" stroke="black" stroke-width="3" stroke-miterlimit="13.3333" stroke-linecap="round" stroke-linejoin="round"></path><path d="M40.9668 39.0919H37.217C34.114 39.0919 31.5923 41.6137 31.5923 44.7166V46.5916H46.5916V44.7166C46.5916 41.6137 44.0698 39.0919 40.9668 39.0919Z" stroke="black" stroke-width="3" stroke-miterlimit="13.3333" stroke-linecap="round" stroke-linejoin="round"></path><path d="M28.6861 6.09349C28.6861 8.68086 26.5862 10.7808 23.9988 10.7808C21.4114 10.7808 19.3115 8.68086 19.3115 6.09349C19.3115 3.50612 21.4114 1.40622 23.9988 1.40622C26.5862 1.40622 28.6861 3.50612 28.6861 6.09349Z" stroke="black" stroke-width="3" stroke-miterlimit="13.3333" stroke-linecap="round" stroke-linejoin="round"></path><path d="M23.999 26.905V18.2805" stroke="#FE4C28" stroke-width="3" stroke-miterlimit="13.3333" stroke-linecap="round" stroke-linejoin="round"></path><path d="M26.8112 29.7174C26.8112 31.2736 25.5551 32.5298 23.9989 32.5298C22.4427 32.5298 21.1865 31.2736 21.1865 29.7174C21.1865 28.1612 22.4427 26.9051 23.9989 26.9051C25.5551 26.9051 26.8112 28.1612 26.8112 29.7174Z" stroke="#FE4C28" stroke-width="3" stroke-miterlimit="13.3333" stroke-linecap="round" stroke-linejoin="round"></path><path d="M21.3122 30.5516L13.3813 33.0171" stroke="#FE4C28" stroke-width="3" stroke-miterlimit="13.3333" stroke-linecap="round" stroke-linejoin="round"></path><path d="M34.6145 33.0142L26.6836 30.5487" stroke="#FE4C28" stroke-width="3" stroke-miterlimit="13.3333" stroke-linecap="round" stroke-linejoin="round"></path><path d="M25.8736 10.7806H22.1237C19.0208 10.7806 16.499 13.3024 16.499 16.4054V18.2803H31.4983V16.4054C31.4983 13.3024 28.9765 10.7806 25.8736 10.7806Z" stroke="black" stroke-width="3" stroke-miterlimit="13.3333" stroke-linecap="round" stroke-linejoin="round"></path><path d="M13.5933 34.4045C13.5933 36.9919 11.4934 39.0918 8.90602 39.0918C6.31865 39.0918 4.21875 36.9919 4.21875 34.4045C4.21875 31.8172 6.31865 29.7173 8.90602 29.7173C11.4934 29.7173 13.5933 31.8172 13.5933 34.4045Z" stroke="black" stroke-width="3" stroke-miterlimit="13.3333" stroke-linecap="round" stroke-linejoin="round"></path><path d="M43.7793 34.4045C43.7793 36.9919 41.6794 39.0918 39.0921 39.0918C36.5047 39.0918 34.4048 36.9919 34.4048 34.4045C34.4048 31.8172 36.5047 29.7173 39.0921 29.7173C41.6794 29.7173 43.7793 31.8172 43.7793 34.4045Z" stroke="black" stroke-width="3" stroke-miterlimit="13.3333" stroke-linecap="round" stroke-linejoin="round"></path></g><defs><clipPath id="clip0_903_2308"><rect width="48" height="48" fill="white"></rect></clipPath></defs></svg> 