<?xml version="1.0" encoding="UTF-8"?> <svg xmlns="http://www.w3.org/2000/svg" width="48" height="48" viewBox="0 0 48 48" fill="none"><g clip-path="url(#clip0_903_2246)"><path d="M31.0242 37.7545V46.5947H3.64111V1.40944H31.0242V11.1121" stroke="#000412" stroke-width="3" stroke-miterlimit="13.3333" stroke-linejoin="round"></path><path d="M21.6682 7.03101H13.0062L9.25635 1.40628H25.4181L21.6682 7.03101Z" stroke="#000412" stroke-width="3" stroke-miterlimit="13.3333" stroke-linejoin="round"></path><path d="M16.1162 41.0266H18.9286" stroke="#000412" stroke-width="3" stroke-miterlimit="13.3333" stroke-linecap="round" stroke-linejoin="round"></path><path d="M44.3525 26.381V22.4812L42.0464 21.4781C41.7839 20.5125 41.3995 19.5938 40.9027 18.7407L42.2245 16.7814L38.6903 13.2566L36.6935 14.6066C35.8592 14.1285 34.9498 13.7628 33.9936 13.5097L32.9718 11.1192H29.072L28.0408 13.5754C27.1315 13.8285 26.2784 14.2034 25.4816 14.6628L23.3817 13.2472L19.8381 16.7814L21.263 18.8907C20.8037 19.6876 20.4474 20.55 20.1943 21.4593L17.7007 22.4999V26.381L20.1943 27.4215C20.438 28.3215 20.8037 29.1746 21.2536 29.9621L19.8287 32.0713L22.5098 34.7524L23.3629 35.6055L25.4628 34.19C26.269 34.6587 27.1315 35.0337 28.0502 35.2868L29.0814 37.7429H32.9812L34.003 35.3524C34.9498 35.1087 35.8498 34.7431 36.6841 34.2743L38.6809 35.6243L42.2151 32.0994L40.8933 30.1402C41.3902 29.2871 41.7839 28.359 42.0464 27.3841L44.3525 26.381Z" stroke="#FE4C28" stroke-width="3" stroke-miterlimit="13.3333" stroke-linejoin="round"></path><path d="M25.791 24.433C25.791 21.48 28.1909 19.0802 31.1439 19.0802C34.0969 19.0802 36.4967 21.48 36.4967 24.433C36.4967 27.386 34.1062 29.7859 31.1439 29.7859C28.1909 29.7859 25.791 27.386 25.791 24.433Z" stroke="#FE4C28" stroke-width="3" stroke-miterlimit="13.3333" stroke-linejoin="round"></path></g><defs><clipPath id="clip0_903_2246"><rect width="48" height="48" fill="white"></rect></clipPath></defs></svg> 