<?xml version="1.0" encoding="UTF-8"?> <svg xmlns="http://www.w3.org/2000/svg" width="48" height="48" viewBox="0 0 48 48" fill="none"><g clip-path="url(#clip0_902_2212)"><path d="M27.0094 34.8938C26.0531 35.1563 25.0406 35.2969 24 35.2969C17.7656 35.2969 12.7031 30.2344 12.7031 24C12.7031 17.7656 17.7656 12.7031 24 12.7031C25.0406 12.7031 26.0531 12.8438 27.0094 13.1063V34.8938Z" stroke="#000412" stroke-width="3" stroke-miterlimit="10" stroke-linecap="round" stroke-linejoin="round"></path><path d="M42.8249 13.4625C44.9063 13.4625 46.5937 11.7752 46.5937 9.6938C46.5937 7.61238 44.9063 5.92505 42.8249 5.92505C40.7435 5.92505 39.0562 7.61238 39.0562 9.6938C39.0562 11.7752 40.7435 13.4625 42.8249 13.4625Z" stroke="#FE4C28" stroke-width="3" stroke-miterlimit="10" stroke-linecap="round" stroke-linejoin="round"></path><path d="M42.8249 27.7687C44.9063 27.7687 46.5937 26.0814 46.5937 24C46.5937 21.9185 44.9063 20.2312 42.8249 20.2312C40.7435 20.2312 39.0562 21.9185 39.0562 24C39.0562 26.0814 40.7435 27.7687 42.8249 27.7687Z" stroke="#FE4C28" stroke-width="3" stroke-miterlimit="10" stroke-linecap="round" stroke-linejoin="round"></path><path d="M27.0093 24H39.0655" stroke="#FE4C28" stroke-width="3" stroke-miterlimit="10" stroke-linecap="round" stroke-linejoin="round"></path><path d="M42.8249 42.0751C44.9063 42.0751 46.5937 40.3878 46.5937 38.3063C46.5937 36.2249 44.9063 34.5376 42.8249 34.5376C40.7435 34.5376 39.0562 36.2249 39.0562 38.3063C39.0562 40.3878 40.7435 42.0751 42.8249 42.0751Z" stroke="#FE4C28" stroke-width="3" stroke-miterlimit="10" stroke-linecap="round" stroke-linejoin="round"></path><path d="M39.0655 9.69385H35.2968L30.778 15.7126H27.0093" stroke="#FE4C28" stroke-width="3" stroke-miterlimit="10" stroke-linecap="round" stroke-linejoin="round"></path><path d="M39.0655 38.3063H35.2968L30.778 32.2876H27.0093" stroke="#FE4C28" stroke-width="3" stroke-miterlimit="10" stroke-linecap="round" stroke-linejoin="round"></path><path d="M27.0094 1.40625V46.5938H20.9813L20.3719 41.7094C18.075 41.2406 15.9281 40.3312 14.0344 39.0844L10.1437 42.1125L5.8875 37.8562L8.91562 33.9656C7.65937 32.0719 6.75937 29.9344 6.29062 27.6281L1.40625 27.0094V20.9813L6.29062 20.3719C6.75937 18.075 7.66875 15.9281 8.91562 14.0344L5.8875 10.1437L10.1437 5.8875L14.0344 8.91562C15.9281 7.65937 18.0656 6.75937 20.3719 6.29062L20.9813 1.40625H27.0094Z" stroke="#000412" stroke-width="3" stroke-miterlimit="10" stroke-linecap="round" stroke-linejoin="round"></path></g><defs><clipPath id="clip0_902_2212"><rect width="48" height="48" fill="white"></rect></clipPath></defs></svg> 