<?xml version="1.0" encoding="utf-8"?>
<!-- Generator: Adobe Illustrator 27.5.0, SVG Export Plug-In . SVG Version: 6.00 Build 0)  -->
<svg version="1.1" id="Layer_1" xmlns="http://www.w3.org/2000/svg" xmlns:xlink="http://www.w3.org/1999/xlink" x="0px" y="0px"
	 viewBox="0 0 900 900" style="enable-background:new 0 0 900 900;" xml:space="preserve">
<path style="opacity:0.5;fill:#3A508E;" d="M784.676,698.345c0,14.684-12.894,28.405-35.228,40.044
	c-0.109,0.064-0.227,0.127-0.354,0.173l-0.127-0.018L623.807,794.51l-105.982-38.24l-90.736,6.956l122.621-64.009l-38.118-25.206
	l-15.474-10.232l-51.511-45.878c31.221-4.888,66.295,4.171,103.34,4.171c0.963,0,1.917,0,2.872,0.018
	c17.791,0.064,35.11,0.754,51.747,2.026c3.426,0.255,6.815,0.545,10.177,0.854c1.127,0.1,2.253,0.209,3.38,0.318
	c2.889,0.273,5.77,0.573,8.614,0.891c14.257,1.572,27.895,3.571,40.78,5.952c34.029,6.288,62.742,15.21,83.45,25.915
	c0.173,0.091,0.336,0.173,0.482,0.254C771.782,669.941,784.676,683.662,784.676,698.345z"/>
<g>
	<path style="fill:#D81212;" d="M421.825,392.439l-0.676,426.271v5.063c-0.772,0.011-2.082-5.052-2.864-5.052
		c-37.052,0-72.117-2.748-103.346-7.641l0.676-411.011c31.229-4.893,66.294-7.641,103.346-7.641
		C419.922,392.428,420.874,392.428,421.825,392.439z"/>
	<path style="fill:#AF0425;" d="M630.016,507.092l-1.861,276.741c-3.392,2.23-6.943,7.189-10.969,9.281
		c-41.322,21.538-116.161,25.676-200.336,25.929V401.126C439.149,399.361,630.016,507.092,630.016,507.092z"/>
	<path style="fill:#BF324D;" d="M655.685,468.698v294.613c-2.617,11.967-15.165,23.116-35.219,32.739V428.655
		C642.791,440.294,655.685,454.006,655.685,468.698z"/>
	<path style="fill:#F5111A;" d="M655.685,468.698c0,14.684-12.894,28.405-35.228,40.044c-0.109,0.063-0.227,0.127-0.354,0.173
		l-0.127-0.018l-198.148-39.099l-0.527-0.109l-0.582-0.118L382.6,444.365l-15.474-10.232l-51.511-34.065
		c31.221-4.888,66.295-7.642,103.34-7.642c0.963,0,1.917,0,2.871,0.018c17.791,0.064,35.11,0.754,51.747,2.026
		c3.426,0.255,6.815,0.545,10.177,0.854c1.127,0.1,2.254,0.209,3.38,0.318c2.889,0.273,5.77,0.573,8.614,0.891
		c14.257,1.572,27.895,3.571,40.78,5.952c34.029,6.288,62.742,15.211,83.45,25.915c0.173,0.091,0.336,0.173,0.482,0.254
		C642.791,440.294,655.685,454.015,655.685,468.698z"/>
	<linearGradient id="SVGID_1_" gradientUnits="userSpaceOnUse" x1="513.7762" y1="283.2603" x2="465.9532" y2="542.1726">
		<stop  offset="0" style="stop-color:#3D1D1A"/>
		<stop  offset="0.2664" style="stop-color:#744D33"/>
		<stop  offset="0.9426" style="stop-color:#FCC471"/>
	</linearGradient>
	<path style="fill:url(#SVGID_1_);" d="M655.685,468.698c0,14.684-12.894,28.405-35.228,40.044
		c-0.109,0.063-0.227,0.127-0.354,0.173l-0.127-0.018l-198.148-39.099l-0.527-0.109l-0.582-0.118L382.6,444.365l-15.474-10.232
		l-51.511-34.065c31.221-4.888,66.295-7.642,103.34-7.642c0.963,0,1.917,0,2.871,0.018c17.791,0.064,35.11,0.754,51.747,2.026
		c3.426,0.255,6.815,0.545,10.177,0.854c1.127,0.1,2.254,0.209,3.38,0.318c2.889,0.273,5.77,0.573,8.614,0.891
		c14.257,1.572,27.895,3.571,40.78,5.952c34.029,6.288,62.742,15.211,83.45,25.915c0.173,0.091,0.336,0.173,0.482,0.254
		C642.791,440.294,655.685,454.015,655.685,468.698z"/>
</g>
<g>
	
		<linearGradient id="SVGID_00000035496758361996652770000015857138181874818442_" gradientUnits="userSpaceOnUse" x1="298.6125" y1="514.7832" x2="298.6125" y2="724.356">
		<stop  offset="0" style="stop-color:#E8741F"/>
		<stop  offset="0.1516" style="stop-color:#E97C1F"/>
		<stop  offset="0.3862" style="stop-color:#EC921E"/>
		<stop  offset="0.6745" style="stop-color:#F1B51D"/>
		<stop  offset="0.9762" style="stop-color:#F7E21C"/>
	</linearGradient>
	
		<rect x="181.571" y="539.96" style="fill:url(#SVGID_00000035496758361996652770000015857138181874818442_);" width="234.084" height="216.31"/>
	<path style="fill:#FFAB03;" d="M415.66,539.993l-233.829-0.033c-0.708-2.378-1.057-4.788-1.057-7.218
		c0-29.918,53.454-55.81,131.267-68.302l0.307,0.137L415.66,539.993z"/>
</g>
<g>
	<polygon style="fill:#EDD106;" points="268.076,637.504 268.076,695.111 268.076,819.982 268.076,820.047 417.35,824.23 
		417.35,635.792 417.35,635.591 	"/>
	<polygon style="fill:#FFF352;" points="417.339,635.599 268.076,695.111 231.7,703.745 182.918,665.171 179.917,648.262 
		179.832,638.635 	"/>
	<path style="fill:#F7E21C;" d="M268.076,695.111v124.871c-50.558-13.062-84.112-32.687-88.244-54.859V638.635
		c2.515,21.189,31.863,40.159,77.422,53.485C260.763,693.145,264.377,694.149,268.076,695.111z"/>
</g>
<g>
	<polygon style="fill:#94B700;" points="621.22,724.967 607.481,772.344 417.783,795.596 270.855,757.314 270.901,757.297 
		415.139,696.781 	"/>
	<path style="fill:#677F00;" d="M621.217,724.967v69.929c-2.494,1.522-5.136,3.012-7.926,4.46
		c-41.237,21.495-114.685,35.889-198.638,36.206h-0.528c-0.772,0.011-1.554,0.011-2.336,0.011c-37.052,0-72.117-2.748-103.346-7.641
		c-13.263-2.071-25.828-4.534-37.559-7.334v-63.303c9.575,2.114,19.646,3.995,30.161,5.644c31.229,4.893,66.294,7.641,103.346,7.641
		c0.782,0,1.564,0,2.336-0.011h0.528c83.953-0.317,157.402-14.711,198.638-36.206c4.026-2.092,7.746-4.259,11.139-6.489
		C618.49,726.922,619.885,725.95,621.217,724.967z"/>
</g>
<g>
	<path style="opacity:0.5;fill:#6B342D;" d="M536.525,402.486c-12.885-2.381-26.523-4.38-40.78-5.952
		c-2.638-0.295-5.309-0.572-7.987-0.828c-0.212-0.021-0.419-0.045-0.631-0.066c-0.392-0.038-0.792-0.071-1.185-0.108
		c-0.73-0.07-1.461-0.141-2.191-0.206l-0.01,0.005c-3.363-0.308-6.747-0.602-10.165-0.854l-106.451,39.657l-1.215,0.456v68.169
		l-30.268,6.159l5.906,17.176l41.052-11.675v-70.05l60.652-25.643l18.364,15.435L536.525,402.486z"/>
	<g>
		<g>
			<path d="M329.827,520.299C329.761,519.849,329.871,520.762,329.827,520.299c0.044,0.992,0.228,0.559,0.367,1.497
				c3.772,6.038,15.95,5.518,18.921-0.34c-0.05-0.464-0.068-0.463-0.132-0.926C345.886,526.269,333.568,526.287,329.827,520.299z"/>
			<path style="fill:#472522;" d="M331.346,504.902c-1.452,6.155-2.245,10.472-1.519,15.397c3.772,6.038,16.271,5.949,19.242,0.091
				c-0.604-5.528-2.174-10.983-4.759-16.361L331.346,504.902z"/>
			<g>
				<path style="fill:#472522;" d="M445.323,416.788c0.284,5.461,4.603,8.25,14.76,10.837c1.359,0.368,2.176,1.335,2.445,2.906
					l0.165,2.448c-0.523,1.046-1.374,1.401-2.059,1.501c-16.022,2.342-17.521-0.065-19.458-0.648
					c-1.186-0.357-3.115-1.537-3.32-2.418l-2.055,1.708l-8.023-1.33c-1.229-5.755-1.64-7.777-0.617-11.384L445.323,416.788z"/>
				<path d="M460.514,432.724c-16.022,2.342-17.521-0.065-19.458-0.648c-1.186-0.357-3.115-1.537-3.319-2.418l-2.056,1.708
					l-8.023-1.33c-0.527-2.467-0.902-4.245-1.079-5.759c0.022,1.901,0.46,4.003,1.192,7.428l8.023,1.329l2.055-1.708
					c0.205,0.881,2.134,2.062,3.319,2.419c1.938,0.583,3.436,2.99,19.458,0.648c0.686-0.1,1.536-0.455,2.06-1.501l-0.112-1.668
					C462.05,432.269,461.199,432.624,460.514,432.724z"/>
			</g>
		</g>
		<g>
			<path style="fill:#FFB288;" d="M319.813,201.598c-3.239-6.525-6.164-7.906-8.776-4.143c-2.225,4.462,2.259,11.36,6.731,12.032
				L319.813,201.598z"/>
			<path style="fill:#FFB288;" d="M351.371,198.747c2.615-6.8,5.497-8.423,8.646-4.869c2.828,4.286-1.039,11.562-5.61,12.602
				L351.371,198.747z"/>
			<polygon style="fill:#ED8366;" points="347.551,249.844 347.609,220.257 326.109,220.952 328.51,248.396 			"/>
			<path style="fill:#FFB288;" d="M337.522,229.837L337.522,229.837c-10.394,0.703-19.424-6.499-20.067-16.003l-1.541-22.793
				c-0.643-9.504,7.336-17.855,17.73-18.558l0,0c10.394-0.703,19.424,6.499,20.067,16.003l1.541,22.793
				C355.895,220.783,347.917,229.134,337.522,229.837z"/>
			<path style="fill:#FFB288;" d="M333.365,235.974L333.365,235.974c-2.084,0.183-4.119,0.002-6.047-0.48l1.129,12.903l19.04,1.447
				l0.045-22.738C344.584,231.977,339.439,235.441,333.365,235.974z"/>
			<path style="fill:#682A2A;" d="M319.578,166.339c6.846-3.083,9.892,2.172,7.577,5.085c0,0-5.316,3.444-2.538,0.695
				C328.304,168.47,324.868,165.913,319.578,166.339z"/>
			<path style="fill:#FFFFFF;" d="M344.266,198.619l-1.421,0.171c-1.693,0.204-3.245-1.014-3.449-2.707l0,0
				c-0.204-1.693,1.014-3.245,2.707-3.449l1.421-0.171c1.693-0.204,3.245,1.014,3.449,2.707l0,0
				C347.177,196.863,345.959,198.415,344.266,198.619z"/>
			<path style="fill:#FFFFFF;" d="M328.711,199.665l-1.421,0.171c-1.693,0.204-3.245-1.014-3.449-2.707l0,0
				c-0.204-1.693,1.014-3.245,2.707-3.449l1.421-0.171c1.693-0.204,3.245,1.014,3.449,2.707l0,0
				C331.622,197.909,330.404,199.462,328.711,199.665z"/>
			<path style="fill:#682A2A;" d="M338.025,190.919c2.427-1.664,6.042-1.702,10.493-0.596c0.621-0.035,1.088-0.766,1.04-1.623l0,0
				c-0.049-0.858-0.596-1.53-1.217-1.495c-3.68-0.775-7.183-0.607-10.493,0.596c-0.621,0.035-1.088,0.766-1.04,1.623l0,0
				C336.857,190.281,337.405,190.954,338.025,190.919z"/>
			<path style="fill:#682A2A;" d="M331.508,191.287c-2.653-1.286-6.244-0.789-10.495,0.965c-0.621,0.057-1.193-0.596-1.271-1.452
				l0,0c-0.078-0.855,0.365-1.602,0.986-1.659c3.535-1.312,7.034-1.664,10.495-0.964c0.62-0.057,1.193,0.596,1.271,1.451l0,0
				C332.572,190.484,332.129,191.23,331.508,191.287z"/>
			<path style="fill:#E5846A;" d="M330.892,193.913c-2.542-0.376-4.908,0.078-7.132,1.211c-0.388,0.066-0.759-0.198-0.825-0.586l0,0
				c-0.066-0.388,0.198-0.759,0.586-0.825c1.677-1.06,3.703-1.792,7.132-1.211c0.388-0.066,0.759,0.198,0.825,0.586l0,0
				C331.544,193.476,331.28,193.847,330.892,193.913z"/>
			<path style="fill:#E5846A;" d="M346.855,193.234c-2.441-0.801-4.85-0.754-7.233-0.015c-0.394-0.001-0.715-0.323-0.714-0.717l0,0
				c0.001-0.394,0.324-0.715,0.717-0.714c1.832-0.76,3.953-1.139,7.233,0.015c0.394,0.001,0.715,0.323,0.714,0.717l0,0
				C347.572,192.914,347.249,193.235,346.855,193.234z"/>
			<path style="fill:#F58D6C;" d="M330.377,212.446c4.333,0.546,8.585,0.346,12.749-0.673c0.951-0.233,1.751,0.743,1.32,1.622
				c-4.258,8.686-12.093,5.935-15.198,0.796C328.748,213.364,329.418,212.326,330.377,212.446z"/>
			<path style="fill:#FFFFFF;" d="M331.762,213.107c3.459,0.473,6.85,0.317,10.168-0.535c0.573-0.147,1.072,0.449,0.824,0.987
				c-3.25,7.067-9.5,4.716-11.738,0.608C330.73,213.641,331.168,213.025,331.762,213.107z"/>
			<path style="fill:#682A2A;" d="M323.007,174.847c3.341,6.103,5.676,13.769,22.674,8.567
				C333.646,185.406,326.628,178.511,323.007,174.847z"/>
			<g>
				<path style="fill:#F08C6C;" d="M331.721,196.355c0.196,1.912,0.069,3.782-0.09,5.69c-0.129,1.55-0.681,3.842,0.049,5.307
					c1.336,2.678,6.23,1.49,8.484,1.062c2.368-0.45,1.365-4.064-0.997-3.616c-1.045,0.198-3.881,0.924-4.827,0.213
					c0.287,0.374,0.574,0.747,0.862,1.121c-0.301-1.544,0.126-3.349,0.251-4.901c0.132-1.639,0.186-3.238,0.018-4.875
					C335.227,193.977,331.475,193.952,331.721,196.355L331.721,196.355z"/>
			</g>
			<g>
				<path style="fill:#F08C6C;" d="M337.545,224.096c2.413,0,2.417-3.75,0-3.75C335.132,220.346,335.128,224.096,337.545,224.096
					L337.545,224.096z"/>
			</g>
			<path style="fill:#3E2C27;" d="M329.519,196.207c0.104,1.181-0.77,2.222-1.951,2.326c-1.181,0.104-2.222-0.77-2.326-1.951
				c-0.104-1.181,0.77-2.222,1.951-2.326C328.374,194.152,329.415,195.026,329.519,196.207z"/>
			<path style="fill:#3E2C27;" d="M345.727,194.899c0.104,1.181-0.77,2.222-1.95,2.326c-1.181,0.104-2.222-0.77-2.326-1.951
				c-0.104-1.181,0.77-2.222,1.951-2.326C344.582,192.845,345.623,193.718,345.727,194.899z"/>
			<path style="fill:#FFFFFF;" d="M328.792,195.727c0.039,0.444-0.289,0.835-0.733,0.874c-0.444,0.039-0.836-0.289-0.874-0.733
				c-0.039-0.444,0.289-0.835,0.733-0.874S328.753,195.284,328.792,195.727z"/>
			<path style="fill:#FFFFFF;" d="M344.983,194.54c0.039,0.444-0.289,0.835-0.733,0.874c-0.444,0.039-0.835-0.289-0.874-0.733
				c-0.039-0.444,0.289-0.835,0.733-0.874C344.553,193.768,344.944,194.096,344.983,194.54z"/>
			<path style="fill:#682A2A;" d="M324.162,176.581c4.391,7.386,18.011,7.195,27.863,5.752l1.599,13.822l1.216-0.082
				c0,0-0.997-4.071,2.049-4.033l-0.645-7.713c0.784-8.789-10.327-26.846-29.764-17.532c-8.521-0.548-17.776,10.582-14.856,22.069
				l1.074,6.919c3.955-0.576,3.419,3.519,3.419,3.519l1.132-0.086l-0.262-11.842C321.622,184.704,323.071,181.793,324.162,176.581z"
				/>
		</g>
		<path style="fill:#FFFFFF;" d="M375.85,341.445c-5.773-49.598-5.086-75.009-9.994-91.586l-42.663-9.116l-16.182,17.677
			c12.206,8.335,15.081,70.001,13.461,84.069C341.965,344.628,359.098,352.054,375.85,341.445z"/>
		<path style="fill:#564953;" d="M376.562,329.215l51.689,7.727c6.339,1.089,10.504,4.626,10.64,12.396l6.757,69.461
			c-6.855,2.431-12.142,3.138-18.488,1.609l-5.452-61.171l-60.041,0.093c-2.67,0.419-11.658,11.334-11.658,13.924l-1.439,134.139
			c-7.339,3.72-15.271,4.219-23.123,1.556l-5.893-162.897l42.436-6.477L376.562,329.215z"/>
		<g>
			<path style="fill:#3F363D;" d="M334.542,510.701c-2.908-0.11-5.842-0.66-8.763-1.651l-1.713-47.563l-1.376-62.68l-6.684-60.523
				l13.452-0.272L334.542,510.701z"/>
			<path style="fill:#3F363D;" d="M425.539,355.194l-48.329-7.845l-16.191,11.658h-0.971l57.965,2.591l9.148,58.811
				c2.73,0.315,1.763,0.609,4.507,0.727L425.539,355.194z"/>
			<path style="opacity:0.4;fill:#333333;" d="M321.964,392.23l2.514,80.682l8.188-25.931l-1.606-54.553L321.964,392.23z"/>
		</g>
		<path style="fill:#E0E0E0;" d="M349.168,253.692c2.131-4.853,3.192-9.826,3.199-14.916l-4.851-3.655
			c0.724,4.954-3.907,8.577-7.344,9.26L349.168,253.692z"/>
		<path style="fill:#E0E0E0;" d="M332.639,255.477c-4.584-4.524-7.518-10.52-9.38-17.473l3.991-4.011
			c-0.06,4.706,9.142,9.837,12.918,10.43L332.639,255.477z"/>
		<path style="fill:#FF3829;" d="M340.148,244.181l-4.645,7.406l4.635,5.397l2.833,73.242l9.088,7.409l6.908-10.147
			c0,0-11.442-60.016-13.817-71.134l0.834-6.092L340.148,244.181z"/>
		<path style="fill:#3F363D;" d="M308.096,263.041c3.058,34.317-0.858,75.717,0.029,100.761l33.439,2.378
			c2.35-0.404,4.811-1.89,5.083-4.348l-1.327-72.57l-8.879-18.946l-10.823-18.173L308.096,263.041z"/>
		<g style="opacity:0.4;">
			<path style="fill:#333333;" d="M314.872,364.254c-0.937-24.684,2.313-71.381-0.797-105.079l-6.264,3.896
				c3.058,34.317-0.572,75.688,0.315,100.732L314.872,364.254z"/>
		</g>
		<g>
			<path style="fill:#FFB288;" d="M418.518,179.73l2.124-7.48l-2.994-7.743l2.389-10.941c3.092,0.987,2.702,6.083,1.792,8.225
				l-0.169,0.354l0.553-3.633l12.486,5.404l-2.083,8.185l-3.945,5.208l-2.426,9.256l-8.836-4.634L418.518,179.73z"/>
			<g>
				<path style="fill:#F58D6C;" d="M431.117,165.502c-0.318,1.087-1.381,1.589-2.361,1.116c-0.86-0.416-1.382-1.451-1.281-2.433
					l-0.31,1.057c-0.318,1.087,0.223,2.364,1.203,2.837c0.98,0.474,2.042-0.028,2.361-1.116l1.687-5.756
					c0.039-0.133,0.064-0.268,0.078-0.405L431.117,165.502z"/>
				<path style="fill:#F58D6C;" d="M427.915,164.292c-0.337,1.151-1.461,1.682-2.498,1.181l-0.05-0.024
					c-0.918-0.443-1.469-1.551-1.351-2.598l-0.31,1.058c-0.337,1.15,0.236,2.501,1.273,3.002l0.051,0.024
					c1.037,0.501,2.161-0.03,2.498-1.181l1.905-6.499c0.039-0.132,0.062-0.268,0.078-0.404L427.915,164.292z"/>
				<path style="fill:#F58D6C;" d="M425.416,161.857c-0.337,1.15-1.462,1.682-2.499,1.181l-0.05-0.024
					c-0.917-0.443-1.469-1.551-1.351-2.598l-0.31,1.057c-0.337,1.15,0.236,2.501,1.273,3.002l0.05,0.025
					c1.037,0.501,2.161-0.031,2.498-1.181l1.904-6.499c0.039-0.132,0.063-0.268,0.078-0.404L425.416,161.857z"/>
				<path style="fill:#F58D6C;" d="M433.733,167.583c-0.367,1.007-1.417,1.405-2.332,0.883c-0.7-0.399-1.123-1.224-1.121-2.041
					l-0.263,0.722c-0.367,1.007,0.081,2.259,0.997,2.781c0.915,0.522,1.965,0.125,2.332-0.883l1.631-4.475
					c0.086-0.237,0.124-0.488,0.125-0.74L433.733,167.583z"/>
			</g>
			<polygon style="fill:#564953;" points="546.902,296.968 352.367,80.12 354.621,78.083 549.156,294.931 			"/>
			<g>
				<polygon style="fill:#9E2121;" points="409.688,99.589 402.185,92.107 408.41,86.583 418.825,86.391 421.669,89.56 
					421.22,92.009 414.664,94.733 411.294,97.468 409.688,99.589 				"/>
				<path style="fill:#FF4A2C;" d="M357.294,85.667c0,0,31.838-27.351,42.968-17.308c11.129,10.043,19.072,20.074,19.072,20.074
					s-5.047-1.884-15.183,2.566c-6.461,2.836-25.599,18.359-25.599,18.359L357.294,85.667z"/>
				<path style="fill:#DB1F1B;" d="M403.102,70.983l36.201-15.755l-12.485,22.812l34.108,2.465l-44.391,19.41
					c-7.697,2.927-10.331-2.812-2.168-5.809c11.149-3.652,3.641-5.955,4.967-5.674L403.102,70.983z"/>
			</g>
			<path style="fill:#FFB288;" d="M432.826,160.501l-1.687,5.756c-0.318,1.087-1.381,1.589-2.361,1.116l0,0
				c-0.98-0.473-1.521-1.75-1.203-2.837l1.687-5.756c0.318-1.087,1.381-1.589,2.361-1.116l0,0
				C432.603,158.137,433.145,159.414,432.826,160.501z"/>
			<path style="fill:#FFB288;" d="M429.797,157.867l-1.905,6.499c-0.337,1.15-1.427,1.698-2.422,1.218l-0.048-0.023
				c-0.995-0.48-1.533-1.815-1.196-2.965l1.905-6.499c0.337-1.15,1.427-1.698,2.422-1.218l0.048,0.023
				C429.595,155.383,430.134,156.717,429.797,157.867z"/>
			<path style="fill:#FFB288;" d="M426.995,155.807l-1.836,6.265c-0.325,1.109-1.409,1.621-2.409,1.138l-0.049-0.023
				c-1-0.483-1.552-1.785-1.227-2.894l1.836-6.265c0.325-1.109,1.409-1.621,2.408-1.138l0.049,0.023
				C426.768,153.395,427.32,154.698,426.995,155.807z"/>
			<path style="fill:#FFB288;" d="M432.025,161.344l-1.631,4.475c-0.367,1.008,0.081,2.259,0.997,2.781l0,0
				c0.915,0.522,1.965,0.125,2.332-0.883l1.631-4.475c0.367-1.008-0.081-2.259-0.997-2.781l0,0
				C433.441,159.939,432.392,160.337,432.025,161.344z"/>
		</g>
		<g>
			<path style="fill:#E0E0E0;" d="M427.31,187.828c0.726-3.766,1.483-7.348,2.474-10.649l-11.804-2.739l-2.617,10.255
				L427.31,187.828z"/>
		</g>
		<path style="fill:#3F363D;" d="M354.103,237.651c19.157-5.089,38.753-14.585,43.134-20.196
			c7.438-12.738,16.41-24.535,19.434-42.198l13.112,3.788c-4.365,23.539-3.513,24.427-10.729,42.415
			c-0.14,1.88-2.469,8.522-8.121,12.546c-22.933,17.776-47.946,31.099-45.911,33.035L354.103,237.651z"/>
		<path style="fill:#3F363D;" d="M351.574,237.508l2.035,15.567l-0.817,17.825l-2.415,17.737l6.689,68.014
			c0.205,2.31,0.933,3.899,3.362,3.958c1.848,0.045,2.736-1.374,2.736-1.374s17.522-5.072,15.624-16.419
			c-3.52-21.049-2.701-49.331-4.311-70.757l0.143-30.601L351.574,237.508z"/>
		<path style="fill:#564953;" d="M347.518,233.862l9.131,2.186l0.22,8.049l-4.321-0.872l3.889,3.686l-4.81,56.83l-1.933-18.815
			C349.694,284.925,351.95,245.775,347.518,233.862z"/>
		<g>
			<g>
				<g>
					<path style="fill:#60312B;" d="M288.192,391.715c0.442-6.11,4.465-10.738,8.986-10.338c4.521,0.4,7.827,5.676,7.385,11.785
						c-0.139,1.919-0.632,3.69-1.381,5.207c1.569-1.804,2.618-4.227,2.816-6.962c0.442-6.11-3.505-11.442-8.815-11.911
						c-5.31-0.469-9.973,4.102-10.415,10.212c-0.224,3.093,0.681,5.984,2.314,8.148
						C288.372,396.047,288.031,393.938,288.192,391.715z"/>
					<g>
						<polygon style="fill:#512A27;" points="258.603,420.181 261.059,386.219 256.781,440.97 273.491,442.447 281.449,422.201 
													"/>
						<path style="fill:#472522;" d="M273.491,442.447l51.737,4.534l1.384-20.789l-45.162-3.992L273.491,442.447z M298.016,428.086
							l-12.195-1.078l0.316-4.367l12.194,1.078L298.016,428.086z"/>
						<polygon style="fill:#7E3D31;" points="326.611,426.192 329.067,392.23 326.611,426.192 						"/>
						<polygon style="fill:#7E3D31;" points="258.603,420.181 281.449,422.201 298.01,389.485 261.059,386.219 						"/>
						<polygon style="fill:#6B342D;" points="329.07,392.232 326.609,426.195 281.448,422.199 298.008,389.486 						"/>
						<polygon style="fill:#ABCCE0;" points="285.302,426.958 298.544,428.263 298.849,423.5 285.607,422.195 						"/>
					</g>
				</g>
			</g>
			<path style="fill:#FFB288;" d="M298.039,358.207l1.086,8.741l6.425,5.874l2.321,12.346c-3.586,0.909-5.404-4.401-5.408-7.088
				l0.019-0.456l1.016,3.953l-15.096,2.256l-1.435-9.417l1.761-7.593l-1.551-10.692l11.036-0.79L298.039,358.207z"/>
			<path style="fill:#FFB288;" d="M292.115,385.952l-0.782-6.758c-0.148-1.276,0.718-2.425,1.925-2.553l0,0
				c1.206-0.128,2.314,0.811,2.462,2.088l0.782,6.758c0.148,1.276-0.718,2.425-1.925,2.553l0,0
				C293.371,388.168,292.263,387.228,292.115,385.952z"/>
			<path style="fill:#FFB288;" d="M295.827,385.958l-0.883-7.63c-0.156-1.351,0.718-2.562,1.943-2.692l0.06-0.006
				c1.225-0.13,2.355,0.868,2.511,2.219l0.883,7.63c0.156,1.351-0.718,2.562-1.942,2.692l-0.06,0.006
				C297.113,388.307,295.983,387.309,295.827,385.958z"/>
			<path style="fill:#FFB288;" d="M299.614,385.033l-0.883-7.63c-0.156-1.35,0.76-2.566,2.037-2.702l0.062-0.007
				c1.277-0.136,2.449,0.859,2.605,2.209l0.883,7.63c0.157,1.35-0.76,2.566-2.037,2.702l-0.062,0.007
				C300.943,387.378,299.771,386.384,299.614,385.033z"/>
			<path style="fill:#FFB288;" d="M292.729,385.783l-0.282-5.45c-0.063-1.227-1.066-2.198-2.227-2.158l0,0
				c-1.161,0.04-2.06,1.077-1.996,2.304l0.282,5.45c0.064,1.227,1.066,2.198,2.227,2.158l0,0
				C291.894,388.046,292.793,387.01,292.729,385.783z"/>
		</g>
		<g>
			<path style="fill:#E0E0E0;" d="M302.477,352.86c0,6.66-0.81,9.64-0.952,13.32l-13.959-0.652l0.075-11.739L302.477,352.86z"/>
		</g>
		<path style="fill:#3F363D;" d="M327.105,234.502c-4.037,1.046-10.519,3.951-25.658,15.341
			c-5.997,18.741-13.95,40.484-15.26,59.101c-1.218,16.537-0.747,37.446-0.318,53.358l18.305-1.164l2.506-48.851l7.437-46.08
			l14.496-2.258L327.105,234.502z"/>
		<path style="fill:#564953;" d="M327.25,233.992l-8.731,3.515l3.8,9.297l4.56-2.398l-3.021,5.937l21.479,45.605l-0.128-10.444
			C345.209,285.505,326.239,234.821,327.25,233.992z"/>
	</g>
</g>
<path style="opacity:0.2;fill:#677F00;" d="M301.045,762.938c12.507,1.96,25.639,3.568,39.258,4.801l94.797-68.228l-17.761-63.912
	l0.011,61.182h-2.212l-144.238,60.516l0.002,0.002C280.472,759.411,290.537,761.291,301.045,762.938z"/>
</svg>
