<svg width="95" height="92" viewBox="0 0 95 92" fill="none" xmlns="http://www.w3.org/2000/svg">
<rect x="0.625" width="71" height="71" fill="#D91965"/>
<rect x="43.625" y="39" width="44" height="44" fill="#831F81"/>
<rect x="87.625" y="26" width="7" height="7" fill="#831F81"/>
<rect x="18.625" y="78" width="14" height="14" fill="#D91965"/>
<path fill-rule="evenodd" clip-rule="evenodd" d="M53.1968 53H63.6537V54.3858H53.1968V53ZM53.1968 55.4252H68.3593V56.811H53.1968V55.4252ZM53.1968 64.6063H68.3593V65.9921H53.1968V64.6063ZM65.4625 62.3543H80.625V63.7402H65.4625V62.3543ZM53.1968 57.8504H60.7781V59.2362H53.1968V57.8504ZM61.8025 57.8504H73.0437V59.2362H61.8025V57.8504ZM53.1968 60.1024H58.8174V61.4882H53.1968V60.1024ZM69.9614 60.1024H75.582V61.4882H69.9614V60.1024ZM59.8419 60.1024H69.0259V61.4882H59.8419V60.1024ZM53.1968 62.3543H64.438V63.7402H53.1968V62.3543ZM50.625 55.4252H52.0069V56.811H50.625V55.4252ZM50.625 57.8504H52.0069V59.2362H50.625V57.8504ZM50.625 60.1024H52.0069V61.4882H50.625V60.1024ZM50.625 62.3543H52.0069V63.7402H50.625V62.3543ZM50.625 64.6063H52.0069V65.9921H50.625V64.6063ZM53.1968 71.3622H68.3593V72.748H53.1968V71.3622ZM65.4625 69.1102H80.625V70.4961H65.4625V69.1102ZM53.1968 66.8583H58.8174V68.2441H53.1968V66.8583ZM69.9614 66.8583H75.582V68.2441H69.9614V66.8583ZM59.8419 66.8583H69.0259V68.2441H59.8419V66.8583ZM53.1968 69.1102H64.438V70.4961H53.1968V69.1102ZM50.625 66.8583H52.0069V68.2441H50.625V66.8583ZM53.1968 73.6142H58.8174V75H53.1968V73.6142ZM69.9614 73.6142H75.582V75H69.9614V73.6142ZM59.8419 73.6142H69.0259V75H59.8419V73.6142ZM50.625 73.6142H52.0069V75H50.625V73.6142ZM50.625 69.1102H52.0069V70.4961H50.625V69.1102ZM50.625 71.3622H52.0069V72.748H50.625V71.3622ZM50.625 53H52.0069V54.3858H50.625V53Z" fill="#D91965"/>
<rect x="39.9609" y="32.7283" width="19.8758" height="17.7836" fill="#D91965"/>
<rect x="13.6055" y="28.1399" width="23.8795" height="25.2062" fill="#831F81"/>
<path d="M9.625 54.1292C9.625 54.6254 9.82209 55.1012 10.1729 55.452C10.5237 55.8028 10.9996 55.9999 11.4957 55.9999H61.3767C61.6224 55.9999 61.8657 55.9515 62.0926 55.8575C62.3196 55.7635 62.5258 55.6257 62.6995 55.452C62.8732 55.2783 63.011 55.0721 63.105 54.8451C63.1991 54.6181 63.2474 54.3749 63.2474 54.1292V25.4817H9.625V54.1292ZM28.0301 51.1894C28.0298 51.3053 27.9836 51.4164 27.9016 51.4984C27.8196 51.5804 27.7085 51.6266 27.5926 51.6269H24.237C24.1217 51.6257 24.0116 51.5791 23.9306 51.4971C23.8495 51.4152 23.804 51.3046 23.804 51.1894V50.5474C23.804 50.4314 23.8501 50.3201 23.9322 50.238C24.0142 50.156 24.1255 50.1099 24.2416 50.1099H27.5937C27.7096 50.1102 27.8208 50.1564 27.9027 50.2384C27.9847 50.3204 28.0309 50.4315 28.0312 50.5474L28.0301 51.1894ZM47.4377 33.5043H57.1358C57.4029 33.5043 57.659 33.6104 57.8479 33.7993C58.0368 33.9882 58.1429 34.2443 58.1429 34.5114C58.1429 34.7786 58.0368 35.0347 57.8479 35.2236C57.659 35.4125 57.4029 35.5186 57.1358 35.5186H47.4423C47.1752 35.5186 46.919 35.4125 46.7301 35.2236C46.5413 35.0347 46.4352 34.7786 46.4352 34.5114C46.4352 34.2443 46.5413 33.9882 46.7301 33.7993C46.919 33.6104 47.1752 33.5043 47.4423 33.5043H47.4377ZM41.9484 38.9901H57.1404C57.4075 38.9901 57.6636 39.0962 57.8525 39.2851C58.0414 39.474 58.1475 39.7302 58.1475 39.9973C58.1475 40.2644 58.0414 40.5205 57.8525 40.7094C57.6636 40.8983 57.4075 41.0044 57.1404 41.0044H41.9484C41.6813 41.0044 41.4252 40.8983 41.2363 40.7094C41.0474 40.5205 40.9413 40.2644 40.9413 39.9973C40.9413 39.7302 41.0474 39.474 41.2363 39.2851C41.4252 39.0962 41.6813 38.9901 41.9484 38.9901ZM41.9484 44.4794H57.1404C57.4075 44.4794 57.6636 44.5855 57.8525 44.7744C58.0414 44.9632 58.1475 45.2194 58.1475 45.4865C58.1475 45.7536 58.0414 46.0098 57.8525 46.1987C57.6636 46.3875 57.4075 46.4936 57.1404 46.4936H41.9484C41.692 46.4786 41.4509 46.3662 41.2747 46.1793C41.0984 45.9924 41.0002 45.7451 41.0002 45.4882C41.0002 45.2313 41.0984 44.9841 41.2747 44.7972C41.4509 44.6103 41.692 44.4978 41.9484 44.4828V44.4794ZM33.4918 32.2089C33.691 32.2089 33.8857 32.268 34.0513 32.3787C34.2169 32.4893 34.346 32.6466 34.4222 32.8307C34.4985 33.0147 34.5184 33.2172 34.4796 33.4126C34.4407 33.6079 34.3448 33.7874 34.2039 33.9282C34.0631 34.0691 33.8836 34.165 33.6883 34.2039C33.4929 34.2427 33.2904 34.2228 33.1064 34.1465C32.9223 34.0703 32.765 33.9412 32.6544 33.7756C32.5437 33.61 32.4846 33.4153 32.4846 33.2161C32.4845 33.0838 32.5104 32.9527 32.561 32.8305C32.6116 32.7082 32.6857 32.5971 32.7793 32.5036C32.8728 32.41 32.9839 32.3359 33.1062 32.2853C33.2284 32.2347 33.3595 32.2088 33.4918 32.2089ZM25.9492 29.5183C26.1484 29.5183 26.3431 29.5774 26.5087 29.688C26.6744 29.7987 26.8035 29.956 26.8797 30.14C26.9559 30.324 26.9759 30.5265 26.937 30.7219C26.8981 30.9173 26.8022 31.0967 26.6614 31.2376C26.5205 31.3784 26.3411 31.4743 26.1457 31.5132C25.9503 31.5521 25.7478 31.5321 25.5638 31.4559C25.3798 31.3797 25.2225 31.2506 25.1118 31.085C25.0012 30.9193 24.9421 30.7246 24.9421 30.5254C24.9421 30.3932 24.9681 30.2622 25.0188 30.14C25.0694 30.0178 25.1435 29.9068 25.2371 29.8133C25.3306 29.7198 25.4416 29.6456 25.5638 29.595C25.686 29.5443 25.817 29.5183 25.9492 29.5183ZM19.6997 40.808C19.8091 40.7041 19.9412 40.627 20.0855 40.5829C20.2298 40.5389 20.3824 40.5291 20.5312 40.5542C20.669 40.5711 20.801 40.6203 20.9163 40.6977C21.0316 40.7751 21.1271 40.8786 21.1949 40.9998L22.1791 42.8533C22.3561 43.1824 22.6085 43.4649 22.9157 43.6777C23.2229 43.8905 23.5761 44.0275 23.9464 44.0774C24.0696 44.0957 24.194 44.1049 24.3185 44.105C24.9695 44.1079 25.5951 43.8527 26.0583 43.3953L26.6566 42.7959C26.7836 42.6688 26.9352 42.5692 27.1022 42.503C27.1974 42.4643 27.2836 42.4063 27.3554 42.3327C27.4272 42.2592 27.4831 42.1716 27.5195 42.0754C27.556 41.9793 27.5722 41.8767 27.5672 41.774C27.5621 41.6713 27.536 41.5708 27.4903 41.4787C27.3996 41.3063 27.2468 41.1748 27.0628 41.1109C26.8788 41.0469 26.6774 41.0552 26.4993 41.1342C26.1625 41.2758 25.8564 41.4813 25.5978 41.7393L24.9995 42.3388C24.8904 42.4436 24.7583 42.5217 24.6138 42.5667C24.4693 42.6118 24.3163 42.6226 24.1669 42.5983C24.0283 42.582 23.8955 42.533 23.7795 42.4553C23.6636 42.3777 23.5677 42.2736 23.4997 42.1516L22.5156 40.2981C22.3393 39.9707 22.0884 39.6894 21.7831 39.4771C21.4778 39.2649 21.1268 39.1275 20.7585 39.0763C20.6115 39.0536 20.4628 39.044 20.3141 39.0475C20.2456 39.0483 20.1779 39.0319 20.1173 38.9999C20.0566 38.9679 20.005 38.9213 19.9669 38.8643C19.9288 38.8073 19.9055 38.7417 19.8992 38.6734C19.8928 38.6052 19.9036 38.5364 19.9306 38.4734C20.3259 37.544 20.931 36.7187 21.6984 36.0621C22.4659 35.4055 23.3748 34.9354 24.3542 34.6885C25.3335 34.4417 26.3567 34.4248 27.3437 34.6393C28.3307 34.8537 29.2546 35.2936 30.0432 35.9246C30.8319 36.5556 31.4638 37.3605 31.8896 38.2763C32.3154 39.1922 32.5234 40.1941 32.4975 41.2038C32.4716 42.2134 32.2124 43.2034 31.7402 44.0962C31.268 44.989 30.5956 45.7604 29.7756 46.3501C29.6929 46.4098 29.6091 46.4672 29.5241 46.5224C29.0046 46.9143 28.5939 47.4326 28.331 48.0279C28.2798 48.1506 28.1936 48.2556 28.0831 48.3295C27.9726 48.4035 27.8427 48.4432 27.7097 48.4436H24.1727C24.0395 48.4433 23.9094 48.4036 23.7987 48.3297C23.688 48.2557 23.6016 48.1507 23.5503 48.0279C23.288 47.4324 22.8772 46.9144 22.3571 46.5235C22.2721 46.4672 22.1883 46.4087 22.1067 46.3501H22.101C21.3312 45.7937 20.692 45.076 20.2281 44.2471C19.7642 43.4183 19.4867 42.4982 19.4149 41.551C19.4055 41.4139 19.426 41.2764 19.4752 41.148C19.5244 41.0197 19.601 40.9037 19.6997 40.808ZM18.4067 32.2089C18.6059 32.2089 18.8006 32.268 18.9662 32.3787C19.1318 32.4893 19.2609 32.6466 19.3371 32.8307C19.4134 33.0147 19.4333 33.2172 19.3944 33.4126C19.3556 33.6079 19.2597 33.7874 19.1188 33.9282C18.978 34.0691 18.7985 34.165 18.6031 34.2039C18.4078 34.2427 18.2053 34.2228 18.0212 34.1465C17.8372 34.0703 17.6799 33.9412 17.5693 33.7756C17.4586 33.61 17.3995 33.4153 17.3995 33.2161C17.3994 33.0838 17.4253 32.9527 17.4759 32.8305C17.5264 32.7082 17.6006 32.5971 17.6942 32.5036C17.7877 32.41 17.8988 32.3359 18.0211 32.2853C18.1433 32.2347 18.2744 32.2088 18.4067 32.2089Z" fill="white"/>
<path d="M28.6601 41.9319C28.6787 41.9774 28.7018 42.0208 28.729 42.0617C28.7557 42.103 28.7865 42.1415 28.8209 42.1765C28.9614 42.3163 29.1516 42.3948 29.3497 42.3948C29.5479 42.3948 29.7381 42.3163 29.8786 42.1765C29.9134 42.1412 29.9449 42.1028 29.9727 42.0617C29.9995 42.0206 30.0226 41.9772 30.0416 41.9319C30.0604 41.8873 30.0743 41.8407 30.083 41.793C30.0931 41.7446 30.0981 41.6954 30.0979 41.646C30.0973 41.4481 30.0189 41.2584 29.8797 41.1177C29.8441 41.0832 29.8057 41.0517 29.7649 41.0236C29.7241 40.9968 29.6806 40.9745 29.6351 40.957C29.5906 40.9373 29.544 40.9226 29.4962 40.9133C29.3753 40.8898 29.2505 40.8961 29.1326 40.9317C29.0148 40.9674 28.9074 41.0312 28.8198 41.1177C28.785 41.1526 28.7542 41.1911 28.7279 41.2326C28.7011 41.2733 28.6781 41.3163 28.659 41.3612C28.6402 41.4067 28.6259 41.4541 28.6165 41.5024C28.6064 41.55 28.6014 41.5985 28.6016 41.6471C28.6014 41.6965 28.6064 41.7458 28.6165 41.7941C28.6266 41.8414 28.6412 41.8875 28.6601 41.9319Z" fill="white"/>
<path d="M61.3767 16.2002H11.4957C10.9998 16.2002 10.5241 16.3971 10.1733 16.7477C9.82253 17.0983 9.6253 17.5738 9.625 18.0698V23.4671H63.2474V18.0698C63.2471 17.5738 63.0499 17.0983 62.6991 16.7477C62.3483 16.3971 61.8727 16.2002 61.3767 16.2002ZM54.2476 20.5962C54.2015 20.6438 54.1502 20.6861 54.0949 20.7225C54.0397 20.7585 53.9812 20.7893 53.9203 20.8144C53.8595 20.8395 53.7964 20.8588 53.732 20.8718C53.6025 20.8994 53.4687 20.8994 53.3392 20.8718C53.2752 20.8584 53.2125 20.8392 53.152 20.8144C53.0911 20.7893 53.0327 20.7585 52.9775 20.7225C52.9221 20.6861 52.8709 20.6438 52.8247 20.5962C52.7312 20.5029 52.6569 20.392 52.6063 20.2699C52.5556 20.1478 52.5295 20.0169 52.5295 19.8848C52.5295 19.7526 52.5556 19.6217 52.6063 19.4997C52.6569 19.3776 52.7312 19.2667 52.8247 19.1734C52.8709 19.1258 52.9221 19.0834 52.9775 19.047C53.0324 19.0106 53.0909 18.9798 53.152 18.9552C53.2122 18.9293 53.2749 18.91 53.3392 18.8977C53.5511 18.8553 53.7709 18.8821 53.9663 18.9743C54.1617 19.0665 54.3222 19.2191 54.4241 19.4097C54.526 19.6002 54.5639 19.8184 54.5321 20.0321C54.5003 20.2458 54.4005 20.4436 54.2476 20.5962ZM59.0869 20.5962C58.946 20.7375 58.7665 20.8339 58.5709 20.8732C58.3752 20.9124 58.1724 20.8927 57.9879 20.8166C57.8035 20.7405 57.6458 20.6114 57.5348 20.4456C57.4238 20.2798 57.3644 20.0849 57.3643 19.8853C57.3642 19.8193 57.3712 19.7535 57.385 19.689C57.3975 19.6236 57.4167 19.5597 57.4424 19.4983C57.4673 19.438 57.498 19.3803 57.5343 19.3261C57.5706 19.2707 57.613 19.2195 57.6606 19.1734C57.7775 19.0565 57.9215 18.9702 58.0797 18.9221C58.2379 18.874 58.4056 18.8657 58.5678 18.8977C58.6328 18.91 58.6964 18.9292 58.7573 18.9552C58.8181 18.9798 58.8762 19.0106 58.9307 19.047C59.0549 19.1293 59.1592 19.2382 59.2362 19.3658C59.3132 19.4933 59.3608 19.6364 59.3758 19.7846C59.3907 19.9328 59.3726 20.0825 59.3226 20.2229C59.2726 20.3632 59.1921 20.4907 59.0869 20.5962Z" fill="white"/>
</svg>
