<svg width="688" height="462" xmlns="http://www.w3.org/2000/svg" xmlns:xlink="http://www.w3.org/1999/xlink"><defs><linearGradient id="a" x1="50%" x2="50%" y2="100%"><stop stop-color="#CEDCEB" offset="0"/><stop stop-color="#CDDCEB" offset="1"/></linearGradient><linearGradient id="d" x1="50%" x2="50%" y2="100%"><stop stop-color="#FFA9C1" offset="0"/><stop stop-color="#FF3BC3" offset="1"/></linearGradient><linearGradient id="e" x1="50%" x2="50%" y2="100%"><stop stop-color="#C2E998" offset="0"/><stop stop-color="#02CC87" offset="1"/></linearGradient><linearGradient id="f" x1="100%" x2="0%" y2="116.95%"><stop stop-color="#FFA9C1" offset="0"/><stop stop-color="#FF3BC3" offset="1"/></linearGradient><linearGradient id="g" x1="50%" x2="50%" y2="100%"><stop stop-color="#FAA565" offset="0"/><stop stop-color="#E65C8A" offset="1"/></linearGradient><linearGradient id="h" x1="50%" x2="50%" y1="100%" y2="0%"><stop stop-color="#C63DCD" offset="0"/><stop stop-color="#FF45B7" offset="1"/></linearGradient><linearGradient id="i" x1="50%" x2="50%" y1="3.098%" y2="100%"><stop stop-color="#6E6E6E" offset="0"/><stop stop-color="#4C4C4C" offset="1"/></linearGradient><linearGradient id="j" x1="96.396%" x2="50%" y1="-118.5%" y2="100%"><stop stop-color="#6474A4" offset="0"/><stop stop-color="#34406B" offset="1"/></linearGradient><linearGradient id="k" x1="50%" x2="50%" y1="-15.553%" y2="100%"><stop stop-color="#BB6849" offset="0"/><stop stop-color="#862E46" offset="1"/></linearGradient><linearGradient id="l" x1="67.243%" x2="25.49%" y1="13.242%" y2="100%"><stop stop-color="#ABDCFF" offset="0"/><stop stop-color="#0396FF" offset="1"/></linearGradient><linearGradient id="m" x1="50%" x2="50%" y2="100%"><stop stop-color="#D17AFF" offset="0"/><stop stop-color="#816DFF" offset="1"/></linearGradient><linearGradient id="n" x1="66.968%" x2="50%" y1="-200.29%" y2="100%"><stop stop-color="#FFD1EE" offset="0"/><stop stop-color="#FF6BAF" offset="1"/></linearGradient><linearGradient id="o" x1="50%" x2="50%" y2="100%"><stop stop-color="#F5BA86" offset="0"/><stop stop-color="#F8587A" offset="1"/></linearGradient><linearGradient id="p" x1="50%" x2="50%" y1="-46.45%" y2="100%"><stop stop-color="#6476A4" offset="0"/><stop stop-color="#34416B" offset="1"/></linearGradient><filter id="b" x="-11.6%" y="-16.8%" width="123.2%" height="138.4%"><feOffset dy="4" in="SourceAlpha" result="shadowOffsetOuter1"/><feGaussianBlur in="shadowOffsetOuter1" result="shadowBlurOuter1" stdDeviation="10"/><feColorMatrix in="shadowBlurOuter1" values="0 0 0 0 0 0 0 0 0 0 0 0 0 0 0 0 0 0 0.07 0"/></filter><path id="c" d="M342.86 166.73H91.28c-6.55 0-11.91-5.07-11.91-11.267v-144.2c0-6.197 5.36-11.267 11.91-11.267h251.58c6.55 0 11.91 5.07 11.91 11.267v144.2c0 6.197-5.36 11.267-11.91 11.267"/></defs><g fill="none" fill-rule="evenodd"><g opacity=".682"><path opacity=".313" stroke="#E3E3E3" stroke-linecap="round" stroke-width="2.305" d="M33 50.178L93.58 2 158 50.178"/><path fill="url(#a)" opacity=".313" d="M86 404.32h21V274.9H86z" transform="translate(0 2)"/><path d="M6.953 444.94c-2.518 0-4.947-1.306-6.18-3.58-1.757-3.24-.417-7.224 2.994-8.895l92.153-45.149 91.338 45.161c3.402 1.683 4.727 5.669 2.956 8.906-1.768 3.236-5.96 4.496-9.364 2.81l-84.959-42.005-85.763 42.017a7.192 7.192 0 01-3.175.735M171.25 274.9H21.75c-8.145 0-14.749-6.227-14.749-13.909V61.141c0-7.682 6.604-13.911 14.749-13.911h149.5c8.145 0 14.748 6.229 14.748 13.911v199.85c0 7.682-6.603 13.909-14.748 13.909" fill="url(#a)" opacity=".313" transform="translate(0 2)"/><path d="M164.73 263.56H30.26c-7.326 0-13.265-5.607-13.265-12.526V71.094c0-6.917 5.939-12.524 13.265-12.524h134.47c7.326 0 13.265 5.607 13.265 12.524v179.94c0 6.919-5.939 12.526-13.265 12.526" fill="url(#a)" opacity=".313" transform="translate(0 2)"/><path d="M105 105.97c0-7.292-2.951-13.958-7.805-19.061l-11.377 9.102c2.538 2.67 4.09 6.147 4.09 9.96 0 4.21-1.881 8.023-4.908 10.775l10.613 9.839c5.792-5.265 9.387-12.561 9.387-20.615M53.468 117.14L41 125.521c3.211 4.094 7.51 7.406 12.504 9.568L60 122.137c-2.61-1.13-4.854-2.857-6.532-4.997M86.012 91.633L98 82.273c-3.157-3.24-7.077-5.864-11.512-7.644L80 87.637a17.505 17.505 0 016.012 3.996M70.742 122.41c-2.38 0-4.628-.513-6.656-1.408L58 133.362a31.525 31.525 0 0012.742 2.67c8.28 0 15.791-3.164 21.258-8.273l-10.146-9.676c-2.856 2.672-6.783 4.327-11.112 4.327M71.713 87.391c2.287 0 4.457.51 6.42 1.408L84 75.42a29.455 29.455 0 00-12.287-2.68c-4.152 0-8.11.86-11.713 2.415l5.589 13.499a15.421 15.421 0 016.124-1.263M51.374 104.01c0-6.232 3.974-11.591 9.626-13.881l-5.59-12.67C44.601 81.839 37 92.091 37 104.01c0 6.312 2.14 12.152 5.75 16.904l11.64-8.073c-1.889-2.485-3.016-5.532-3.016-8.831M61.323 203.1h-2.646c-.926 0-1.677-.76-1.677-1.7v-23.05c0-.939.751-1.7 1.677-1.7h2.646c.927 0 1.677.761 1.677 1.7v23.05c0 .94-.75 1.7-1.677 1.7M151.32 203.1h-2.646c-.926 0-1.677-.795-1.677-1.777V185.04c0-.983.751-1.778 1.677-1.778h2.646c.927 0 1.677.795 1.677 1.778v16.283c0 .982-.75 1.777-1.677 1.777M71.323 202.16h-2.646A1.685 1.685 0 0167 200.467v-34.402c0-.934.751-1.692 1.677-1.692h2.646c.927 0 1.677.758 1.677 1.692v34.402c0 .936-.75 1.693-1.677 1.693M140.32 203.1h-2.646a1.685 1.685 0 01-1.677-1.693v-34.402c0-.934.751-1.692 1.677-1.692h2.646c.927 0 1.677.758 1.677 1.692v34.402c0 .936-.75 1.693-1.677 1.693M83.406 203.1h-4.811c-.88 0-1.595-.762-1.595-1.703V161.35c0-.941.715-1.704 1.595-1.704h4.811c.881 0 1.594.763 1.594 1.704v40.048c0 .941-.713 1.703-1.594 1.703M124.41 203.1h-4.812c-.88 0-1.594-.762-1.594-1.703V161.35c0-.941.714-1.704 1.594-1.704h4.812c.881 0 1.594.763 1.594 1.704v40.048c0 .941-.713 1.703-1.594 1.703M111.41 203.1h-4.812c-.88 0-1.594-.762-1.594-1.703V161.35c0-.941.714-1.704 1.594-1.704h4.812c.881 0 1.594.763 1.594 1.704v40.048c0 .941-.713 1.703-1.594 1.703M98.092 203.1h-7.184c-1.053 0-1.908-.772-1.908-1.726v-45.671c0-.953.855-1.726 1.908-1.726h7.184c1.055 0 1.908.773 1.908 1.726v45.67c0 .955-.853 1.727-1.908 1.727" fill="url(#a)" opacity=".313" transform="translate(0 2)"/><path d="M141.09 202.16h-7.182c-1.053 0-1.908-.761-1.908-1.702V130.18c0-.942.855-1.704 1.908-1.704h7.182c1.055 0 1.91.762 1.91 1.704v70.278c0 .94-.855 1.702-1.91 1.702" fill="url(#a)" opacity=".313" transform="translate(0 2)"/></g><g transform="translate(539.09 122.92)" fill="url(#a)" opacity=".313"><path d="M118.58 245.08H9.04c-4.994 0-9.04-3.821-9.04-8.533V9.017C0 4.305 4.046.483 9.04.483h109.54c4.992 0 9.04 3.822 9.04 8.534v227.53c0 4.712-4.048 8.533-9.04 8.533"/><path d="M120.5.681a8.05 8.05 0 01.37 2.403v227.53c0 4.713-4.048 8.534-9.04 8.534H2.29c-.66 0-1.303-.07-1.922-.197 1.1 3.542 4.561 6.13 8.67 6.13h109.54c4.994 0 9.04-3.821 9.04-8.534V9.017c0-4.09-3.048-7.505-7.118-8.336"/><path d="M108.26 56.445H19.399c-4.838 0-8.76-3.702-8.76-8.27V24.826c0-4.567 3.922-8.27 8.76-8.27h88.861c4.837 0 8.76 3.702 8.76 8.27v23.35c0 4.567-3.923 8.269-8.76 8.269M108.26 113.14H19.399c-4.838 0-8.76-3.702-8.76-8.27V81.521c0-4.567 3.922-8.27 8.76-8.27h88.861c4.837 0 8.76 3.703 8.76 8.27v23.35c0 4.567-3.923 8.269-8.76 8.269M108.26 169.83H19.399c-4.838 0-8.76-3.702-8.76-8.27v-23.349c0-4.567 3.922-8.27 8.76-8.27h88.861c4.837 0 8.76 3.703 8.76 8.27v23.35c0 4.567-3.923 8.269-8.76 8.269M108.26 226.53H19.399c-4.838 0-8.76-3.702-8.76-8.27v-23.35c0-4.566 3.922-8.268 8.76-8.268h88.861c4.837 0 8.76 3.702 8.76 8.268v23.35c0 4.568-3.923 8.27-8.76 8.27"/><path d="M109.13 16.599a7.88 7.88 0 011.173 4.121v23.347c0 4.568-3.923 8.271-8.76 8.271H12.682c-.293 0-.582-.015-.869-.042 1.514 2.478 4.341 4.15 7.589 4.15h88.86c4.838 0 8.76-3.704 8.76-8.271V24.828c0-4.291-3.46-7.817-7.891-8.229M109.13 73.293a7.88 7.88 0 011.173 4.121v23.347c0 4.568-3.923 8.271-8.76 8.271H12.682c-.293 0-.582-.015-.869-.042 1.514 2.478 4.341 4.15 7.589 4.15h88.86c4.838 0 8.76-3.704 8.76-8.271V81.522c0-4.291-3.46-7.817-7.891-8.229M109.13 129.99a7.876 7.876 0 011.173 4.121v23.347c0 4.568-3.923 8.271-8.76 8.271H12.682c-.293 0-.582-.015-.869-.042 1.514 2.478 4.341 4.15 7.589 4.15h88.86c4.838 0 8.76-3.704 8.76-8.271v-23.347c0-4.291-3.46-7.817-7.891-8.229M109.13 186.68a7.878 7.878 0 011.172 4.121v23.35c0 4.567-3.922 8.27-8.76 8.27H12.68c-.291 0-.581-.015-.867-.042 1.513 2.477 4.341 4.15 7.587 4.15h88.861c4.837 0 8.76-3.704 8.76-8.271v-23.35c0-4.289-3.462-7.816-7.891-8.228"/><path d="M97.15 47.545H24.993c-4.205 0-7.615-3.219-7.615-7.188v-11.98c0-3.97 3.41-7.188 7.615-7.188H97.15c4.205 0 7.615 3.219 7.615 7.188v11.98c0 3.97-3.41 7.188-7.615 7.188M97.15 104.14H24.993c-4.205 0-7.615-3.219-7.615-7.188v-11.98c0-3.97 3.41-7.188 7.615-7.188H97.15c4.205 0 7.615 3.217 7.615 7.188v11.98c0 3.97-3.41 7.188-7.615 7.188M97.15 160.73H24.993c-4.205 0-7.615-3.219-7.615-7.188v-11.98c0-3.97 3.41-7.188 7.615-7.188H97.15c4.205 0 7.615 3.219 7.615 7.188v11.98c0 3.97-3.41 7.188-7.615 7.188M97.15 217.32H24.993c-4.205 0-7.615-3.219-7.615-7.188v-11.98c0-3.97 3.41-7.188 7.615-7.188H97.15c4.205 0 7.615 3.219 7.615 7.188v11.98c0 3.97-3.41 7.188-7.615 7.188"/><path d="M70.546 36.501c0-3.504-3.008-6.342-6.72-6.342-3.71 0-6.72 2.838-6.72 6.342s3.01 6.343 6.72 6.343c3.712 0 6.72-2.84 6.72-6.343M70.531 93.195c0-3.504-3.008-6.343-6.72-6.343-3.71 0-6.72 2.84-6.72 6.343 0 3.504 3.01 6.343 6.72 6.343 3.712 0 6.72-2.84 6.72-6.343M70.516 149.89c0-3.504-3.008-6.343-6.72-6.343-3.71 0-6.72 2.84-6.72 6.343 0 3.504 3.01 6.343 6.72 6.343 3.712 0 6.72-2.84 6.72-6.343M70.502 206.58c0-3.504-3.008-6.343-6.72-6.343-3.71 0-6.72 2.84-6.72 6.343 0 3.504 3.01 6.342 6.72 6.342 3.712 0 6.72-2.838 6.72-6.342"/><path d="M66.594 30.734c.805 1.046 1.294 2.322 1.294 3.713 0 3.504-3.01 6.344-6.72 6.344-.99 0-1.92-.215-2.767-.577 1.22 1.587 3.19 2.63 5.426 2.63 3.711 0 6.72-2.84 6.72-6.343 0-2.57-1.627-4.769-3.953-5.767M66.579 87.428c.805 1.046 1.294 2.32 1.294 3.713 0 3.504-3.01 6.344-6.72 6.344-.99 0-1.92-.215-2.767-.577 1.22 1.587 3.19 2.63 5.426 2.63 3.711 0 6.72-2.84 6.72-6.343 0-2.569-1.627-4.769-3.953-5.767M66.564 144.12c.805 1.046 1.294 2.32 1.294 3.713 0 3.504-3.01 6.344-6.72 6.344-.99 0-1.922-.215-2.767-.577 1.22 1.587 3.19 2.63 5.426 2.63 3.711 0 6.72-2.84 6.72-6.343 0-2.57-1.627-4.769-3.953-5.767M66.549 200.82c.805 1.047 1.294 2.322 1.294 3.715 0 3.502-3.01 6.342-6.72 6.342-.99 0-1.92-.214-2.767-.577 1.22 1.588 3.19 2.63 5.426 2.63 3.711 0 6.72-2.84 6.72-6.342 0-2.57-1.627-4.77-3.953-5.768"/></g><g transform="translate(95.186 65.305)"><use fill="#000" filter="url(#b)" xlink:href="#c"/><use fill="#FFF" xlink:href="#c"/><path d="M306.3 45.131c0 10.11-8.663 18.306-19.35 18.306s-19.35-8.196-19.35-18.306c0-10.11 8.663-18.306 19.35-18.306v18.306h19.35z" fill="url(#d)"/><path d="M289.51 23.777c10.734 0 19.436 8.232 19.436 18.387H289.51V23.777z" fill="url(#e)"/><path d="M214.75 74.161H101.64c-1.621 0-2.936-1.243-2.936-2.777V23.506c0-1.534 1.315-2.778 2.936-2.778h113.11c1.621 0 2.936 1.244 2.936 2.778v47.878c0 1.534-1.315 2.777-2.936 2.777" fill="#C2BAEF"/><path d="M119.96 53.008c-5.685 0-10.294-4.36-10.294-9.738s4.609-9.739 10.294-9.739c5.686 0 10.294 4.36 10.294 9.739s-4.609 9.738-10.294 9.738z" fill="url(#f)"/><rect x="139.32" y="35.97" width="67.685" height="3.658" rx="1.829" fill="#fff"/><rect x="255.99" y="71.94" width="67.685" height="3.658" rx="1.829" fill="#C2BAEF"/><rect x="98.705" y="87.181" width="119.25" height="3.658" rx="1.829" fill="#C2BAEF"/><rect x="255.99" y="80.475" width="54.793" height="3.658" rx="1.829" fill="#C2BAEF"/><rect x="98.705" y="95.717" width="106.36" height="3.658" rx="1.829" fill="#C2BAEF"/><rect x="255.99" y="89.01" width="63.817" height="3.658" rx="1.829" fill="#C2BAEF"/><rect x="98.705" y="104.25" width="115.39" height="3.658" rx="1.829" fill="#C2BAEF"/><rect x="255.99" y="97.546" width="58.016" height="3.658" rx="1.829" fill="#C2BAEF"/><rect x="98.705" y="112.79" width="109.59" height="3.658" rx="1.829" fill="#C2BAEF"/><rect x="98.705" y="121.93" width="109.59" height="3.658" rx="1.829" fill="#C2BAEF"/><rect x="255.99" y="117.66" width="58.016" height="3.658" rx="1.829" fill="#C2BAEF"/><rect x="255.99" y="126.2" width="38.677" height="3.658" rx="1.829" fill="#C2BAEF"/><rect x="139.32" y="41.457" width="67.685" height="3.658" rx="1.829" fill="#fff"/><rect x="139.32" y="46.944" width="67.685" height="3.658" rx="1.829" fill="#fff"/><rect x="139.32" y="52.431" width="67.685" height="3.658" rx="1.829" fill="#fff"/><rect x="110.95" y="57.918" width="96.048" height="3.658" rx="1.829" fill="#fff"/><path d="M206.52 103.03l.02 2.257" fill="#FCD6CB"/><path d="M577.3 343.32s27.313-19.441-69.977-18.329c-97.291 1.112-90.382 9.822-183.65 7.804-93.273-2.018-230.33-8.036-181.07 17.422 49.26 25.458 412.13 21.124 434.7-6.897" fill="#D9E4F4" opacity=".812"/><path d="M407.08 243.22c.06-.373.365-.623.688-.56.317.073.525.445.465.827l-3.09 19.338h63.198c.18 0 .34.101.448.256l-3.13-19.594c-.06-.382.148-.754.478-.83.319-.06.615.186.675.564l15.708 98.337c.061.382-.148.753-.464.827a.473.473 0 01-.112.013c-.281 0-.524-.241-.577-.574l-12.47-78.071c-.078.282-.296.488-.556.488h-63.423l-12.393 77.584c-.053.332-.296.573-.576.573a.473.473 0 01-.112-.013c-.317-.073-.526-.445-.465-.828l15.708-98.336z" fill="url(#g)"/><path d="M520 162.27s-2.578-8.203-2.578-12.195c0-2.893-2.697-5.891-4.835-7.672-4.046-3.37-9.426-4.57-14.701-3.768-3.208.488-7.69 1.469-9.695 4.058-2.557 3.306-5 7.86-3.581 12.038.473 1.393.897 3.121 1.818 4.336.11.144.293.271.389.41.778 1.118-.104 3.306-.209 4.551-.065.778-.472 3.358.697 3.674 1.64.443.938-.776 1.64.444.595 1.03 1.14 2.089 1.82 3.073.675.977 1.768 1.611 2.154 2.74.467 1.37.057 6.212 2.706 5.826 3.047-.443 7.383-6.43 11.016-4.212 3.633 2.217 4.102 3.769 4.102 3.769L520 162.27z" fill="#FCD6CB"/><path d="M475.92 239.79v.691c0 .661-.567 1.198-1.266 1.198h-65.887l14.11-2.087 53.042.198z" fill="#545454"/><path fill="#D6D8D9" d="M422.62 239.29l-15.59-34.93-16.96-2.56 18.48 39.57z"/><path d="M406.63 205.66c.493.99 13.946 31.743 13.946 31.743l-10.954.585-15.685-34.362 12.694 2.033z" fill="#545454"/><path d="M422.91 239.6l53.043.198-4.055 1.25c-1.376.423-2.813.639-4.26.639h-58.87l14.142-2.087z" fill="#D6D8D9"/><path fill="#545454" d="M429.36 240.28h20.54l-7.17-.68h-16.56zM454.52 240.28h1.44l-7.1-.68h-2.71z"/><path d="M426.35 241.43h-34.991c.214 4.633 5.984 3.861 5.984 3.861h93.561s5.77.772 5.984-3.861H426.35z" fill="url(#g)"/><path d="M564.58 269.19s.465 5.054-1.988 5.615c-2.453.561-11.7-1.575-11.36-5.615.34-4.04.235-7.792 3.75-8.236 3.516-.443 9.634 6.97 9.634 6.97" fill="#FF4AC3"/><path d="M495.04 278.67v-.057s.17.003.485.022c.313-.02.484-.022.484-.022v.057c6.106.502 39.003 5.375 38.571 52.036h-2.657c-1.149-1.775-.451-46.485-36.398-48.258-35.947 1.773-35.25 46.483-36.398 48.258h-2.658c-.432-46.661 32.466-51.534 38.571-52.036" fill="url(#h)"/><path d="M524.98 292.08v-.057s.184.003.52.022c.338-.019.521-.022.521-.022v.057c6.559.503 41.9 5.375 41.435 52.036h-2.854c-1.234-1.775-.485-46.485-39.101-48.258-38.616 1.772-37.867 46.483-39.101 48.258h-2.855c-.465-46.661 34.877-51.534 41.435-52.036" fill="url(#h)"/><path d="M568.95 282.27s3.314 5.952-2.545 7.537-73.44 5.133-77.266 4.468c-3.826-.665-8.174-7.286-8.173-7.313.001-.027 86.61-4.692 86.61-4.692h1.374z" fill="url(#h)"/><path d="M581 183.75a54863.503 54863.503 0 01-3.727 82.864c-.143 3.137-3.284 5.373-6.508 4.626-8.824-2.044-17.516-5.111-22.753-11.904-6.174-8.009-5.693-18.882-4.232-28.697 2.107-14.147 5.73-28.179 12.016-41.169 2.256-4.66 5.096-9.42 9.833-11.907 5.92-3.108 11.115-.517 15.37 3.52M478.38 289.16s73.219-5.776 87.321-4.678c14.102 1.1-17.687-22.423-32.928-25.719-15.241-3.296-71.453-4.395-68.448 1.465 3.005 5.86 3.672 26.368 14.056 28.932" fill="url(#d)"/><path d="M470.63 225.57l-18.426 2.617c-3.303.47-10.099 5.803-11.546 6.767-1.447.963 2.647 3.24 5.085 1.801 2.438-1.439 2.603-2.64 7.131-2.105 4.529.534 9.092 2.408 12.438 1.092 3.346-1.316 6.505-2.69 6.505-2.69l-1.03-6.495" fill="#FCD6CB"/><path d="M471.2 231.06h-18.633c-3.34 0-10.898 4.32-12.48 5.07-1.582.75 2.11 3.577 4.746 2.496 2.637-1.08 2.988-2.245 7.383-1.08 4.394 1.163 8.613 3.658 12.129 2.826 3.516-.831 6.855-1.746 6.855-1.746v-6.568" fill="#FCD6CB"/><path d="M446.8 233.3c2.32-1.058 4.739-1.966 6.271-1.966h18.334l-.372-2.338-.155-.984c-.524.073-15.124 2.148-18.425 2.617-1.459.206-3.597 1.36-5.653 2.671" fill="#F1A498"/><path d="M467 323.21v5.66c0 .32-8.24 4.377-8.917 4.484-.677.106-1.253-5.48-1.253-5.48l-1.004-6.586L467 323.21z" fill="#FCD6CB"/><path d="M466.82 328s3.612 6.406 2.935 13.026-4.29 4.698-7.901 5.125c-3.61.427-3.16-1.28-3.16-1.28-.08.303-1.896.797-2.163.895a34.533 34.533 0 01-5.816 1.567c-2.51.446-5.082.56-7.63.412-2.077-.12-5.455-.135-7.243-1.206-2.83-1.693-2.4-4.913.25-6.439 5.192-2.99 12.93-1.85 15.508-5.694 2.579-3.844 4.836-6.406 4.836-6.406s7.901 1.28 10.384 0" fill="url(#i)"/><path d="M486.12 333.04v5.876c0 .332-8.555 4.545-9.258 4.656-.703.11-1.3-5.69-1.3-5.69l-1.043-6.838 11.6 1.996z" fill="#FCD6CB"/><path d="M451.96 287.89c0 7.762 2.672 37.226 3.14 37.891.217.31 2.411.379 4.907.3 2.876-.094 6.152-.386 7.28-.743.412-.129.658-1.25.799-2.946.021-.246.039-.506.053-.775.372-6.412-.457-18.96-.205-20.234.04-.197.103-.13.197.256.936 3.768 3.375 29.463 4.782 32.347.355.728 1.086 1.203 2.032 1.5 2.794.874 7.467.216 9.92.05 3.28-.22 2.672-2.535 2.437-5.638a102.84 102.84 0 00-.092-1.037c-.418-4.543-1.754-17.74.04-25.316.028-.124.056-.24.084-.356 2.095-8.202.485-21.505.014-24.272-.468-2.767 11.017-3 19.043-1.005 8.026 1.996 41.192.889 43.987-2.215 1.547-1.719 2.176-7.316 2.43-11.966.203-3.748.167-8.453.167-8.453s-.003 1.572-1.41.907c-1.405-.665-37.967-10.42-46.64-11.53-8.67-1.108-30.466 3.106-38.903 4.436-8.438 1.33-11.721 5.099-12.424 9.09-.703 3.99-1.638 21.95-1.638 29.709" fill="url(#j)"/><path d="M518.8 161.08s1.248-10.476 0-13.303c-1.249-2.827-1.07-2.993-3.389-6.153-2.318-3.16-4.636-7.317-11.593-7.483-6.954-.166-7.133 1.497-9.808 1.497s-12.126 2.937-13.552 6.43c-1.427 3.492-.885 8.82 1.434 9.984 2.318 1.164 7.656-3.277 10.51-4.608 2.853-1.33 2.143.5 1.965 1.996-.178 1.496 1.07 4.822 2.318 5.321 1.249.499 3.055-.166 2.865 1.497s2.307 6.984 2.307 8.98c0 1.995-2.14 6.318-3.745 5.487-1.605-.831-4.81-3.623-7.134-3.326-2.313.296-2.988.658-2.988.658s.349 3.784 2.37 3.895c0 0 4.066-1.615 5.136-.174 0 0-1.783 1.552-3.566 1.774-1.784.221-.833 12.306 6.895 8.425 7.728-3.88 11.533-10.199 9.036-14.19-2.497-3.99-3.448-3.88-4.16-5.764-.714-1.885-1.903-6.098-.12-7.206 1.783-1.11 4.637-2.328 6.183.997 1.545 3.326 3.21 7.872 6.539 6.652 3.33-1.22 2.497-1.386 2.497-1.386" fill="url(#k)"/><path d="M537.05 208.84c1.04-1.999 1.68-3.296 1.723-3.385-.78.422-1.336 1.656-1.723 3.385" fill="#5960A3"/><path d="M466.78 226.49c1.512-.456 9.731-2.967 13.011-4.473 3.62-1.663 10.241-3.768 13.053-7.26 2.812-3.492 4.57-1.424 5.8-5.535 1.22-4.07 5.713-17.646 6.483-19.2l.021-.043c.327-.618 1.755-2.195 3.193-3.708.767-.81 1.535-1.6 2.14-2.215 3.331-5.558 13.294-16.913 15.623-15.694 0 0 16.348 6.984 19.863 24.279 3.516 17.294 10.316 63.37 6.097 65.033-1.114.439-4.844 1.26-9.766 2.218-13.735 2.674-36.52 4.575-37.815 4.087-1.757-.666-2.636-19.123-2.812-21.618a31.946 31.946 0 01-.016-1.002c-5.6.268-30.913 1.451-31.954 1.058-.883-.336-.032-7.18.64-10.989.217-1.237.414-2.155.53-2.428-.113-.532-2.067-3.01-4.092-2.51" fill="url(#l)"/><path d="M520.05 161.56s6.328 6.652 5.8 6.652c-.527 0-14.765 8.813-15.292 19.123l-5.097-5.654s10.37-18.791 14.589-20.121" fill="url(#l)"/><path d="M502.35 253.01c.464 5.268 1.146 10.513 2.067 10.862 1.294.489 24.588-1.372 38.32-4.185-.077-2.239-.735-6.038-1.23-7.844-1.406-5.099 4.218-13.745 3.515-16.406-.703-2.661-7.267 1.772-7.97-2.884-.555-3.671-1.472-16.988-.027-23.437-3.84 7.364-13.131 24.272-18.253 25.655-6.56 1.773-15.936 7.094-17.107 7.094a.163.163 0 00-.07.02c0 .16.003.283.01.369.063.905.221 3.918.478 7.417l.267 3.339zM498.42 214.93c-1.23 4.11-2.988 2.042-5.8 5.534-2.503 3.107-18.235 6.635-21.97 8.212 8.012-1.184 28.16-4.171 28.948-4.267 1.332-.167 9.593-36.86 8.521-38.463-1.438 1.513-1.003 3.422-1.33 4.04" fill="#2D9EF0"/><path d="M474.52 335.13c2.795.874 7.467.216 9.92.05 3.28-.22 2.673-2.534 2.437-5.637-.021-.263-.053-.613-.092-1.038-.418-4.543-1.754-17.74.04-25.316l.084-.356c2.095-8.202.485-21.505.014-24.272-.468-2.767 11.017-3 19.043-1.004 8.026 1.995 41.192.888 43.987-2.215 1.547-1.72 2.176-7.317 2.43-11.966-.04.715-1.41 2.301-1.804 2.92a23.693 23.693 0 01-4.339 5.092c-5.449 4.809-15.39 3.695-22.306 3.628-11.007-.103-21.997-.436-32.99-.436-6.504 0-11.693 3.54-12.923 3.54-1.23 0 1.23 2.493 1.23 3.657 0 1.165-2.2 1.165-2.506 1.663-.306.5 4.968.666 3.913 4.49-1.055 3.825-2.285 5.987-1.055 12.805 1.231 6.817 3.164 25.729 1.406 29.22-1.233 2.454-5.98 3.429-6.489 5.175M459.69 325.88c2.876-.093 6.152-.385 7.28-.742.412-.13.658-1.25.799-2.946-.032-.363-.025-.642.052-.775.373-6.412-.457-18.96-.204-20.234-1.04-11.637-3.11-31.824-3.11-32.324 0 0-1.759 15.133-1.934 21.95s1.054 23.945-2.11 32.26c-.443 1.164-.689 2.088-.773 2.81M464.2 267.36c-.007-1.966 1.437-3.673 3.032-4.933 5.036-3.977 12.588-4.874 18.802-6.272 1.14-.257 16.199-3.206 16.176-3.466a272.108 272.108 0 01-.267-3.34c-6.377 1.141-21.944 4.098-29.296 7.051-5.03 2.023-8.308 5.765-8.448 10.96" fill="#1D274A" opacity=".374"/><path d="M452.53 355.67c.327.495.805.951 1.441 1.33 1.857 1.111 5.361 1.128 7.52 1.254 2.644.153 5.316.033 7.921-.429a35.838 35.838 0 006.04-1.626c.274-.103 2.161-.616 2.242-.931 0 .003-.467 1.772 3.284 1.33 3.748-.443 7.499 1.553 8.202-5.321.063-.62.091-1.234.087-1.84-.028-6.172-3.135-11.683-3.135-11.683-2.577 1.33-10.78 0-10.78 0s-2.344 2.661-5.023 6.652c-2.675 3.991-10.709 2.807-16.1 5.91-2.155 1.24-2.893 3.562-1.699 5.354" fill="url(#i)"/><path d="M452.6 355.57c.327.495.805.951 1.441 1.33 1.857 1.111 5.362 1.128 7.52 1.254 2.644.153 5.316.033 7.921-.429a35.838 35.838 0 006.04-1.626c.274-.103 2.162-.616 2.243-.931 0 .003-.468 1.772 3.283 1.33 3.748-.443 7.499 1.553 8.202-5.321.063-.62.091-1.234.088-1.84-3.294 1.194-18.608 6.665-23.512 6.865-4.694.19-10.406.459-13.226-.632M434.55 344.97c.315.477.775.915 1.388 1.28 1.787 1.07 5.16 1.086 7.239 1.208 2.545.147 5.117.032 7.625-.413a34.504 34.504 0 005.815-1.566c.263-.1 2.081-.592 2.159-.896 0 .003-.45 1.706 3.16 1.28 3.608-.426 7.22 1.495 7.896-5.122.061-.596.088-1.189.085-1.771-3.17 1.15-17.914 6.416-22.635 6.608-4.518.183-10.018.442-12.732-.608" fill="#4A4949"/><path d="M127.93 314.6c0 2.353 13.392 4.26 29.912 4.26s29.912-1.907 29.912-4.26c0-2.353-13.393-4.26-29.912-4.26-16.52 0-29.912 1.907-29.912 4.26" fill="#D9E4F4"/><path d="M38.598 396.17c47.308 2.972 91.554-8.25 98.162-26.029s-35.644 18.493-67.485-9.334C37.434 332.98 1.79 364.986 1.79 370.141s-10.499 23.057 36.808 26.029z" fill="#D9E4F4" opacity=".421"/><path d="M129 315.58c0 1.583 13.392 2.866 29.912 2.866s29.268-2.177 29.268-3.76c0-1.582-13.322-6.718-29.268-1.972-15.946 4.745-29.912 1.283-29.912 2.866h44.658" fill="#D3DEEF"/><path transform="rotate(10 150.88 241.86)" d="M165.88 288.54l-2.398.022c-.997-17.067-3.688-54.912-8.237-61.438-.998.01-12.919-6.243-13.388-8.185-.468-1.942-.456-5.632-1.43-8.164-1.133-2.95-1.934-5.78-2.246-8.918-.185-1.868-2.876-4.563-2.168-6.372.585-1.495 5.111 2.39 6.807 3.999 1.696 1.609 4.372 5.105 7.068 6.569 2.696 1.464 6.19 8.743 7.002 11.714.812 2.971-.083 8.516-.083 8.516s7.146 30.407 8.1 47.19c.368 6.463.701 11.415.973 15.067" fill="url(#e)"/><path d="M159.21 277.3l.097 13.157H156.2c-.573-10.842.324-33.291 15.775-45.238 0 0-2.26-.276-1.416-3.878.845-3.6 6.367-7.745 6.18-9.728-.175-1.84 1.611-3.442 2.476-5.139 1.813-3.556 4.814-2.995 7.32-5.69.666-.717 3.22-4.922 4.497-4.29 1.272.627.839 6.25.737 6.896-.315 2.013-1.006 4.646-2.98 5.788-2.573 1.487-3.144 8.246-5.145 9.598-2 1.351-9.43 6.894-11.002 7.029s-13.574 12.166-13.43 31.495" fill="url(#e)"/><path d="M169.26 262.66c-4.508 2.192-7.013 9.3-8.453 13.21-1.228 3.333-1.363 11.443-1.377 13.763h-1.422c-.032-21.297 10.814-27.98 10.814-27.98.25-7.76 6.888-8.115 10.08-8.115 3.194 0 6.45-1.363 8.579-1.955 2.13-.593 3.194-.593 3.194.355s-5.473 2.368-7.952 3.791c-.313.18-9.08 5.746-10.238 6.19-1.159.445-3.225.741-3.225.741" fill="url(#e)"/><path d="M124.27 246.16c2.43.676 6.144 2.23 9.788 2.23s11.216.406 11.502 9.26c0 0 12.405 7.643 12.338 32.013h-1.623c-.012-2.523-.154-11.946-1.57-15.793-1.644-4.46-4.502-12.571-9.646-15.072 0 0-2.357-.338-3.679-.845-1.322-.507-11.325-6.858-11.681-7.063-2.83-1.624-9.073-3.244-9.073-4.325s1.214-1.082 3.643-.406" fill="url(#m)"/><path d="M163.91 252.43c-1.401-.177-7.568 26.608-5.646 37.668h-1.52c-.102-3.724-.28-23.261 6.5-38.119.242-.532.065-1.86.159-2.475.318-2.095.56-4.377 2.426-5.783 2.435-1.833 5.137-3.74 8.172-4.542 3.096-.819 6.393-.777 9.437-1.798 2.953-.991 6.763-4.416 7.05-2.884 0 0-5.145 9.282-7.526 10.093-2.382.811-7.812 3.154-9.431 4.686-1.62 1.532-8.192 3.334-9.62 3.154" fill="url(#m)"/><path d="M122.73 215.9a.746.746 0 01.086-.078c5.31 4.163 12.953 4.244 19.1 7.203 3.06 1.474 5.682 3.631 8.27 5.767 1.118.922 2.263 1.878 2.92 3.135.958 1.837.72 4.035.11 6-.15.487-.324.976-.336 1.483-.009.406.087.807.183 1.202 2.956 12.265 5.122 24.653 6.013 37.214.29 4.091.468 8.196.427 12.296h-2.45c1.25-11.612-.105-23.51-1.892-35.009-.748-4.81-1.709-9.586-2.647-14.366-.05-.258-.105-.525-.258-.745-.452-.648-1.53-.553-2.231-.703-1.178-.254-2.273-.823-3.332-1.352-3.587-1.791-7.195-3.596-10.397-5.952-5.346-3.935-9.343-9.244-13.257-14.476-.362-.483-.698-1.204-.31-1.62" fill="url(#m)"/><path d="M143.85 287.76h29.148s.826 22.655-8.329 27.841c-.32.181-.687.275-1.06.275H153.238c-.373 0-.74-.094-1.06-.275-9.154-5.186-8.329-27.841-8.329-27.841" fill="url(#n)"/><path d="M260.52 343.1l17.034-101.12c.062-.367.377-.613.708-.547.327.072.542.434.48.808l-3.426 20.334c.095-.239.304-.406.55-.406h68.571l-3.357-19.929c-.063-.373.152-.735.487-.809.323-.065.638.182.7.55l17.035 101.12c.062.372-.153.735-.478.806a.506.506 0 01-.116.013c-.289 0-.539-.235-.593-.56l-13.445-79.807h-68.805c-.326 0-.59-.294-.603-.662l-13.556 80.47c-.054.323-.304.559-.593.559a.506.506 0 01-.115-.013c-.326-.072-.541-.434-.479-.808" fill="url(#g)"/><path d="M297.89 238.55v.59c0 .563.483 1.02 1.08 1.02h56.183l-12.032-1.78-45.231.17z" fill="#545454"/><path fill="#D6D8D9" d="M343.02 238.64l13.29-29.78 14.46-2.19-15.76 33.75z"/><path d="M356.84 209.63c-.42.845-11.892 27.069-11.892 27.069l9.341.5 13.376-29.303-10.825 1.734z" fill="#545454"/><path d="M343.12 238.38l-45.232.17 3.458 1.064c1.173.361 2.399.545 3.632.545h50.2l-12.058-1.779z" fill="#D6D8D9"/><path fill="#545454" d="M337.33 239.57h-17.52l6.12-.58h14.12zM316.52 239.57h-1.22l6.05-.58h2.31z"/><path d="M229.56 343.36l10.063-57.756c.032-.184.213-.308.41-.278a.34.34 0 01.294.388l-10.044 57.646h-.723zM265.4 343.36l-10.044-57.646a.34.34 0 01.294-.388.356.356 0 01.41.278l10.063 57.756h-.723zM252.4 343.72l-.278-58.672c0-.186.158-.338.355-.339h.002c.196 0 .356.15.357.336l.278 58.675h-.714zM241.44 343.45l-.271-57.183a.348.348 0 01.355-.34h.002c.196 0 .356.151.357.337l.271 57.186h-.714z" fill="url(#g)"/><path d="M217.96 279.78c0 1.354 1.746 2.617 4.751 3.673 3.781 1.334 9.557 2.342 16.36 2.807.235.02.475.036.718.048.357.024.718.043 1.083.063l.713.036a127.842 127.842 0 0010.652.055c.24-.007.479-.015.714-.028a88.58 88.58 0 002.12-.107c.238-.016.473-.028.708-.044 7.131-.468 13.162-1.532 16.99-2.942 2.816-1.036 4.44-2.255 4.44-3.561 0-.063-.004-.127-.009-.182a1.788 1.788 0 00-.264-.735c-.805-.91-3.386-1.735-7.193-2.386-5.423-.938-13.338-1.525-22.156-1.525-9.477 0-17.908.679-23.331 1.735-3.165.62-5.305 1.362-6.023 2.176a1.799 1.799 0 00-.265.734c-.003.056-.008.12-.008.183" fill="#D93FC5"/><path d="M217.96 279.47c0 .04.004.088.008.128.147.81 1.696 1.564 4.285 2.21 5.196 1.307 14.597 2.18 25.333 2.18 10.69 0 20.062-.865 25.27-2.16 2.628-.654 4.198-1.417 4.344-2.23.005-.04.009-.088.009-.128 0-.206-.088-.409-.273-.607-.806-.91-3.387-1.735-7.194-2.387-5.422-.936-13.338-1.524-22.156-1.524-9.476 0-17.908.679-23.33 1.735-3.165.62-5.306 1.362-6.024 2.176-.184.198-.272.4-.272.607" fill="url(#d)"/><path d="M233.08 326.82c.064 0 .13-.02.184-.062l26.322-20.22a.266.266 0 00.042-.388.303.303 0 00-.41-.04l-26.323 20.219a.267.267 0 00-.042.388.298.298 0 00.227.102" fill="url(#g)"/><path d="M262.62 326.82c.085 0 .17-.035.227-.102a.267.267 0 00-.043-.389l-26.322-20.219a.303.303 0 00-.41.04.266.266 0 00.042.389l26.322 20.22c.054.042.12.062.184.062" fill="url(#g)"/><path d="M248 173.96c-.076 1.123.55 2.335 1.431 3.543 1.603 2.205 4.044 4.377 4.583 5.916.84 2.384-1.366 7.017-1.366 7.017s1.019 4.764 3.957 6.154c.179.084.378.16.594.224 3.309.939 11.474-.834 10.318-4.127-.357-1.014-.418-2.085-.336-3.105.22-2.497.336-4.637.336-4.637 2.516 1.851 6.505 1.254 7.411.526.913-.723 2.592-2.513 4.198-5.555 1.61-3.046 1.47-5.826 1.39-7.08-.075-1.26-.408-1.191 0-2.98.409-1.786.36-6.16 0-6.42a38.633 38.633 0 00-1.081-4.127c-.431-1.356-.82-2.757-1.573-3.994-.855-1.403-1.897-1.887-3.572-2.05-5.116-.497-11.078-1.845-15.92.445-4.542 1.914-6.572 9.04-8.691 10.125-5.036 2.578-1.47 6.946-1.679 10.125" fill="#FCD6CB"/><path d="M252.76 190.34s1.02 4.765 3.958 6.154c.18.084.378.159.596.223.075-.16.025-.362-.177-.608-2.518-3.1-1.821-2.922-1.07-9.41.735-6.388-6.194-9.053-6.522-9.29 1.603 2.203 4.042 4.375 4.583 5.915.84 2.382-1.368 7.016-1.368 7.016" fill="#F1A498"/><path d="M299.45 190.58l.004.016c.055.166.118.337.189.508.16.377.29.735.395 1.072.676 2.184.31 3.605.227 4.621-.097 1.176 5.06.902 5.06.902l.32-1.263s.84-1.274 1.98-2.656c.521-.635 1.105-1.29 1.71-1.854.003-.004.003-.008.003-.008 2.057-1.946 2.493-4.824 3.778-7.19 1.179-2.177 3.722-4.63 1.401-7.084-2.312-2.438-5.69 1.032-7.122 2.732-.374.437-2.93 4.836-3.5 4.133-.957-1.175-.764-5.15-2.103-5.964-1.339-.813-2.58-.36-2.006 1.263.575 1.628 1.242 2.894.667 4.34-.386.976-1.167 2.533-1.263 4.303v.009c-.038.682.03 1.393.26 2.12M324.45 342.83c.814.686 2.733 5.676 4.786 10.091 1.667 3.598 3.428 6.814 4.755 7.024 2.482.392 4.81-2.716 6.547-3.948 3.567-2.525 7.924-3.118 11.786-5.088 2.635-1.34 11.184-8.27 4.465-9.708-2.314-.495-4.53-.2-6.675.453-2.778.84-5.437 2.282-8.047 3.398-1.263.541-2.57 1.255-3.922.527-.863-.467-2.738-5.39-2.842-5.39 0 0-12.334 1.4-10.854 2.641" fill="#FCD6CB"/><path d="M329.48 352.77c1.667 3.598 3.428 6.814 4.755 7.024 2.482.392 4.811-2.716 6.548-3.948 3.567-2.526 7.923-3.118 11.786-5.088 2.634-1.34 11.184-8.27 4.464-9.708-2.314-.495-4.529-.2-6.675.453.667 5.353-4.943 6.002-11.683 9.423-4.292 2.18-7.385 2.151-9.196 1.844" fill="url(#m)"/><path d="M263.56 359.02c1.717 1.625 5.385.428 7.478.383 4.295-.086 8.063 1.76 12.258 2.268 2.74.332 12.79-.477 9.733-4.68a5.666 5.666 0 00-.471-.563c-1.523-1.615-3.435-2.56-5.504-3.186-2.678-.819-5.618-1.098-8.325-1.611-1.313-.243-2.759-.378-3.386-1.67-.405-.823 1.051-5.679.965-5.733 0 0-10.498-5.45-10.075-3.69.234.967-1.222 5.9-2.235 10.45v.003c-.005.014-.005.023-.01.036-.818 3.695-1.336 7.129-.428 7.992" fill="#FCD6CB"/><path d="M263.56 359.19c1.717 1.625 5.385.428 7.478.383 4.295-.086 8.063 1.76 12.258 2.268 2.74.332 12.79-.477 9.733-4.68a5.666 5.666 0 00-.471-.563c-1.523-1.615-3.435-2.56-5.504-3.186-2.654 4.55-7.435 2.079-14.751 1.183-4.658-.571-7.064-2.231-8.306-3.433-.005.013-.005.022-.01.036-.818 3.695-1.336 7.128-.428 7.992" fill="url(#m)"/><path d="M225.28 272.67c5.061 8.481 19.553 7.583 28.284 8.993.76.123 3.492.445 6.908.933 3.694.528 8.18 1.255 11.827 2.14 1.38.334 2.64.691 3.694 1.068 2.014.719 3.273 1.517 3.151 2.37-.562 3.971-19.029 59.558-19.029 61.146 0 .845 5.394 1.167 10.438.842 4.432-.286 8.596-1.069 8.596-2.43-.005-2.911 6.148-22.596 10.068-30.092 3.794-7.258 9.162-26.363 9.493-27.551.005-.009.005-.016.005-.02.007-.029.012-.04.012-.04l.009.011 26.575 55.84s4.445-.909 8.759-2.227c4.07-1.243 8.029-2.85 8.029-4.391 0-3.177-6.157-11.736-8.676-17.117-2.518-5.384-14.828-42.13-20.427-47.18-5.594-5.055-31.057-16.7-36.37-18.816-5.318-2.12-8.89-3.97-9.343-15.882l-6.421-.374-7.442-.428-18.849-1.092s-.197 7.714-4.675 13.01c-4.424 5.23-8.42 14.914-4.617 21.286" fill="url(#j)"/><path d="M261.79 258.61l5.013 1.427c-1.637-.56-3.975-1.58-5.591-3.224-1.578-1.608.437-10.002 2.417-16.783l-7.44-.429a6.08 6.08 0 00-.013.14c-.229 3.025-.208 7.874-.143 11.665.058 3.331 2.385 6.244 5.757 7.204" fill="#1D274A"/><path d="M225.28 272.67c5.061 8.481 19.553 7.583 28.284 8.993.76.123 3.492.445 6.908.933-1.78-1.072-7.47-1.778-21.052-10.037-15.67-9.529 2.237-30.969 2.237-33.093 0 0-.163-.27-.436-.707l-6.648-.385s-.198 7.715-4.676 13.011c-4.423 5.23-8.419 14.913-4.616 21.285" fill="#1D274A" opacity=".373"/><path d="M301.76 276.79l.365 1.604c-.13-.897-.31-1.461-.365-1.604" fill="#1D274A"/><path d="M298.54 290.03l26.575 55.84s4.445-.91 8.759-2.228c.676-1.409-.037-2.906-1.993-5.931-4.617-7.147-13.64-7.663-19.516-23.187-4.927-13.023-9.267-31.045-10.538-36.516.331 2.31.306 6.836-3.287 12.022" fill="#1D274A" opacity=".373"/><path d="M283.87 259.39c-11.35-4.63-13.886-8.541-14.25-9.207-.214-1.632-.69-3.636-1.451-6.097l-37.66-34.97c1.117 8.603 11.652 20.554-2.88 44.746 13.48-1.908 24.75.938 32.232 2.18.317.07.649.14 1.011.21 15.274 2.944 35.47 8.225 22.998 3.138" fill="#A169E3"/><path d="M298.71 290.36v.012c.004-.008.004-.016.004-.02 0 .004-.004.004-.004.008" fill="#1D274A"/><path d="M259.86 349.35c0 1.524 9.352.87 10.396.842-1.894-.262-2.83-4.242-3.28-5.613-1.024-3.121-1.686-6.52-1.335-9.794.363-3.39 1.66-6.608 2.604-9.875 2.968-10.264 6.538-20.382 10.217-30.435.056-.152 1.074-2.65.995-2.696.001.001 2.794 1.588 1.397-.528s-.281-2.251 3.077-2.382c3.357-.131 6.858-.925 2.66-1.72-4.197-.794-6.018 1.057-4.76 0 1.26-1.06 3.921-3.573-.696-1.854-1.964.73-3.852.759-5.397.54 2.014.719 3.274 1.517 3.152 2.37-.562 3.971-19.028 59.554-19.03 61.146" fill="#1D274A" opacity=".373"/><path d="M231.1 209.01c1.116 8.605.697 29.251 3.776 30.572 3.079 1.325 46.445.662 47.286 0 .724-.572.195-4.02.037-4.936a.386.386 0 00-.268-.298l-10.263-3.365s.031-.042.093-.113c.741-.893 5.784-7.011 5.784-8.362 0 0 10.352 19 17.907 17.84 7.555-1.162 11.89-44.305 11.89-44.305s-6.992-2.253-7.833-.665c-.838 1.59-7.133 24.09-7.133 24.09s-5.265-10.42-9.23-16.303c-1.211-1.79-2.3-3.16-3.086-3.683-3.357-2.25-12.12-7.4-12.12-7.4s0 .003-.003.006a4.957 4.957 0 01-.66.449l-.226.126c-2.028 1.117-7.332 3.004-13.85-2.445 0 0-3.185.757-6.878 1.734-3.42.903-7.274 1.99-9.436 2.828 0 0 0 .003-.004.003-.566.218-1.012.416-1.31.595-2.658 1.591-5.596 5.033-4.473 13.632" fill="url(#m)"/><path d="M271.11 231.38s-22.554-2.648-26.052-3.178c0 0-.56-11.878-1.959-14.21 0 0 2.714 7.774 9.771 12.754 4.325 3.052 10.28 3.93 18.24 4.634" fill="#A169E3"/><path d="M271.54 230.89c.743-.893 5.783-7.012 5.783-8.362 0 0-3.567 5.03-8.444 5.428-3.941.321-1.221 2.37 2.661 2.934M246.32 191.95c2.526 2.085 9.968 4.936 14.752 3.757 5.214-1.283 6.178-3.04 6.217-3.182l-.014.01c-.034.025-.11.068-.227.126-2.029 1.117-7.332 3.004-13.85-2.445 0 0-3.185.757-6.878 1.734" fill="#A169E3"/><path d="M281.13 239.73c.96.238 2.323.568 3.727.882 1.955.436 4.207-.445 6.589-1.251.781-.266 1.576-.52 2.38-.723 2.466-.62 3.208-.297 4.279.222.341.163.71.35 1.181.533 1.662.643 3.883-.691 3.785-1.43-.013-.127-.102-.234-.275-.313-.466-.207-1.63-.81-3.017-1.461-2.105-.985-4.722-2.08-6.21-2.08-1.28 0-4.824.186-8 .368-1.414.076-2.75.155-3.782.215.076.428.236 1.374.311 2.326.09 1.136.063 2.287-.355 2.597-.053.04-.262.08-.613.115" fill="#FCD6CB"/><path d="M281.13 239.87c.96.238 2.323.568 3.727.882 1.955.436 4.207-.445 6.589-1.251.781-.266 1.576-.52 2.38-.723 2.466-.62 3.208-.297 4.279.222.341.163.71.35 1.181.533 1.662.643 3.883-.691 3.785-1.43-.48.477-1.266.897-3.118.29-2.608-.853-3.612-1.747-6.775-.603-3.163 1.14-8.108 1.67-10.413-.23a2.476 2.476 0 00-.667-.402c.09 1.136.063 2.287-.355 2.597-.053.04-.262.08-.613.115M260.17 181.48c1.328 1.35 5.098 5.55 7.572 8.01.22-2.497.336-4.636.336-4.636s-7.486-3.244-7.973-5.956c-.49-2.718-.422-3.312-.422-3.312s-1.329 4.04.487 5.894" fill="#F1A498"/><path d="M321.04 240.21h55.276c-.232 4.765-6.49 3.97-6.49 3.97H255.394s-6.258.795-6.49-3.97h72.137z" fill="url(#g)"/><path d="M279.27 154.6c-1.722-2.834-6.22-7.778-16.101-6.03-3.41.604-6.187 1.448-8.456 2.454a7.132 7.132 0 00-1.247-1.324l-.01.005c-1.109-.912-2.854-1.787-5.332-1.5-4.794.556-8.198 6.766-7.514 9.635.49 2.049 1.837 3.767 4.065 3.768h.015c.17 0 .345-.012.525-.033l.027-.001c0 .007-.003.013-.004.02-3.095 4.568-.407 12.756 5.876 27.671 6.293 14.937 2.06 21.972 2.06 21.972s8.238-2.38 4.119-18.4c-3.274-12.732-.262-20.672 1.114-23.398.932-1.19 1.232-3.142 2.189-4.178.932-1.01 3.406-.828 4.714-.58 1.113.21 2.216.63 3.343.508 1.36-.147 2.626-1.075 3.968-.822.96.181 1.908.952 2.796.562.275-.121.498-.346.79-.426.26-.071.538-.017.805.028 1.057.18 3.38.53 4.335-.173.743-.548.664-1.85.683-2.669.058-2.592-.675-5.287-2.76-7.09" fill="url(#k)"/><path d="M267.6 192.04s5.089-.081 7.062 7.63c.514 2.01.143 4.641 2.103 12.949-.215-.082-3.776-7.875-5.092-11.717-1.551-4.53-1.299-7.387-4.073-8.862" fill="#8D3B26"/><path d="M32.71 116.62c1.69-4.414 5.473-7.634 10.106-9.194 2.818-.949 6.895-2.034 9.724-.782 3.611 1.598 7.714 4.252 8.521 8.218.27 1.323.736 2.895.56 4.261-.02.162-.108.342-.122.494-.105 1.228 1.63 2.626 2.297 3.587.417.6 1.952 2.513 1.156 3.257-1.117 1.045-1.12-.234-1.117 1.045.002 1.08.058 2.163-.031 3.242-.088 1.072-.674 2.04-.457 3.114.263 1.301 2.86 5.039.54 5.837-2.667.917-8.967-2.1-10.862 1.21-1.896 3.31-1.549 4.76-1.549 4.76l-1.382-.838c-1.703 2.384-4.611 4.616-5.246 4.616-1.126 0-9.05-3.38-8.969-5.76.1-2.965-.803-6.367-1.23-9.351-.387-2.708-.593-5.51-1.593-8.084a10.104 10.104 0 00-.66-1.414c-1.352-2.336-.578-5.885.315-8.218M120.26 120.513c0 .042.003.088.003.133.12 4.079-2.945 6.813-3.872 4.403-.292-.76-.528-1.545-.745-2.234-.46-1.493-.81-2.52-1.376-1.763-.285.383-.247 1.309-.103 2.5v.004c.268 2.253.9 5.455.408 7.76-.666 3.124-8.018 12.687-9.717 14.866-.227.29-.354.448-.354.448l9.213 12.2s.55-2.64 1.366-6.134c1.452-6.192 3.752-15.07 5.348-16.668 2.499-2.497 6.525-7.367 6.66-12.51.13-5.14-1.223-6.56-3.849-8.385-2.083-1.445-2.814.305-2.962 3.124" fill="#FCD6CB"/><path d="M45.648 249.35s-6.326 10.361-6.326 12.253c0 1.893 9.714 6.487 11.429 6.217s1.551-3.442 3.428-2.162c1.968 1.34 2.52 4.054 11.851 5.135 2.956.343 6.868-1.018 7.382-3.411.214-.995-.27-1.5-1.802-2.76-2.437-2.004-5.756-1.946-8.59-3.564-1.714-.978-4.953-3.31-4.419-5.582.572-2.432-11.238-5.05-12.952-6.126" fill="url(#i)" transform="translate(5.88 104.25)"/><path d="M19.713 251.65c0 .816-2.572 10.006-2.286 11.628.286 1.622 11.183 1.712 11.183.9 0-.81.096-1.17 2.381-1.17s9.294 3.069 13.293 2.21c4-.859 12-2.216 7.715-4.375-4.286-2.16-10.572-2.16-12.572-4.052-2-1.892-4.111-6.217-4.111-6.217l-15.604 1.076z" fill="url(#i)" transform="translate(5.88 104.25)"/><path d="M21.151 251.06c2.286 10.092 4.504 2.523 2.252 25.231-2.252 22.704 3.464 24.146 2.698 35.677-.758 11.531-3.8 19.46-2.664 28.832 1.143 9.372-.24 14.054 2.74 14.778 2.674.65 12.8 3.913 15.645.114.319-.429.549-.942.662-1.555.35-1.868.731-4.64 1.133-7.775.903-7.16 1.884-16.207 2.68-20.71 1.14-6.478 4.57-26.657 4.57-32.427v-25.224s9.143 23.426 11.045 30.994c.21.831.306 1.734.306 2.695 0 .201-.004.406-.014.614a8.372 8.372 0 01-.028.503v.007c-.003.071-.01.146-.017.22-.013.179-.03.357-.048.54v.006c-.024.214-.051.432-.082.65-.028.217-.062.434-.096.655-.048.27-.096.543-.148.822l-.093.467c-.686 3.303-1.942 6.992-3.223 10.765-.106.321-.216.64-.326.961-.079.231-.154.458-.23.685-.137.416-.278.832-.415 1.247l-.316.965c-.01.032-.02.061-.027.09-.09.267-.172.536-.258.803-.01.022-.017.048-.024.074-.15.484-.302.965-.446 1.445a100.457 100.457 0 00-.484 1.673l-.196.718c-.006.026-.013.048-.017.071-.058.214-.113.429-.168.643-.055.214-.106.428-.158.64-.051.214-.1.425-.147.636-.148.64-.275 1.273-.385 1.896-.034.169-.062.335-.09.503-.037.241-.075.481-.109.721-1.52 10.813-1.52 9.369-3.807 13.693-2.286 4.326-3.051 9.733-1.143 10.092.083.017.169.036.261.06l.141.038a17.761 17.761 0 011.431.49c.11.04.22.085.333.127l.388.152c.096.04.2.078.299.117.034.013.065.026.1.042.212.082.425.17.645.257l.607.24c.43.17.862.335 1.29.494.142.055.286.104.426.156 1.408.503 2.726.883 3.601.835 2.286-.127 5.715 3.837 7.624-1.569 1.901-5.407 9.518-20.925 11.427-30.284 1.905-9.358 6.858-16.564 8.378-20.532 1.524-3.961-1.901-27.387-3.044-34.599-1.143-7.206-6.858-23.062-10.287-29.193-3.43-6.124-4.572-17.584-4.572-17.584H26.1s-7.232 17.227-4.949 27.315" fill="#9D2B4C"/><path d="M50.867 293.23c0 5.768-3.43 25.948-4.572 32.425-.794 4.504-1.777 13.553-2.68 20.71-.4 3.135-.783 5.908-1.132 7.774a3.666 3.666 0 01-.663 1.557c-2.845 3.8-12.972.535-15.646-.114-2.977-.724-1.594-5.406-2.737-14.78-1.137-9.368 1.903-17.299 2.663-28.83.766-11.53-4.948-12.974-2.697-35.679 2.251-22.705.034-15.136-2.251-25.229-2.286-10.087 4.948-27.316 4.948-27.316h12.583c-.223 8.65-5.629 32.274 10.537 42.453.933.588 1.137 1.979 1.646 3.205v23.824z" fill="#86213E"/><path d="M109.93 50.034c-.252 2.195-4.2 9.498-7.857 15.401-.538.86-1.063 1.692-1.572 2.47-4 6.147-31.144-2.232-33.715.563-1.428 1.546-2.588 15.73-3.24 29.002-.531 10.66-.335 20.976-.078 23.462.572 5.584-2.11 1.708-5.253 1.913-3.143.206-7.715.357-9.715 0-2-.356-7.429-.481-10.572-.594-1.589-.06-3.463-.455-5.263-.633-1.771-.178-3.463-.14-4.737.633-2.571 1.562-7.714-.168-9.714-2.682-2-2.513-1.143-7.541-1.143-10.893 0-.486-.08-.94-.24-1.362-.76-2-3.349-3.346-8.052-4.67a87.075 87.075 0 00-3.708-.946c-8.286-1.958-4-6.422-3.715-14.801.286-8.38 2.572-25.413 3.715-31.28 1.142-5.86 19.143-11.724 22.572-12.843 3.428-1.114 2-5.585 2-5.585 1.125.784 5.245.687 9.085.454 2.978-.189 5.789-.454 6.915-.454 2.571 0 .857 2.795 4 5.585 3.143 2.794 5.429 0 11.143 0s28.858 8.66 31.144 8.379c2.286-.281 5.714-9.774 5.714-9.774s12.571 6.141 12.286 8.655" fill="url(#o)" transform="translate(5.88 104.25)"/><path d="M54.01 198.747s-7.382 4.054-8.676 8.92c-1.293 4.865 7.255 7.839 6.981 11.893-.274 4.055-2.86-5.946-2.71-10.406.15-4.46 4.946-8.514 4.406-10.407" fill="#D86572"/><path d="M108.22 169.572a149.65 149.65 0 01-1.572 2.47c-4 6.147-31.144-2.232-33.715.563-1.428 1.546-2.589 15.73-3.24 29.002-1.177-5.936-2.27-9.718-3.372-17.448-1.428-10.001.022-17.017 7.594-16.476 7.566.54 18.43 4.456 27.287 3.916 3.789-.233 5.646-.957 7.018-2.027" fill="#DB6471"/><path d="M29.59 30.349a1.461 1.461 0 01-.882-.828c-1.1-2.783-5.677-14.593-5.497-18.002.205-3.873 4.3-3.099 5.733-5.81C30.377 2.998 29.967.867 34.88.286 39.794-.294 50.833-.76 54.331 7.08c1.88 4.211-3.192 3.03-2.987 5.16.205 2.131-1.832 2.662-.809 3.242 1.024.582 2.423 4.126 2.423 6.45s-1.036 6.742 2.444 7.322c3.48.581 1.57-.57 2.39-1.152.682-.484 2.208 6.183 2.039 6.923-.862 3.755-5.51 2.843-8.288 1.831-5.326-1.938-3.166-4.183-1.718-8.293.41-1.162 2.148-9.397-.438-10.516-3.526-1.526-4.55-.055-4.421 2.217.064 1.136.39 2.472.619 3.737.294 1.63.425 3.142-.375 3.956-2.598 2.647-6.847 5.504-15.62 2.393" fill="url(#p)" transform="translate(5.88 104.25)"/><path d="M19.416 187.979c.196-9.687 1.093-16.027 2.692-19.022 1.6-2.994 1.6 3.71 0 20.113l-2.692-1.091z" fill="#DB6471"/><path d="M135.47 113.514l-10.984 3.788s.171 1.554 0 2.238c.04-.158 1.135-.505 1.284-.572 1.013-.451 2.024-.907 3.036-1.36 1.853-.827 3.713-1.64 5.561-2.477.59-.267 1.818-.53 1.962-1.229.126-.61-.326-.572-.86-.388M112.24 120.945s.223 3.54 1.115 3.085c.151-.078.47-.237.893-.448v-.004l1.479-.737 4.613-2.302c-.02-.796-.02-1.559.02-2.257l-.003-.01-8.117 2.673z" fill="#1D274A"/></g><g opacity=".313"><path d="M163.39 74.864H6.72c-3.512 0-6.36-2.704-6.36-6.038s2.848-6.038 6.36-6.038h156.67c3.512 0 6.36 2.703 6.36 6.038s-2.848 6.038-6.36 6.038" fill="url(#a)" transform="translate(517.82 28.424)"/><path d="M163.39 74.864H6.72c-3.512 0-6.36-2.704-6.36-6.038s2.848-6.038 6.36-6.038h156.67c3.512 0 6.36 2.703 6.36 6.038s-2.848 6.038-6.36 6.038" fill="url(#a)" transform="translate(517.82 28.424)"/><path d="M125.21 69.55H35.766c-3.933 0-7.123-3.028-7.123-6.763h103.69c0 3.735-3.189 6.763-7.122 6.763" fill="url(#a)" transform="translate(517.82 28.424)"/><path d="M48.641 63.771H36.876c-2.348 0-4.25-1.808-4.25-4.037V5.167c0-2.23 1.902-4.036 4.25-4.036h11.765c2.348 0 4.252 1.807 4.252 4.036v54.567c0 2.23-1.904 4.037-4.252 4.037M102.52 63.771H90.755c-2.348 0-4.25-1.808-4.25-4.037V5.167c0-2.23 1.902-4.036 4.25-4.036h11.765c2.348 0 4.252 1.807 4.252 4.036v54.567c0 2.23-1.904 4.037-4.252 4.037M122.79 63.771h-11.765c-2.348 0-4.25-1.808-4.25-4.037V5.167c0-2.23 1.902-4.036 4.25-4.036h11.765c2.348 0 4.252 1.807 4.252 4.036v54.567c0 2.23-1.904 4.037-4.252 4.037" fill="url(#a)" transform="translate(517.82 28.424)"/><path d="M80.879 62.049l-11.534 2.208c-2.302.44-4.543-.974-5.008-3.158L52.978 7.61c-.465-2.185 1.026-4.314 3.326-4.754L67.837.646c2.302-.441 4.543.973 5.008 3.159l11.36 53.49c.464 2.185-1.026 4.313-3.326 4.754M47.645 63.771h-9.59a291.342 291.342 0 010-62.639h9.59a325.968 325.968 0 010 62.639" fill="url(#a)" transform="translate(517.82 28.424)"/><path d="M557.442 29.556v62.639M560.579 29.556v62.639M563.655 29.764v62.43" stroke="#E7E7E7" stroke-width=".645"/><path d="M68.274 10.79c0-2.372-2.025-4.295-4.524-4.295s-4.524 1.923-4.524 4.295 2.026 4.295 4.524 4.295 4.524-1.923 4.524-4.295M55.648 20.18l19.82-4.022 1.352 6.36-19.864 3.823zM59.584 38.814l19.82-4.022 1.352 6.358-19.863 3.824zM91.498 63.772h3.739V1.132h-3.739zM116.91 53.8c-2.066 0-3.74 1.59-3.74 3.55 0 1.962 1.674 3.552 3.74 3.552 2.066 0 3.74-1.59 3.74-3.552 0-1.96-1.674-3.55-3.74-3.55M106.77 50.708h20.27V48.99h-20.27zM106.77 47.473h20.27v-3.351h-20.27zM106.77 42.604h20.27v-9.735h-20.27z" fill="url(#a)" transform="translate(517.82 28.424)"/></g></g></svg>