<?xml version="1.0" encoding="UTF-8"?>
<svg width="607px" height="376px" viewBox="0 0 607 376" version="1.1" xmlns="http://www.w3.org/2000/svg" xmlns:xlink="http://www.w3.org/1999/xlink">
    <!-- Generator: Sketch 61 (89581) - https://sketch.com -->
    <title>Group 4</title>
    <desc>Created with Sketch.</desc>
    <defs>
        <linearGradient x1="81.6703025%" y1="12.200117%" x2="4.96088944%" y2="100%" id="linearGradient-1">
            <stop stop-color="#A75BFF" offset="0%"></stop>
            <stop stop-color="#E2CBFF" stop-opacity="0" offset="100%"></stop>
        </linearGradient>
        <linearGradient x1="43.8549984%" y1="4.1686586%" x2="77.9386448%" y2="94.7906194%" id="linearGradient-2">
            <stop stop-color="#72D0FF" offset="0%"></stop>
            <stop stop-color="#3470FA" stop-opacity="0" offset="100%"></stop>
        </linearGradient>
        <linearGradient x1="50%" y1="0%" x2="34.2665903%" y2="100%" id="linearGradient-3">
            <stop stop-color="#C5B8FF" offset="0%"></stop>
            <stop stop-color="#9382FF" stop-opacity="0" offset="100%"></stop>
        </linearGradient>
        <polygon id="path-4" points="0 0.164496542 361.814206 0.164496542 361.814206 246.579777 0 246.579777"></polygon>
        <linearGradient x1="47.1763504%" y1="-83.107765%" x2="46.9856159%" y2="142.674202%" id="linearGradient-6">
            <stop stop-color="#FFF886" offset="0%"></stop>
            <stop stop-color="#FFF886" offset="21.3019304%"></stop>
            <stop stop-color="#F072B6" offset="100%"></stop>
        </linearGradient>
        <path d="M9.01156952,42.9228977 C4.02417416,42.9348248 -0.0102520619,48.2274851 -1.96033498e-05,54.7426753 L0.0159973874,65 L361,64.0294305 L360.984022,53.7721058 C360.973751,47.2569155 356.923346,41.9866186 351.935951,41.9999602 L9.01156952,42.9228977 Z" id="path-7"></path>
        <filter x="-1.9%" y="-21.7%" width="103.9%" height="160.9%" filterUnits="objectBoundingBox" id="filter-8">
            <feOffset dx="0" dy="2" in="SourceAlpha" result="shadowOffsetOuter1"></feOffset>
            <feGaussianBlur stdDeviation="2" in="shadowOffsetOuter1" result="shadowBlurOuter1"></feGaussianBlur>
            <feColorMatrix values="0 0 0 0 0   0 0 0 0 0   0 0 0 0 0  0 0 0 0.0696022727 0" type="matrix" in="shadowBlurOuter1"></feColorMatrix>
        </filter>
        <linearGradient x1="0%" y1="49.7488995%" x2="100%" y2="50.2511005%" id="linearGradient-9">
            <stop stop-color="#ABDCFF" offset="0%"></stop>
            <stop stop-color="#0396FF" offset="100%"></stop>
        </linearGradient>
        <linearGradient x1="-10.9336918%" y1="50.2289558%" x2="95.6227353%" y2="49.9688829%" id="linearGradient-10">
            <stop stop-color="#F9FBFE" offset="0%"></stop>
            <stop stop-color="#C2D7F3" offset="100%"></stop>
        </linearGradient>
        <linearGradient x1="102.247035%" y1="50%" x2="0%" y2="50%" id="linearGradient-11">
            <stop stop-color="#907CFF" offset="0%"></stop>
            <stop stop-color="#6EACFF" offset="100%"></stop>
        </linearGradient>
        <linearGradient x1="64.7292007%" y1="34.8871331%" x2="50%" y2="68.2459536%" id="linearGradient-12">
            <stop stop-color="#FFA2AE" offset="0%"></stop>
            <stop stop-color="#FF8DE5" offset="100%"></stop>
        </linearGradient>
    </defs>
    <g id="Page-1" stroke="none" stroke-width="1" fill="none" fill-rule="evenodd">
        <g id="Updates-Page-Design-of-weCare" transform="translate(-1058.000000, -152.000000)">
            <g id="Group-2" transform="translate(575.000000, -1117.407486)">
                <g id="Group-4" transform="translate(483.000000, 1269.803703)">
                    <path d="M102.071429,55.3180682 L99.7142857,55.3180682 L99.7142857,49.0323539 C99.7142857,47.3037824 98.3,45.8894967 96.5714286,45.8894967 L90.2857143,45.8894967 L90.2857143,43.5323539 C90.2857143,41.3323539 88.5571429,39.6037824 86.3571429,39.6037824 C84.1571429,39.6037824 82.4285714,41.3323539 82.4285714,43.5323539 L82.4285714,45.8894967 L76.1428571,45.8894967 C74.4142857,45.8894967 73,47.3037824 73,49.0323539 L73,55.0037824 L75.3571429,55.0037824 C77.7142857,55.0037824 79.6,56.8894967 79.6,59.2466396 C79.6,61.6037824 77.7142857,63.4894967 75.3571429,63.4894967 L73,63.4894967 L73,69.4609253 C73,71.1894967 74.4142857,72.6037824 76.1428571,72.6037824 L82.1142857,72.6037824 L82.1142857,70.2466396 C82.1142857,67.8894967 84,66.0037824 86.3571429,66.0037824 C88.7142857,66.0037824 90.6,67.8894967 90.6,70.2466396 L90.6,72.6037824 L96.5714286,72.6037824 C98.3,72.6037824 99.7142857,71.1894967 99.7142857,69.4609253 L99.7142857,63.175211 L102.071429,63.175211 C104.271429,63.175211 106,61.4466396 106,59.2466396 C106,57.0466396 104.271429,55.3180682 102.071429,55.3180682 Z" id="Path" fill="#8774FF" fill-rule="nonzero"></path>
                    <path d="M585.690476,267.841878 L575.904762,267.841878 L575.904762,241.74664 C575.904762,234.570449 570.033333,228.699021 562.857143,228.699021 L536.761905,228.699021 L536.761905,218.913306 C536.761905,209.779973 529.585714,202.603782 520.452381,202.603782 C511.319048,202.603782 504.142857,209.779973 504.142857,218.913306 L504.142857,228.699021 L478.047619,228.699021 C470.871429,228.699021 465,234.570449 465,241.74664 L465,266.537116 L474.785714,266.537116 C484.571429,266.537116 492.4,274.365687 492.4,284.151401 C492.4,293.937116 484.571429,301.765687 474.785714,301.765687 L465,301.765687 L465,326.556163 C465,333.732354 470.871429,339.603782 478.047619,339.603782 L502.838095,339.603782 L502.838095,329.818068 C502.838095,320.032354 510.666667,312.203782 520.452381,312.203782 C530.238095,312.203782 538.066667,320.032354 538.066667,329.818068 L538.066667,339.603782 L562.857143,339.603782 C570.033333,339.603782 575.904762,333.732354 575.904762,326.556163 L575.904762,300.460925 L585.690476,300.460925 C594.82381,300.460925 602,293.284735 602,284.151401 C602,275.018068 594.82381,267.841878 585.690476,267.841878 Z" id="Path" fill="url(#linearGradient-1)" fill-rule="nonzero"></path>
                    <path d="M213.147794,14.6041481 C213.411125,14.5969069 213.669346,14.6975203 213.857215,14.8796916 L213.857215,14.8796916 L236.715498,37.0458906 C236.903367,37.2276807 237.006734,37.4761653 236.999659,37.7337966 C236.993371,37.9914279 236.878213,38.234958 236.681697,38.4079826 C233.499326,41.2064833 228.3349,41.7945382 224.562197,41.7945382 C221.421487,41.7945382 217.863771,41.3718857 215.019407,40.6633996 L215.019407,40.6633996 L209.177003,46.3282389 C208.987955,46.5123157 208.739166,46.6037824 208.491164,46.6037824 C208.242768,46.6037824 207.994373,46.5111724 207.804932,46.3282389 L207.804932,46.3282389 L204.284161,42.9146245 C204.102188,42.7381699 204,42.4984509 204,42.249204 C204,41.9995761 204.102188,41.7602381 204.284161,41.5837836 L204.284161,41.5837836 L210.127745,35.9170387 C209.79524,34.5861979 206.62466,21.133729 212.452915,14.912086 C212.631351,14.7219115 212.882498,14.610627 213.147794,14.6041481 Z M240.321582,19.6037824 C241.037404,19.6037824 241.709795,19.8825907 242.215834,20.3886335 C243.261259,21.4325164 243.261259,23.1317344 242.216609,24.1767806 L242.216609,24.1767806 L235.070025,31.3230353 C234.88312,31.5103293 234.637662,31.6037824 234.39298,31.6037824 C234.147522,31.6037824 233.902452,31.5099416 233.715935,31.3230353 L233.715935,31.3230353 L231.280745,28.8886012 C231.10082,28.7086748 231,28.4655416 231,28.2115508 C231,27.95756 231.10082,27.714039 231.280745,27.5345005 L231.280745,27.5345005 L238.426942,20.3882457 C238.932593,19.8822029 239.605372,19.6037824 240.321582,19.6037824 Z M228.321269,8.60378244 C229.037097,8.60378244 229.709494,8.88182413 230.215537,9.38788327 C230.721192,9.89355462 231,10.566749 231,11.2825997 C231,11.9980626 230.72158,12.6708692 230.215537,13.1769283 L230.215537,13.1769283 L223.06967,20.3230263 C222.882764,20.5103263 222.637691,20.6037824 222.392619,20.6037824 C222.147547,20.6037824 221.902475,20.5103263 221.715569,20.323414 L221.715569,20.323414 L219.280359,17.8885134 C218.906547,17.5143011 218.906547,16.9081935 219.280359,16.534369 L219.280359,16.534369 L226.426226,9.38788327 C226.932657,8.88221191 227.60583,8.60378244 228.321269,8.60378244 Z" id="Combined-Shape" fill="#8774FF" fill-rule="nonzero"></path>
                    <path d="M152.521248,235.60935 C152.279302,233.458644 149.771601,231.842484 147.603195,231.842484 C140.59245,231.842484 134.371303,227.726085 131.76227,221.359928 C129.096878,214.839499 130.815549,207.235177 136.040447,202.442485 C137.685111,200.93904 137.88493,198.422293 136.505553,196.674062 C132.91735,192.117617 128.838992,188.001788 124.386045,184.434736 C122.642325,183.035468 120.083958,183.230159 118.571937,184.904385 C114.011964,189.954387 105.821092,191.831274 99.491781,189.190426 C92.9051536,186.419784 88.7516503,179.745651 89.1581198,172.581376 C89.2919017,170.331048 87.6472374,168.374464 85.4036852,168.113168 C79.6892024,167.452245 73.9246225,167.431751 68.1930612,168.067627 C65.9751268,168.312413 64.3304625,170.222886 64.4050388,172.444751 C64.6543856,179.538437 60.4507852,186.095869 53.9296256,188.766888 C47.6760299,191.321207 39.5426551,189.46026 34.9917909,184.45523 C33.4877399,182.806621 30.9709309,182.603961 29.2186717,183.969642 C24.6336504,187.566865 20.4636378,191.68611 16.8424159,196.204983 C15.4300198,197.961753 15.6378088,200.508102 17.2989825,202.019516 C22.623505,206.841241 24.3427457,214.511598 21.5765899,221.107172 C18.9356768,227.395339 12.4059779,231.447979 4.93069662,231.447979 C2.50497325,231.369989 0.77719328,232.998104 0.511906472,235.20346 C-0.160988394,240.950819 -0.168958384,246.80691 0.478887942,252.60095 C0.719126211,254.760764 3.30311081,256.362692 5.49542733,256.362692 C12.1572004,256.19248 18.5531173,260.316848 21.2361575,266.845817 C23.9106584,273.366247 22.1914177,280.966014 16.95855,285.762691 C15.3218557,287.266136 15.1140666,289.778898 16.4934442,291.527129 C20.0480597,296.054541 24.1269867,300.174355 28.5958739,303.771009 C30.3487024,305.18337 32.8990992,304.984126 34.4185209,303.3099 C38.9955723,298.247373 47.1858755,296.373902 53.4901376,299.019874 C60.0932742,301.781976 64.2467776,308.45554 63.8403081,315.6238 C63.7076647,317.875267 65.360299,319.835267 67.5947426,320.092577 C70.5180211,320.43357 73.4589474,320.603782 76.4078437,320.603782 C79.207018,320.603782 82.0067616,320.450079 84.805936,320.138688 C87.0244396,319.893902 88.6679654,317.983428 88.593389,315.757579 C88.3366415,308.667878 92.5476426,302.110446 99.060263,299.443981 C105.355986,296.872584 113.455203,298.754593 118.006637,303.7545 C119.519227,305.399693 122.018388,305.598369 123.780325,304.237242 C128.356808,300.648558 132.518281,296.532729 136.156581,292.001332 C137.568408,290.248547 137.369158,287.698213 135.699445,286.187368 C130.374923,281.365642 128.647143,273.694147 131.413299,267.103128 C134.013793,260.898643 140.300976,256.732718 147.063513,256.732718 L148.009664,256.757197 C150.203119,256.935379 152.221235,255.245783 152.487091,253.00684 C153.161124,247.254357 153.169094,241.40339 152.521248,235.60935 Z M77.5002844,270.603782 C63.4382634,270.603782 52,259.165647 52,245.103782 C52,231.042487 63.4382634,219.603782 77.5002844,219.603782 C91.5617366,219.603782 103,231.042487 103,245.103782 C103,259.165647 91.5617366,270.603782 77.5002844,270.603782 Z" id="Shape" fill="url(#linearGradient-2)" fill-rule="nonzero" opacity="0.52406529"></path>
                    <path d="M607,179.642932 C607,182.38271 604.714315,184.603782 601.895896,184.603782 L586.103198,184.603782 C583.284839,184.603782 581,182.38271 581,179.642932 C581,177.168484 582.863391,175.118622 585.301285,174.743545 C585.270396,174.569885 585.25335,174.39121 585.25335,174.207287 C585.25335,172.47133 586.701216,171.064266 588.487716,171.064266 C589.28443,171.064266 590.014529,171.344291 590.577789,171.810222 C591.581963,169.6109 592.869277,167.603782 596.480723,167.603782 C600.860591,167.603782 602.936459,170.887049 602.936459,174.351615 C602.936459,174.496525 602.930172,174.640095 602.920078,174.782149 C605.248077,175.243239 607,177.244117 607,179.642932 Z" id="MobileMe" fill="#8774FF" fill-rule="nonzero"></path>
                    <path d="M493.831839,176.603782 L493.831839,179.603782 C493.831839,182.917657 490.92187,185.603782 487.331839,185.603782 L487.331839,185.603782 L474.331839,185.603782 C470.741807,185.603782 467.831839,182.917657 467.831839,179.603782 L467.831839,179.603782 L467.831839,176.603782 L493.831839,176.603782 Z M493.831839,162.603782 L493.831839,169.603782 L467.831839,169.603782 L467.831839,162.603782 L493.831839,162.603782 Z M528.831839,143.603782 L528.831839,166.603782 L521.831839,166.603782 L521.831839,143.603782 L528.831839,143.603782 Z M473.778537,17.9070529 C476.699027,17.6090263 479.637872,17.5307446 482.569933,17.6718105 L482.569933,17.6718105 L480.75994,19.0228645 C479.349374,20.0762892 479.06367,22.0686964 480.121494,23.4733952 L480.121494,23.4733952 L487.639191,33.4616576 C488.432459,34.4840876 488.508674,35.888389 487.830725,36.9902927 C487.177914,38.0989517 485.915787,38.703747 484.638497,38.5193679 L484.638497,38.5193679 L472.22073,36.7518714 L472.22073,36.7518714 C470.471788,36.5039132 468.855324,37.7127092 468.607128,39.4508003 L468.607128,39.4508003 L465.896926,58.3305873 L465.896926,58.3305873 C465.647933,60.0722548 466.861777,61.6819959 468.607128,61.9291593 L468.607128,61.9291593 L481.024895,63.6966557 C481.863652,63.815469 482.62021,64.2617142 483.128573,64.9364464 C484.186397,66.3411452 483.900693,68.3335524 482.490127,69.3869771 L482.490127,69.3869771 L472.456955,76.8797634 C471.046389,77.9331881 470.760685,79.9255953 471.818509,81.3302941 L471.818509,81.3302941 L483.31053,96.5892564 L483.431868,96.7407132 C484.515747,98.0131951 486.421326,98.2394555 487.779649,97.2250465 L487.779649,97.2250465 L497.816014,89.7322602 C498.491569,89.2291913 499.339903,89.0130227 500.17507,89.1306439 C501.92082,89.3766151 503.135462,90.9851641 502.888464,92.7236526 L502.888464,92.7236526 L501.116777,105.08977 C501.116777,105.090167 501.116777,105.090167 501.116777,105.090565 L501.096073,105.269862 C500.950797,106.938109 502.13862,108.447783 503.823786,108.688342 L503.823786,108.688342 L522.78562,111.387271 C522.934857,111.406345 523.085291,111.415882 523.235725,111.415882 C523.799951,111.403563 524.35061,111.242231 524.831839,110.948576 C521.037477,115.575538 516.543219,119.586579 511.510671,122.837851 C506.081091,126.214691 502.749203,132.110054 502.6682,138.484645 L502.6682,138.484645 L502.6682,151.066931 C502.6682,156.334055 498.380639,160.603782 493.091516,160.603782 L493.091516,160.603782 L467.553693,160.603782 C462.26457,160.603782 457.977009,156.334055 457.977009,151.066931 L457.977009,151.066931 L457.977009,138.220792 C457.900395,131.992433 454.635544,126.234559 449.319687,122.952293 C434.759536,113.671347 425.169285,98.3551634 423.20806,81.250423 C419.608025,49.851929 442.248902,21.4921143 473.778537,17.9070529 Z M540.000705,135.354091 L559.145847,151.282959 L555.0612,156.17902 L535.916058,140.250153 L540.000705,135.354091 Z M483.514832,141.53008 L477.130376,141.53008 L477.130376,151.066931 L483.514832,151.066931 L483.514832,141.53008 Z M421.075809,82.6037824 C421.586719,86.2855978 422.433976,89.9130868 423.606792,93.4403114 C414.020534,94.6454798 406.825048,102.789654 406.810268,112.451373 C406.789096,119.637644 410.799682,126.228721 417.191853,129.512276 C426.583174,134.336145 438.106817,130.633957 442.931105,121.242671 C444.67555,122.673934 446.499088,124.006529 448.392532,125.234068 C451.409659,127.139088 453.68259,130.021187 454.831839,133.399014 L454.831839,133.399014 L447.977092,140.253733 L441.339653,135.690311 C440.642594,135.210161 439.857254,134.873018 439.029172,134.698854 C435.575035,133.971838 432.185611,136.182845 431.458592,139.636968 L431.458592,139.636968 L429.784053,147.603782 L422.187908,147.603782 L420.513368,139.624186 C420.339204,138.796107 420.002059,138.01077 419.521907,137.313714 C417.519011,134.407249 413.538784,133.67464 410.632308,135.677529 L410.632308,135.677529 L403.991673,140.253733 L398.169133,134.443999 L402.74216,127.825759 C403.22351,127.128303 403.561454,126.342167 403.736018,125.51289 C404.463436,122.058766 402.25282,118.668956 398.798683,117.941541 L398.798683,117.941541 L390.831839,116.263812 L390.831839,108.670892 L398.798683,106.993163 C399.626765,106.818999 400.412105,106.481855 401.109164,106.001705 C404.01564,103.998817 404.748251,100.018605 402.745355,97.1121404 L402.745355,97.1121404 L398.169133,90.458748 L403.991673,84.6490135 L410.638699,89.2124353 C411.334959,89.6917864 412.1195,90.028131 412.946783,90.2018958 C416.40092,90.9281126 419.790345,88.7167065 420.516564,85.2625828 L420.516564,85.2625828 Z M456.505392,37.1142717 C448.417483,42.1854925 442.175081,49.7049025 438.694755,58.5690086 C429.706239,81.4610284 441.054609,107.274504 464.042242,116.225634 C471.923853,119.232921 477.128381,126.767033 477.130376,135.172179 L477.130376,135.172179 L483.514839,135.172179 C483.522813,124.14122 476.693041,114.250313 466.34703,110.309607 C458.712817,107.337685 452.236984,102.005393 447.871612,95.0967392 C436.604245,77.2648138 441.985942,53.7135591 459.892346,42.493056 L459.892346,42.493056 Z M563.831839,118.603782 L563.831839,125.603782 L540.831839,125.603782 L540.831839,118.603782 L563.831839,118.603782 Z M529.094006,93.2577445 C530.539814,92.1746149 532.59053,92.4671538 533.674783,93.9114628 L533.674783,93.9114628 L533.831839,94.1206527 C531.862104,99.3009619 529.168853,104.177292 525.831839,108.603782 C525.900959,108.449341 525.958219,108.289998 526.001982,108.126568 L526.001982,108.126568 L527.817933,95.4117464 C527.940223,94.5529239 528.399528,93.7782677 529.094006,93.2577445 Z M521.798169,6.60378244 L534.486853,8.41462004 L533.159973,17.7091847 C532.803014,20.230736 533.461245,22.7911482 534.98964,24.8279399 C538.176635,29.0749951 544.203679,29.9347423 548.451135,26.7473476 L548.451135,26.7473476 L555.960502,21.1161234 L563.652556,31.3721948 L556.143188,37.006624 C554.102791,38.5362209 552.753877,40.8137899 552.392912,43.3381456 C551.641334,48.5947828 555.293457,53.466016 560.550094,54.2175938 L560.550094,54.2175938 L569.831839,55.544473 L568.021001,68.2331563 L558.726436,66.9062771 C556.206087,66.5493177 553.646877,67.2063473 551.610085,68.7335404 C547.361427,71.918932 546.499677,77.9455758 549.685068,82.1942335 L549.685068,82.1942335 L555.335523,89.7164208 L545.079451,97.4084743 L539.445022,89.9023121 C537.915425,87.8619148 535.637856,86.513001 533.113501,86.1520354 C527.856863,85.4004576 522.986031,89.0525806 522.234052,94.3092178 L522.234052,94.3092178 L520.907173,103.603782 L508.189645,101.78333 L509.516524,92.4887651 C509.878291,89.9632075 509.221261,87.3971865 507.690062,85.355988 C504.503068,81.1081315 498.476424,80.2479837 494.228567,83.4345771 L494.228567,83.4345771 L486.7192,89.0658013 L479.027147,78.8097299 L486.533309,73.1753007 C488.573706,71.6457038 489.92262,69.3681348 490.283586,66.8437791 C491.035163,61.5871419 487.38304,56.7163093 482.126403,55.9643309 L482.126403,55.9643309 L472.831839,54.6374517 L474.652291,41.9455634 L483.946856,43.2724426 C486.472814,43.6342095 489.038434,42.9771799 491.079633,41.4459805 C495.327489,38.2589865 496.187637,32.2323427 493.001044,27.9844862 L493.001044,27.9844862 L487.36982,20.475119 L497.625891,12.7830654 L503.26032,20.3052528 C504.789917,22.3456501 507.067486,23.6945639 509.591842,24.0555295 C514.848479,24.8071072 519.719312,21.1549843 520.47129,15.8983471 L520.47129,15.8983471 L521.798169,6.60378244 Z M521.343056,35.862431 C510.722413,35.862431 502.112922,44.4719222 502.112922,55.0925649 C502.112922,65.7132075 510.722413,74.3226987 521.343056,74.3226987 C531.958491,74.3102792 540.56077,65.7079994 540.57319,55.0925649 C540.57319,44.4719222 531.963699,35.862431 521.343056,35.862431 Z M412.746759,48.6816911 L414.293442,54.8606507 L388.770158,61.2321424 L387.223476,55.0531829 L412.746759,48.6816911 Z M396.23027,17.3225862 L418.56293,33.2524145 L414.855994,38.4351991 L392.523334,22.5053708 L396.23027,17.3225862 Z M426.043302,9.17044218e-14 L432.568971,25.4883936 L426.386802,27.0668844 L419.861134,1.57849079 L426.043302,9.17044218e-14 Z" id="Combined-Shape" fill="url(#linearGradient-3)" fill-rule="nonzero" opacity="0.453404018"></path>
                    <g id="Group-137" transform="translate(122.000000, 55.603782)">
                        <g id="Group-3" transform="translate(0.000000, 42.000000)">
                            <mask id="mask-5" fill="white">
                                <use xlink:href="#path-4"></use>
                            </mask>
                            <g id="Clip-2"></g>
                            <path d="M353.504227,245.866327 L8.81492911,246.579777 C4.21661266,246.590095 0.480910127,242.858672 0.47174557,238.24609 L-0.000246012408,9.24607163 C-0.00939367089,4.63349023 3.71027089,0.887132093 8.30973291,0.877941395 L352.99903,0.164496542 C357.597347,0.155322791 361.333049,3.88559721 361.342214,8.4981786 L361.814206,237.499346 C361.823353,242.10963 358.103689,245.857137 353.504227,245.866327" id="Fill-1" fill="#FFFFFF" mask="url(#mask-5)"></path>
                        </g>
                        <path d="M55,288.891902 L54.5781941,65 L0,65.1253245 L0.405385233,279.932928 C0.414621858,284.951655 4.0569312,289.010328 8.54182605,289.000193 L55,288.891902 Z" id="Fill-6" fill="url(#linearGradient-6)"></path>
                        <g id="Fill-4">
                            <use fill="black" fill-opacity="1" filter="url(#filter-8)" xlink:href="#path-7"></use>
                            <use fill="#FFFFFF" fill-rule="evenodd" xlink:href="#path-7"></use>
                        </g>
                        <path d="M42.5942866,258.917017 L12.416094,259 C11.0847795,259.004663 10.0034649,257.549743 10.0008697,255.751251 L10,255.346912 C9.99740953,253.54842 11.0743989,252.087657 12.4057134,252.082983 L42.583906,252 C43.9152205,251.995337 44.9965351,253.450257 44.9991303,255.248749 L45,255.653088 C45.0025905,257.45158 43.9256011,258.912343 42.5942866,258.917017" id="Fill-11" fill="#FFFFFF"></path>
                        <path d="M40.5382037,120.929793 L14.5335912,121 C12.0645495,121.006891 10.058672,118.382102 10.0534187,115.135924 L10,80.9595812 C9.99475706,77.713404 11.9918791,75.0771076 14.4609208,75.0702033 L40.4655333,75 C42.934575,74.9942558 44.9404525,77.619045 44.9457058,80.8640715 L45,115.041565 C45.0052429,118.286592 43.0072454,120.922888 40.5382037,120.929793" id="Fill-13" fill="#FFFFFF"></path>
                        <path d="M189.834272,217.757545 L71.1829321,218 C68.8781988,218.004523 67.0045997,216.162382 67,213.885196 L67,213.374245 C66.99428,211.095926 68.8598527,209.245854 71.164586,209.241322 L189.815926,209 C192.121806,208.995477 193.993112,210.837618 194,213.113671 L194,213.626888 C194.004578,215.902941 192.139005,217.753013 189.834272,217.757545" id="Fill-15" fill="url(#linearGradient-9)"></path>
                        <path d="M185.840042,85.8074603 L92.1782794,86 C89.8761071,86.0045486 88.0057352,84.152147 88.0011538,81.8622778 L88,81.3473421 C87.995427,79.0574729 89.8577813,77.1970966 92.1599537,77.1925397 L185.821716,77 C188.125034,76.9954514 189.99426,78.847853 190,81.1377222 L190,81.6526579 C190.005714,83.9425271 188.142214,85.8029034 185.840042,85.8074603" id="Fill-17" fill="#C8DBFB"></path>
                        <path d="M334.84678,177.745467 L210.171521,178 C207.873075,178.004517 206.005731,176.165153 206,173.890271 L206,173.380091 C205.994296,171.106339 207.854779,169.259058 210.153225,169.254533 L334.828484,169 C337.12693,168.995483 338.994274,170.834847 339,173.108598 L339,173.619909 C339.004566,175.893661 337.145226,177.740942 334.84678,177.745467" id="Fill-19" fill="url(#linearGradient-10)"></path>
                        <path d="M189.835377,235.757545 L71.1818231,236 C68.8770691,236.004523 67.0045998,234.162383 67,231.884065 L67,231.373114 C66.99428,229.095929 68.8598694,227.245858 71.1646234,227.240194 L189.81703,227 C192.121784,226.994348 193.994254,228.837622 194,231.113674 L194,231.625757 C194.00572,233.902942 192.140131,235.753013 189.835377,235.757545" id="Fill-21" fill="url(#linearGradient-9)"></path>
                        <path d="M189.835419,254.758673 L71.1829276,255 C68.8781942,255.005652 67.0057416,253.162378 67,250.885193 L67,250.374243 C66.9954219,248.095925 68.859848,246.245854 71.1645814,246.241322 L189.817072,246 C192.121806,245.995477 193.994258,247.837617 194,250.114802 L194,250.626886 C194.004578,252.902938 192.140152,254.753009 189.835419,254.758673" id="Fill-23" fill="url(#linearGradient-9)"></path>
                        <path d="M332.144438,266.754929 L212.98925,267 C209.195845,267.007963 206.114275,263.946486 206.106277,260.162381 L206,209.112304 C205.992017,205.32706 209.061019,202.254185 212.855567,202.246206 L332.010754,202 C335.804159,201.993173 338.885729,205.05465 338.893727,208.838754 L339,259.888831 C339.006844,263.672936 335.937842,266.746951 332.144438,266.754929" id="Fill-25" fill="url(#linearGradient-11)"></path>
                        <path d="M20,50.9941154 C20.0035238,52.6512319 18.6630012,53.9964623 17.0058846,54 C15.3487681,54.0035238 14.0035377,52.6630012 14,51.0058846 C13.9964762,49.349945 15.3369988,48.0035377 16.9941154,48 C18.6512319,47.9964762 19.9964623,49.3369988 20,50.9941154" id="Fill-27" fill="#FF2C5D"></path>
                        <path d="M29,50.9941154 C29.0035238,52.6512319 27.6630012,53.9964623 26.0070616,54 C24.3487681,54.0035238 23.0035377,52.6630012 23,51.0070616 C22.9964762,49.349945 24.3369988,48.0035377 25.9941154,48 C27.6512319,47.9964762 28.9964623,49.3369988 29,50.9941154" id="Fill-29" fill="#FFBD0D"></path>
                        <path d="M38,50.9929384 C38.0035238,52.650055 36.6630012,53.9964623 35.0058846,54 C33.3487681,54.0035238 32.0035377,52.6618243 32,51.0058847 C31.9964762,49.3487681 33.3369988,48.0023608 34.9941154,48 C36.6512319,47.9964762 37.9964623,49.3358218 38,50.9929384" id="Fill-31" fill="#1BBC9C"></path>
                        <path d="M79,80.98779 C79.0065006,84.3007668 76.3258201,86.9926622 73.0126194,87 C69.6986047,87.0065002 67.0065274,84.3260008 67,81.01221 C66.9926885,77.6984192 69.673369,75.0073378 72.9873837,75 C76.3013984,74.9934998 78.9934757,77.6739992 79,80.98779" id="Fill-33" fill="#C8DBFB"></path>
                        <path d="M41.7992701,127.932636 L13.2059847,128 C12.5412486,128.002006 12.0017527,127.384716 12.0008769,126.622654 L12,126.450737 C11.9991253,125.688676 12.5359938,125.068369 13.2007299,125.067364 L41.7940153,125 C42.4578756,124.997994 42.9982473,125.615284 42.9991231,126.377346 L43,126.549263 C43.0008747,127.311324 42.4631304,127.930625 41.7992701,127.932636" id="Fill-35" fill="#FFFFFF"></path>
                        <path d="M41.7992363,134.932636 L13.205146,135 C12.5412671,135.002006 12.0017559,134.38572 12,133.622652 L12,133.450736 C11.9982526,132.688673 12.5351363,132.069371 13.1998911,132.06736 L41.7939813,132 C42.4578603,131.998996 42.9982473,132.615281 42.9991231,133.37835 L43,133.549261 C43.0008748,134.311324 42.4631153,134.931631 41.7992363,134.932636" id="Fill-37" fill="#FFFFFF"></path>
                        <path d="M93.0000806,145.428563 L82.2731547,145.535427 L82.3521573,189.980456 L73.0972357,190 C69.8314078,190.005736 67.1778501,187.392742 67.1708793,184.161546 L67,106.974035 C66.9931234,103.708367 69.6629464,101.057454 72.9636284,101.050559 L92.8827385,101 L93.0000806,145.428563 Z" id="Fill-39" fill="#C8DBFB"></path>
                        <path d="M161.95467,101 L74.8522879,101.180156 C71.0600629,101.188188 67.993158,104.282966 67.9999208,108.093777 L68.1644935,183.116214 C68.1724892,186.92014 71.2451052,190 75.031619,190 L75.0453258,190 L162.147708,189.819844 C165.939933,189.811812 169.00798,186.717034 169.000107,182.906223 L168.835502,107.883786 C168.827507,104.078713 165.754891,101 161.969519,101 L161.95467,101 Z M161.969519,102.147489 C165.119807,102.147489 167.686412,104.722454 167.693266,107.886081 L167.857863,182.908518 C167.861175,184.445006 167.268354,185.890842 166.188941,186.978662 C165.110669,188.066481 163.674878,188.668913 162.145424,188.672355 L75.031619,188.852511 C71.8813309,188.852511 69.3135834,186.277546 69.30673,183.112771 L69.1421332,108.090334 C69.1388212,106.554994 69.7316419,105.109158 70.8110553,104.021338 C71.8904688,102.932371 73.32626,102.331087 74.8545724,102.327645 L161.958097,102.147489 L161.969519,101 L161.969519,102.147489 Z" id="Fill-41" fill="#C8DBFB"></path>
                        <path d="M307.547712,161.829243 L191.355256,135.523613 C187.65542,134.686007 185.334312,131.002601 186.170459,127.297454 L199.241539,69.364192 C200.077686,65.6590447 203.753535,63.3338874 207.453371,64.170349 L323.645827,90.4771236 C327.345663,91.3147294 329.665629,94.9969913 328.829482,98.7032829 L315.759544,156.6354 C314.923397,160.341692 311.246406,162.666849 307.547712,161.829243" id="Fill-43" fill="url(#linearGradient-12)"></path>
                        <polygon id="Fill-45" fill="#0056EC" points="82.1280061 319.966494 65.9572051 320 62 299.049681 86 299"></polygon>
                        <path d="M66.0395525,299.029177 C66.0429272,300.688922 65.7257057,303.476484 66.8337311,303.518006 C67.9417565,303.558405 67.4827978,300.872964 68.7460592,300.944785 C69.5526117,300.990795 68.370343,309.785533 71.4188189,309.996508 C73.5145055,310.142395 73.130915,305.683866 73.3457706,302.892937 C73.4920075,301.005384 75.9161645,301.37459 75.9364127,302.623607 C75.9577858,304.021877 75.8689188,304.957798 75.9364127,306.546843 C76.0500275,309.201985 80.1424096,308.498361 79.9961727,304.94882 C79.8510608,301.400401 79.9871735,299 79.9871735,299 L66.0395525,299.029177 Z" id="Fill-47" fill="#C8DBFB"></path>
                        <path d="M62.8680666,311 C62.5326953,311 62.2100014,310.970064 61.8988322,310.90243 C60.6910347,310.646309 59.8428106,310.035388 59.3783618,309.086298 C57.7061155,305.674674 62.1085832,299.284949 62.2803025,299 L62.5096458,300.150882 C62.4704615,300.216299 58.6430805,305.710154 60.1459124,308.774739 C60.5031807,309.503188 61.1393489,309.956666 62.0901436,310.158459 C62.3529087,310.215005 62.628351,310.240506 62.9141657,310.239398 C68.8217703,310.230528 78.9209391,299.636422 79.0315771,299.51446 C79.4441644,299.036589 80.2174774,299.486741 79.9420351,299.889217 C79.4798912,300.399242 69.2182229,310.985586 62.8680666,311" id="Fill-49" fill="#0C2340"></path>
                        <path d="M234.125862,23.0324263 C210.947317,22.1497699 179.036141,39.2319687 190.356135,81 L194.7574,78.9777691 C198.615525,47.9237933 205.835617,42.5513505 218.090636,42.6632526 L246.840373,42.6050178 C253.944732,43.6475344 267.206966,49.9311801 269.144622,74.7905751 L275.956786,74.7757309 C276.514822,56.8200106 272.152516,24.4814444 234.125862,23.0324263" id="Fill-53" fill="#EF832B"></path>
                        <path d="M229.484515,24 L226,31.7336403 C226,31.7336403 226.415265,36.08879 230.647953,35.9986189 C234.8818,35.9061056 235.44786,33.9328797 235.44786,33.9328797 L236,25.0551196 L229.484515,24 Z" id="Fill-55" fill="#FFB9A3"></path>
                        <path d="M247.002089,17.6138783 C243.131008,24.5608554 241.41643,26.7223921 236.355203,27.7664465 C229.799796,29.1179806 222.449828,24.6319888 225.866552,13.5707491 C228.6526,4.55057839 232.869535,5.94112112 236.999442,6.28187292 C241.129348,6.62262473 251.183987,10.1081601 247.002089,17.6138783" id="Fill-57" fill="#FFB9A3"></path>
                        <path d="M230.693656,12.5949495 C229.654713,12.0451384 228.317786,12.5125938 227.510607,13.3755884 C226.681735,14.2629418 226.279858,15.5933918 226.634926,16.7626103 C225.033126,16.7858091 223.628839,18.3795652 223.780685,20 C222.688082,17.4075364 223.27948,14.7118382 223.062558,12.0590577 C222.846777,9.40627724 223.132201,6.52382886 224.825337,4.49161575 C225.518347,3.65877956 226.412295,3.0173333 227.361045,2.50580021 C230.961955,0.560582527 235.487639,0.495625944 239.141067,2.33644912 C239.899154,2.7169091 241.795511,3.93020528 244.441964,3.28063945 C249.485978,2.04182461 252.437263,5.5077223 249.406059,8.75323159 C250.379926,9.1104928 251.447412,9.55126961 251.888107,10.5024196 C252.002277,10.7460068 252.059362,11.0510707 251.909799,11.2714591 C251.804763,11.426891 251.622092,11.5034469 251.446271,11.5637638 C250.596848,11.8537485 249.676641,11.9291445 248.792968,11.7771925 C249.132052,12.071817 251.004434,12.185491 251.569574,13.2932328 C253.073188,16.2371579 247.113533,14.7501161 246.205884,14.4554916 C247.243686,14.6526813 249.964349,16.8588852 249.093234,18.3726056 C248.920838,18.6718699 245.246859,20.8479154 241.384501,16.2893552 C240.487127,15.2291709 239.365982,14.2501824 238.034764,13.8894414 C236.992395,13.6075762 235.89865,13.9984757 234.888249,14.3858953 C234.150713,14.6677605 232.266914,15.8323392 231.726891,15.1386957 C231.133209,14.3766158 231.897004,13.2027575 230.693656,12.5949495" id="Fill-59" fill="#0C2340"></path>
                        <path d="M269.459551,75.2183299 C268.381657,78.9333341 267.289326,79.3029084 268.598198,79.8939866 C269.905867,80.4862685 270.96331,78.4036511 270.96331,78.4036511 L277,79.6050685 C277,79.6050685 275.638196,75.6805987 274.686617,75.2074955 C273.735039,74.7343922 269.459551,75.2183299 269.459551,75.2183299" id="Fill-61" fill="#FFB9A3"></path>
                        <path d="M194.472573,80 C195.235275,81.8521032 195.446036,81.8646174 196.510325,84.0910093 C198.542254,88.3469786 193.780902,95.0750734 190.82558,87.7292316 C190.015138,85.7155814 190,82.0147879 190,82.0147879 L194.472573,80 Z" id="Fill-63" fill="#FFB9A3"></path>
                        <path d="M239.319236,2.80004909 C243.299256,3.0300088 248.203728,0.052829964 251.324333,3.87606375 C251.611192,4.22653709 252.190716,3.76169876 251.937537,3.37433348 C248.955135,-1.1584551 243.415393,2.21346739 239.319236,2.0991024 C238.89069,2.08680509 238.896496,2.77545447 239.319236,2.80004909" id="Fill-65" fill="#0C2340"></path>
                        <path d="M240.481051,0.481490448 C237.877906,0.966824968 235.368048,-0.348467355 232.75935,0.0915533768 C230.641518,0.448101341 228.745797,1.61433515 227.146596,3.10969016 C226.73569,3.49247242 227.272089,4.24372733 227.729638,3.92176094 C229.976294,2.33458589 232.124111,0.963247564 234.927157,1.18504663 C236.959475,1.34602983 238.685281,1.9899626 240.703162,1.34364489 C241.224014,1.17669936 241.001902,0.383708063 240.481051,0.481490448" id="Fill-67" fill="#0C2340"></path>
                        <path d="M225.57711,4.04338194 C223.515178,5.17980269 222.325506,6.69835322 222.081823,8.88701541 C221.906871,10.455409 221.851886,14.0629356 223.642643,14.9490337 C224.070025,15.1616972 224.518652,14.6599442 224.168748,14.3442718 C223.022814,13.3130752 222.920342,10.5329425 223.00157,9.22262504 C223.129035,7.21450534 224.075024,5.68709382 225.872029,4.49196908 C226.165698,4.2970275 225.90577,3.86173184 225.57711,4.04338194" id="Fill-69" fill="#0C2340"></path>
                        <path d="M254.951707,10.5474049 C253.907711,8.80653999 251.232471,7.26790874 249.17772,8.37250643 C248.853933,8.54635638 249.006593,9.01941749 249.362389,9.0265134 C250.261112,9.0442532 251.082274,8.93071853 251.964992,9.19090214 C252.959743,9.48420002 253.793216,10.0412295 254.395237,10.8596252 C254.630383,11.1801241 255.16223,10.8986527 254.951707,10.5474049" id="Fill-71" fill="#0C2340"></path>
                        <path d="M127,186 C139.367477,190.470731 150.109282,204.437317 147.645116,214.588573 C144.860247,226.054075 136.82401,231 136.82401,231 L134.291039,226.396123 C134.291039,226.396123 140.716763,216.510011 140.159323,211.840709 C139.266019,204.362709 129.671748,199.368575 129.671748,199.368575 L127,186 Z" id="Fill-73" fill="#0B43A4"></path>
                        <path d="M97.4659743,315.010909 C97.4659743,315.010909 89.8927298,318.2 88,320 L103,319.969697 L102.989537,315 L97.4659743,315.010909 Z" id="Fill-75" fill="#0C2340"></path>
                        <path d="M129.513348,315 C129.513348,315 131.613768,317.488394 132,319.979109 L122,320 C122.172668,318.276462 122.890605,316.626045 123.864137,315.011606 L129.513348,315 Z" id="Fill-77" fill="#0C2340"></path>
                        <path d="M130.34138,314.988565 L123.530389,315 C123.666382,306.905309 122.011799,279.312007 120.413879,258.683637 C119.473259,246.586768 118.543973,236.867193 118,234.899265 L121.64915,234.087395 L135.418459,231 C137.775674,241.863055 132.335947,291.741628 130.34138,314.988565" id="Fill-79" fill="#047F76"></path>
                        <path d="M105.006071,233.578329 C99.6370232,242.052462 98.2475085,303.279649 96,314.629364 L102.529459,315 C102.529459,315 110.029173,276.395363 126,233 L105.006071,233.578329 Z" id="Fill-81" fill="#009790"></path>
                        <path d="M105.006071,233.578329 C99.6370232,242.052462 98.2475085,303.279649 96,314.629364 L102.529459,315 C102.529459,315 110.029173,276.395363 126,233 L105.006071,233.578329 Z" id="Fill-85" fill="#009790"></path>
                        <path d="M109.803558,165.509209 C109.803558,165.509209 105.739259,181.166979 115.891653,181.14671 L115.289081,185.147578 L123,186 L121.333738,180.42491 C121.333738,180.42491 122.857432,170.578701 122.959903,168.802915 C123.150365,165.48331 113.95028,159.632337 109.803558,165.509209" id="Fill-87" fill="#FFB9A3"></path>
                        <polygon id="Fill-89" fill="#0C2340" points="84 160.994275 81.0265683 161 81 148.005725 83.9734317 148"></polygon>
                        <path d="M90.7806448,147.965445 L73.2295983,148 C72.00156,148.003446 71.0034231,146.998151 71.0011469,145.755639 L71,145.290417 C70.9965944,144.047905 71.9913168,143.038005 73.2193552,143.035702 L90.7704017,143 C91.99844,142.997701 92.9965768,144.002995 92.9988531,145.245507 L93,145.710729 C93.0034056,146.953241 92.0098213,147.963142 90.7806448,147.965445" id="Fill-91" fill="#0056EC"></path>
                        <path d="M79.6544382,164.123847 C79.5667361,161.183538 77.0161684,161.952313 78.4218039,157.155747 C79.2904146,154.189165 85.7335114,157.630949 84.9309776,159.689394 C84.1296452,161.746697 83.2057703,165 83.2057703,165 L79.6544382,164.123847 Z" id="Fill-93" fill="#FFB9A3"></path>
                        <path d="M115.673192,184.810579 C100.084113,185.843676 99.0581848,191.098396 92.0814146,190.275809 C81.7557947,189.059661 83.5617488,169.879302 84.8381546,163 L78.6711472,163.011441 C78.6711472,163.011441 67.5540642,206.706964 102.666662,198.627531 C101.318201,206.282513 110.049457,218.781494 101.583547,233.951883 C114.912609,237.572869 127.34956,238.462956 138,233.879806 C136.134572,231.367425 141.821211,205.979334 130.686972,187.702792 C128.512736,184.135577 116.814637,184.73507 115.673192,184.810579" id="Fill-95" fill="#0056EC"></path>
                        <path d="M115.673192,184.810579 C100.084113,185.843676 99.0581848,191.098396 92.0814146,190.275809 C81.7557947,189.059661 83.5617488,169.879302 84.8381546,163 L78.6711472,163.011441 C78.6711472,163.011441 67.5540642,206.706964 102.666662,198.627531 C101.318201,206.282513 110.049457,218.781494 101.583547,233.951883 C114.912609,237.572869 127.34956,238.462956 138,233.879806 C136.134572,231.367425 141.821211,205.979334 130.686972,187.702792 C128.512736,184.135577 116.814637,184.73507 115.673192,184.810579" id="Fill-97" fill="#0056EC"></path>
                        <path d="M113.12232,168.603164 C114.130577,168.86912 115.303284,169.069466 115.842004,169.954034 C116.192456,170.528124 116.168638,171.241636 116.13348,171.910627 C116.318346,171.211174 117.069151,170.706209 117.793871,170.792908 C118.519725,170.878436 119.127628,171.546256 119.141237,172.269141 C119.146908,172.608908 119.03803,172.939303 118.916676,173.257982 C118.614993,174.048821 118.228249,174.808026 117.766651,175.518023 C119.030091,175.998385 120.087116,179.814328 120.718836,181 C122.843093,180.451685 127.566815,178.565388 127.97851,170.796423 C128.171315,167.177311 127.102949,162.843515 123.302422,160.433507 C120.617897,158.731154 116.164102,158.707721 113.091698,159.518478 C110.598843,160.176924 106.623658,162.746271 108.476854,165.75263 C109.412526,167.269868 111.458526,168.163809 113.12232,168.603164" id="Fill-99" fill="#EF832B"></path>
                        <path d="M127.178493,163.23299 C128.621688,162.743342 130.451556,163.002089 131.318156,164.23201 C131.994832,165.191581 131.933419,166.450509 132.152912,167.596888 C132.257541,168.148032 132.44974,168.711939 132.869392,169.093679 C133.372066,169.548517 134.099919,169.658746 134.783418,169.694716 C136.451794,169.785219 138.141777,169.570563 139.78627,169.854837 C141.4319,170.140272 143.113922,171.088239 143.582478,172.656968 C143.841775,173.523715 143.700754,174.477483 144.011228,175.329146 C144.477509,176.605479 145.81039,177.331828 146.971543,178.074422 C149.441693,179.653594 151.539957,181.78391 153.05935,184.257675 C154.022618,185.822923 154.762981,187.561057 154.880119,189.385053 C154.996121,191.209049 156.284648,193.615517 155.94233,195.411665 C155.57158,197.34821 153.705319,199.968174 150.017152,201.17837 C143.645027,203.269235 141.626373,204.177752 135.520369,200.475226 C134.784555,200.027349 133.345909,198.509673 132.680606,197.965491 C132.158599,197.53966 131.827653,196.92354 131.644552,196.283053 C131.135055,194.495026 131.724161,192.568924 132.638527,190.941019 C133.554029,189.315435 134.78683,187.87782 135.718254,186.260358 C136.277791,185.288024 136.734974,184.210103 136.682659,183.095052 C136.662189,182.677343 136.558697,182.242229 136.261869,181.942871 C136.004846,181.684124 135.636371,181.561132 135.274719,181.489193 C133.933877,181.220003 132.459975,181.504277 131.244233,180.889316 C130.063747,180.292921 129.415503,178.83558 129.773743,177.583614 C130.013707,176.745875 130.634657,176.041571 130.810933,175.189909 C131.065682,173.96579 130.312809,172.705701 129.267658,171.988634 C128.221369,171.271567 126.932842,170.993094 125.675021,170.781919 C125.054072,170.677492 124.404691,170.574225 123.899743,170.205249 C123.277656,169.75041 122.992201,168.952122 123,168.192124 C123.027456,165.787976 124.948306,163.990667 127.178493,163.23299" id="Fill-101" fill="#EF832B"></path>
                        <path d="M126.142685,170.396788 C133.563101,172.051552 124.197067,179.298941 128.119115,182.768388 C129.237184,183.756256 130.541232,183.443223 131.851882,183.630362 C136.889799,184.34943 134.135342,187.87672 133.791997,190.63844 C133.740276,191.055817 134.410457,191.142015 134.500695,190.737114 C134.927674,188.828294 136.630089,186.496427 135.751921,184.465116 C134.979396,182.675385 133.065692,182.885208 131.496433,182.836439 C129.529907,182.775193 127.358695,182.838707 128.096005,178.80444 C128.259974,177.907307 128.956566,176.996563 129.295509,176.152735 C129.685072,175.179611 129.945882,174.213293 129.732392,173.149435 C129.372541,171.348362 127.914429,170.29131 126.248329,170.003229 C126.001825,169.961264 125.890679,170.341214 126.142685,170.396788" id="Fill-103" fill="#EF832B"></path>
                        <path d="M109.238022,160.86605 C115.276259,157.811651 121.294755,158.421374 126.39242,162.901159 C126.739619,163.205442 127.207582,162.741498 126.899865,162.396721 C122.425763,157.378944 114.469226,156.492706 109.073132,160.584907 C108.909403,160.709859 109.045263,160.963236 109.238022,160.86605" id="Fill-105" fill="#EF832B"></path>
                        <polygon id="Fill-107" fill="#FFB9A3" points="309.588679 179 307 184.34316 313.324692 187 314 180.846698"></polygon>
                        <path d="M313.479273,163 C299.44949,169.324168 305.198646,184.653617 313.738709,182.854189 C317.895308,181.977157 320,168.115632 320,168.115632 L313.479273,163 Z" id="Fill-109" fill="#FFB9A3"></path>
                        <path d="M318.671015,160.030591 C318.203731,159.145132 317.76146,158.202957 316.991749,157.573297 C316.223174,156.943637 315.003233,156.744554 314.281274,157.428614 C313.325104,158.33375 313.885617,160.025961 314.853157,160.917207 C314.019777,161.019064 313.030635,160.434545 312.417822,161.016749 C311.951675,161.457743 312.113121,162.241345 312.380303,162.828179 C313.006759,164.211347 314.030009,165.405849 315.289743,166.225332 C314.570058,166.642019 313.73554,167.446456 314.166442,168.166398 C314.286958,168.365481 314.487061,168.504377 314.605303,168.704618 C314.880443,169.171075 314.614398,169.764854 314.336984,170.231311 C313.889028,170.983662 313.405827,171.715179 312.889654,172.421231 C313.377403,171.739485 314.566647,172.018434 314.924784,172.780045 C315.282922,173.540498 314.972536,174.480358 314.418844,175.10886 C314.111869,175.458414 313.72076,175.748937 313.272804,175.853109 C312.881695,175.945706 311.161499,181.363789 312.50423,182.424025 C314.164168,183.735431 319.80796,182.596487 320.624286,181.114935 C321.440612,182.016598 322.636677,182.699501 323.817962,182.461064 C324.999247,182.221469 325.901981,180.737602 325.264155,179.697043 C326.540943,180.17739 328.094009,179.754916 328.966045,178.69005 C329.836945,177.625184 329.965419,175.993162 329.270746,174.800975 C329.967693,174.588002 330.107537,173.628465 329.930174,172.910838 C329.569763,171.459379 328.406669,170.241728 326.991173,169.836616 C327.709722,169.848191 328.281605,169.112045 328.314576,168.380528 C328.348685,167.650169 327.975767,166.960321 327.522126,166.392007 C326.188491,164.717158 324.609275,164.270377 322.640088,164.016893 C320.649298,163.761094 319.55101,161.697337 318.671015,160.030591" id="Fill-111" fill="#4A49CA"></path>
                        <path d="M305.484487,314.01349 C305.484487,314.01349 297.12235,318.316743 296,319.659594 C296,319.659594 312.453126,320.451814 313.740224,319.619124 C315.028467,318.78766 311.106534,314 311.106534,314 L305.484487,314.01349 Z" id="Fill-113" fill="#0C2340"></path>
                        <path d="M336.023543,309.132763 C336.023543,309.132763 328.821749,314.594535 328,316 C328,316 345,313.514767 345,312.42175 C345,311.328733 341.411435,308 341.411435,308 L336.023543,309.132763 Z" id="Fill-115" fill="#0C2340"></path>
                        <path d="M313.206088,235.802271 C312.894093,237.507043 301.331787,282.828047 334.415974,310 L344,307.816837 C344,307.816837 332.846754,297.431036 327.590216,278.740495 C322.619094,261.065246 326.567565,259.331794 329.548851,249.596468 C332.84791,238.821759 330.393549,231 330.393549,231 L313.206088,235.802271 Z" id="Fill-117" fill="#D8742A"></path>
                        <path d="M297.516472,236.012789 C292.405161,248.496569 283.629563,291.042928 302.75503,315 L312.306503,314.980435 C312.306503,314.980435 304.783113,306.552416 303.943052,287.002129 C303.101865,267.44954 307.965436,258.866151 311.395498,252.415373 C314.82556,245.964596 318,235 318,235 L297.516472,236.012789 Z" id="Fill-119" fill="#EF832B"></path>
                        <path d="M290.581304,159 C287.962515,168.187355 287.101209,185.161527 300.219561,192 L309,189.869699 C309,189.869699 293.172196,181.613338 296.562789,160.744025 L290.581304,159 Z" id="Fill-121" fill="#0B43A4"></path>
                        <path d="M267.116385,154.825837 L273.790493,154 C273.790493,154 272.988097,182.124144 305.353649,184.493142 C330.059455,186.301302 332,232.8303 332,232.8303 C324.034093,238.212518 310.665392,239.843632 293.536245,238.610016 C293.536245,238.610016 294.633421,205.415485 291.912106,196.327853 C291.912106,196.327853 265.021052,187.836468 267.116385,154.825837" id="Fill-123" fill="#0056EC"></path>
                        <path d="M259.167139,148.482252 C258.054055,149.902125 262.69919,151.703511 267.203087,154 L272.971394,153.215983 C272.971394,153.215983 273.03865,151.946741 272.96691,150.624408 C272.895171,149.302074 272.293231,148.546455 271.609464,149.682353 C270.924575,150.818251 268.009036,151.202234 266.633655,150.166344 C265.259394,149.12922 260.280222,147.06238 259.167139,148.482252" id="Fill-125" fill="#FFB9A3"></path>
                        <path d="M290.702804,159.129133 C288.4805,156.829009 289.071149,156.9692 289.071149,156.9692 L295.850061,158.582016 C295.850061,158.582016 297.341422,155.099574 298.605246,155.002805 C299.867892,154.904795 297.652662,157.402179 298.159607,158.327687 C298.666551,159.251955 296.769635,161 296.769635,161 L290.702804,159.129133 Z" id="Fill-127" fill="#FFB9A3"></path>
                        <path d="M322.206445,163.684491 C323.463681,164.051718 324.7508,164.198121 325.792449,165.179019 C326.827694,166.153816 327.298357,167.821587 326.547004,169.181912 C326.196942,169.816323 327.028339,170.318973 327.404016,169.755322 C328.352813,168.327896 328.097737,166.37464 327.139335,165.026516 C326.03365,163.472207 323.973833,162.830476 322.283288,163.037879 C321.981253,163.0757 321.86919,163.585669 322.206445,163.684491" id="Fill-129" fill="#4A49CA"></path>
                        <path d="M328.027224,175.656855 C328.832211,176.174602 329.510095,177.017917 329.167019,178.10541 C328.849778,179.113772 327.912521,179.715172 327.160235,180.292832 C326.797526,180.570922 327.1096,181.180235 327.510544,180.948493 C328.625539,180.303006 329.806669,179.396385 329.981307,177.913234 C330.13321,176.615477 329.338557,175.628594 328.352732,175.046412 C327.987956,174.830496 327.667615,175.425113 328.027224,175.656855" id="Fill-131" fill="#4A49CA"></path>
                        <path d="M313.121585,182.798646 C316.136856,184.678471 320.400335,184.374684 322.893339,181.72854 C323.200555,181.401912 322.785244,180.784059 322.39269,181.076426 C319.66643,183.104717 316.57151,183.760258 313.368496,182.374943 C313.086312,182.251601 312.846228,182.627338 313.121585,182.798646" id="Fill-133" fill="#4A49CA"></path>
                        <path d="M328.34785,165.215827 C330.308841,166.841437 328.343985,169.069625 327.087766,170.464771 C326.810753,170.773929 327.247531,171.187639 327.59283,170.906586 C328.712476,169.993727 329.830833,168.988681 329.984156,167.585665 C330.097538,166.531155 329.601493,165.526109 328.524365,165.015717 C328.382638,164.948265 328.224161,165.113524 328.34785,165.215827" id="Fill-135" fill="#4A49CA"></path>
                    </g>
                </g>
            </g>
        </g>
    </g>
</svg>