<svg width="32" height="30" viewBox="0 0 32 30" fill="none" xmlns="http://www.w3.org/2000/svg">
<path d="M2.62342 1.23431C2.39908 1.24112 2.17848 1.28997 1.97468 1.37795C1.77088 1.46593 1.58803 1.59127 1.43695 1.74653C1.28588 1.90179 1.16964 2.08383 1.09513 2.28186C1.02063 2.47989 0.98936 2.68989 1.00319 2.89943C1.22733 6.4932 2.28401 15.262 7.34325 20.7305C13.4015 27.3191 21.2914 29.5892 29.3862 29.2538C29.8201 29.2295 30.228 29.0522 30.5275 28.7576C30.827 28.463 30.9959 28.073 31 27.6665V21.9105C30.995 21.3734 30.7971 20.8536 30.4383 20.4343C30.0794 20.015 29.5803 19.7207 29.0211 19.5985L24.9673 18.76C24.466 18.66 23.944 18.703 23.4691 18.8835C22.9941 19.0639 22.588 19.3735 22.3032 19.7722L21.4067 21.042C21.3243 21.1582 21.2013 21.2439 21.0587 21.2844C20.916 21.3248 20.7628 21.3175 20.6254 21.2636C18.5632 20.4311 10.3468 16.8373 9.44379 10.7758C9.4261 10.6587 9.44586 10.5394 9.50056 10.4328C9.55526 10.3262 9.64247 10.2371 9.75119 10.1768L11.3778 9.24843C11.824 8.98982 12.1744 8.60926 12.3818 8.15825C12.5891 7.70724 12.6433 7.20755 12.537 6.7268L11.6468 2.86948C11.5167 2.32902 11.1903 1.84744 10.7232 1.50672C10.2562 1.16599 9.67732 0.98718 9.08516 1.00072L2.62342 1.23431Z" stroke="#EE7E24"/>
</svg>
