<svg xmlns="http://www.w3.org/2000/svg" width="70.043" height="102.221" viewBox="0 0 70.043 102.221">
  <g id="Group_158" data-name="Group 158" transform="translate(-16786 11878.987)">
    <g id="smartwatch_1_" data-name="smartwatch (1)" transform="translate(16705.414 -11878.987)">
      <path id="Path_824" data-name="Path 824" d="M146.128,43.4h-2.233a32.1,32.1,0,0,0-2.467-6.672L137.6,19.215a5.489,5.489,0,0,0-4.373-4.234l-3.065-.567-2.123-8.692A7.484,7.484,0,0,0,120.75,0H104.674a7.484,7.484,0,0,0-7.287,5.721l-2.123,8.692-3.065.567a5.489,5.489,0,0,0-4.373,4.234L84,36.706a32.077,32.077,0,0,0,0,28.808l3.824,17.491A5.489,5.489,0,0,0,92.2,87.239l3.065.567L97.387,96.5a7.484,7.484,0,0,0,7.288,5.722H120.75a7.484,7.484,0,0,0,7.287-5.722,1.5,1.5,0,0,0-2.915-.712,4.49,4.49,0,0,1-4.372,3.433H104.674a4.49,4.49,0,0,1-4.372-3.433L96.1,78.6a32.071,32.071,0,0,0,33.216,0l-2.774,11.358a1.5,1.5,0,1,0,2.915.712l.7-2.864,3.065-.567a5.49,5.49,0,0,0,4.373-4.234l3.824-17.491a31.881,31.881,0,0,0,2.479-6.7h2.227a4.506,4.506,0,0,0,4.5-4.5V47.9a4.507,4.507,0,0,0-4.5-4.5ZM132.679,17.932a2.5,2.5,0,0,1,1.988,1.925l2.209,10.1a32.317,32.317,0,0,0-3.824-3.709l-2.111-8.642ZM90.758,19.856a2.5,2.5,0,0,1,1.988-1.925l1.738-.322-2.114,8.655a32.4,32.4,0,0,0-3.821,3.7Zm3.725,64.755-1.738-.322a2.5,2.5,0,0,1-1.988-1.925l-2.21-10.109a32.413,32.413,0,0,0,3.821,3.7Zm40.183-2.246a2.5,2.5,0,0,1-1.988,1.925l-1.738.322,2.114-8.655a32.387,32.387,0,0,0,3.821-3.7Zm-21.954-2.129a29.125,29.125,0,0,1,0-58.251,1.5,1.5,0,0,0,0-3A31.932,31.932,0,0,0,96.1,23.62l4.2-17.186A4.49,4.49,0,0,1,104.674,3H120.75a4.49,4.49,0,0,1,4.372,3.433L129.316,23.6a31.843,31.843,0,0,0-10.34-4.009,1.5,1.5,0,1,0-.582,2.943,29.129,29.129,0,0,1-5.682,57.7Zm34.916-25.92a1.5,1.5,0,0,1-1.5,1.5h-1.635a32.133,32.133,0,0,0,0-9.412h1.637a1.5,1.5,0,0,1,1.5,1.5v6.412Z" fill="#f62d2d"/>
      <path id="Path_825" data-name="Path 825" d="M142.684,132.536a24.668,24.668,0,0,0-23.826,18.31,1.5,1.5,0,0,0,2.9.77,21.669,21.669,0,1,1-.723,5.57,1.5,1.5,0,0,0-3,0,24.65,24.65,0,1,0,24.65-24.65Z" transform="translate(-29.972 -106.075)" fill="#f62d2d"/>
    </g>
    <path id="Path_826" data-name="Path 826" d="M46.21,50.672a3.583,3.583,0,0,0-1.333.254c-.893-2.933-4.149-5.058-7.943-5.058A8.518,8.518,0,0,0,29.581,49.6a3.872,3.872,0,0,0-6.224,2.473,2.923,2.923,0,0,0,.319,5.828H34.7v2.673h-.924a.588.588,0,0,0-.588.588v.924H28.8a2.1,2.1,0,1,0,0,1.176h4.386v.924a.588.588,0,0,0,.588.588H36.8a.588.588,0,0,0,.588-.588v-.924h4.386a2.1,2.1,0,1,0,0-1.176H37.391v-.924a.588.588,0,0,0-.588-.588h-.924V57.905H46.21a3.617,3.617,0,0,0,0-7.233ZM26.788,63.6a.924.924,0,1,1,.924-.924A.924.924,0,0,1,26.788,63.6Zm17-1.849a.924.924,0,1,1-.924.924A.924.924,0,0,1,43.792,61.755ZM36.214,63.6H34.366V61.755h1.849Zm10-6.874H23.677a1.748,1.748,0,1,1,0-3.492,1.044,1.044,0,0,1,.145.008.591.591,0,0,0,.467-.145.6.6,0,0,0,.2-.448,2.7,2.7,0,0,1,4.793-1.7.589.589,0,0,0,1-.141c.955-2.254,3.629-3.769,6.651-3.769,3.552,0,6.545,2.087,6.961,4.854a.588.588,0,0,0,.923.392,2.384,2.384,0,0,1,1.393-.442,2.44,2.44,0,0,1,0,4.88Z" transform="translate(16783.137 -11883.201)" fill="#f62d2d"/>
  </g>
</svg>
