<svg xmlns="http://www.w3.org/2000/svg" xmlns:xlink="http://www.w3.org/1999/xlink" width="243.133" height="159.695" viewBox="0 0 243.133 159.695">
  <defs>
    <clipPath id="clip-path">
      <path id="Path_533" data-name="Path 533" d="M13.262,136.586V22.2c0-4.973,2.763-8.841,8.289-8.841H219.925c5.526,0,10.5,3.868,10.5,8.841V137.138c0,4.973-5.526,9.394-10.5,9.394H21C16.025,146.532,13.262,142.112,13.262,136.586ZM21,.1C8.841.1,0,10.046,0,22.2V137.138c0,12.157,8.841,22.656,21,22.656H219.925c12.157,0,23.208-9.946,23.208-22.656V22.2c0-12.157-11.051-22.1-23.208-22.1Z" transform="translate(0 -0.1)" fill="#f62d2d"/>
    </clipPath>
    <clipPath id="clip-path-2">
      <rect id="Rectangle_412" data-name="Rectangle 412" width="298.39" height="215.504" fill="#f62d2d"/>
    </clipPath>
    <clipPath id="clip-path-3">
      <rect id="Rectangle_411" data-name="Rectangle 411" width="243.133" height="160.247" fill="#f62d2d"/>
    </clipPath>
    <clipPath id="clip-path-4">
      <path id="Path_534" data-name="Path 534" d="M8.315,7.4Q5,7.4,5,10.715a3.565,3.565,0,0,0,3.315,3.315H33.734a3.565,3.565,0,0,0,3.315-3.315A3.565,3.565,0,0,0,33.734,7.4Z" transform="translate(-5 -7.4)" fill="#f62d2d"/>
    </clipPath>
    <clipPath id="clip-path-5">
      <rect id="Rectangle_415" data-name="Rectangle 415" width="93.938" height="66.309" fill="#f62d2d"/>
    </clipPath>
    <clipPath id="clip-path-6">
      <rect id="Rectangle_414" data-name="Rectangle 414" width="38.68" height="11.051" fill="#f62d2d"/>
    </clipPath>
    <clipPath id="clip-path-7">
      <path id="Path_535" data-name="Path 535" d="M15.215,7.4A3.565,3.565,0,0,0,11.9,10.715a3.565,3.565,0,0,0,3.315,3.315H47.265a3.565,3.565,0,0,0,3.315-3.315A3.565,3.565,0,0,0,47.265,7.4Z" transform="translate(-11.9 -7.4)" fill="#f62d2d"/>
    </clipPath>
    <clipPath id="clip-path-8">
      <rect id="Rectangle_418" data-name="Rectangle 418" width="99.463" height="66.309" fill="#f62d2d"/>
    </clipPath>
    <clipPath id="clip-path-9">
      <rect id="Rectangle_417" data-name="Rectangle 417" width="44.206" height="11.051" fill="#f62d2d"/>
    </clipPath>
    <clipPath id="clip-path-10">
      <path id="Path_536" data-name="Path 536" d="M23.315,7.4A3.185,3.185,0,0,0,20,10.715a3.565,3.565,0,0,0,3.315,3.315H36.025a3.565,3.565,0,0,0,3.315-3.315A3.565,3.565,0,0,0,36.025,7.4Z" transform="translate(-20 -7.4)" fill="#f62d2d"/>
    </clipPath>
    <clipPath id="clip-path-11">
      <rect id="Rectangle_421" data-name="Rectangle 421" width="82.886" height="66.309" fill="#f62d2d"/>
    </clipPath>
    <clipPath id="clip-path-12">
      <rect id="Rectangle_420" data-name="Rectangle 420" width="27.629" height="11.051" fill="#f62d2d"/>
    </clipPath>
    <clipPath id="clip-path-13">
      <path id="Path_537" data-name="Path 537" d="M28.015,7.4A3.565,3.565,0,0,0,24.7,10.715a3.565,3.565,0,0,0,3.315,3.315H78.852a3.565,3.565,0,0,0,3.315-3.315A3.565,3.565,0,0,0,78.852,7.4Z" transform="translate(-24.7 -7.4)" fill="#f62d2d"/>
    </clipPath>
    <clipPath id="clip-path-14">
      <rect id="Rectangle_424" data-name="Rectangle 424" width="121.566" height="66.309" fill="#f62d2d"/>
    </clipPath>
    <clipPath id="clip-path-15">
      <rect id="Rectangle_423" data-name="Rectangle 423" width="66.309" height="11.051" transform="translate(0)" fill="#f62d2d"/>
    </clipPath>
    <clipPath id="clip-path-16">
      <path id="Path_538" data-name="Path 538" d="M8.315,10.3A3.565,3.565,0,0,0,5,13.615a3.565,3.565,0,0,0,3.315,3.315H21.025a3.565,3.565,0,0,0,3.315-3.315A3.565,3.565,0,0,0,21.025,10.3Z" transform="translate(-5 -10.3)" fill="#f62d2d"/>
    </clipPath>
    <clipPath id="clip-path-18">
      <rect id="Rectangle_426" data-name="Rectangle 426" width="27.629" height="11.051" transform="translate(0 0)" fill="#f62d2d"/>
    </clipPath>
    <clipPath id="clip-path-19">
      <path id="Path_539" data-name="Path 539" d="M12.915,10.3A3.565,3.565,0,0,0,9.6,13.615a3.565,3.565,0,0,0,3.315,3.315H38.334a3.565,3.565,0,0,0,3.315-3.315A3.565,3.565,0,0,0,38.334,10.3Z" transform="translate(-9.6 -10.3)" fill="#f62d2d"/>
    </clipPath>
    <clipPath id="clip-path-21">
      <rect id="Rectangle_429" data-name="Rectangle 429" width="38.68" height="11.051" transform="translate(0 0)" fill="#f62d2d"/>
    </clipPath>
    <clipPath id="clip-path-22">
      <path id="Path_540" data-name="Path 540" d="M19.815,10.3A3.565,3.565,0,0,0,16.5,13.615a3.565,3.565,0,0,0,3.315,3.315H51.865a3.565,3.565,0,0,0,3.315-3.315A3.565,3.565,0,0,0,51.865,10.3Z" transform="translate(-16.5 -10.3)" fill="#f62d2d"/>
    </clipPath>
    <clipPath id="clip-path-24">
      <rect id="Rectangle_432" data-name="Rectangle 432" width="44.206" height="11.051" transform="translate(0 0)" fill="#f62d2d"/>
    </clipPath>
    <clipPath id="clip-path-25">
      <path id="Path_541" data-name="Path 541" d="M28.015,10.3A3.565,3.565,0,0,0,24.7,13.615a3.565,3.565,0,0,0,3.315,3.315H40.725a3.565,3.565,0,0,0,3.315-3.315A3.565,3.565,0,0,0,40.725,10.3Z" transform="translate(-24.7 -10.3)" fill="#f62d2d"/>
    </clipPath>
    <clipPath id="clip-path-28">
      <path id="Path_542" data-name="Path 542" d="M32.615,10.3A3.565,3.565,0,0,0,29.3,13.615a3.565,3.565,0,0,0,3.315,3.315H58.034a3.565,3.565,0,0,0,3.315-3.315A3.565,3.565,0,0,0,58.034,10.3Z" transform="translate(-29.3 -10.3)" fill="#f62d2d"/>
    </clipPath>
    <clipPath id="clip-path-31">
      <rect id="Rectangle_441" data-name="Rectangle 441" width="226.556" height="5.526" transform="translate(0 0)" fill="#f62d2d"/>
    </clipPath>
  </defs>
  <g id="multisport" transform="translate(0 -0.1)">
    <g id="Group_591" data-name="Group 591" transform="translate(0 0.1)">
      <g id="Group_590" data-name="Group 590">
        <g id="Group_589" data-name="Group 589" clip-path="url(#clip-path)">
          <g id="Group_588" data-name="Group 588" transform="translate(-27.629 -28.181)">
            <g id="Group_587" data-name="Group 587">
              <g id="Group_586" data-name="Group 586" clip-path="url(#clip-path-2)">
                <g id="Group_585" data-name="Group 585" transform="translate(27.629 27.629)">
                  <g id="Group_584" data-name="Group 584" clip-path="url(#clip-path-3)">
                    <rect id="Rectangle_410" data-name="Rectangle 410" width="297.838" height="214.399" transform="translate(-27.629 -27.076)" fill="#f62d2d"/>
                  </g>
                </g>
              </g>
            </g>
          </g>
        </g>
      </g>
    </g>
    <g id="Group_599" data-name="Group 599" transform="translate(27.629 40.438)">
      <g id="Group_598" data-name="Group 598">
        <g id="Group_597" data-name="Group 597" clip-path="url(#clip-path-4)">
          <g id="Group_596" data-name="Group 596" transform="translate(-33.154 -29.839)">
            <g id="Group_595" data-name="Group 595" transform="translate(0 0)">
              <g id="Group_594" data-name="Group 594" clip-path="url(#clip-path-5)">
                <g id="Group_593" data-name="Group 593" transform="translate(27.629 27.629)">
                  <g id="Group_592" data-name="Group 592" clip-path="url(#clip-path-6)">
                    <rect id="Rectangle_413" data-name="Rectangle 413" width="87.307" height="61.888" transform="translate(-22.103 -25.418)" fill="#f62d2d"/>
                  </g>
                </g>
              </g>
            </g>
          </g>
        </g>
      </g>
    </g>
    <g id="Group_607" data-name="Group 607" transform="translate(65.756 40.438)">
      <g id="Group_606" data-name="Group 606">
        <g id="Group_605" data-name="Group 605" clip-path="url(#clip-path-7)">
          <g id="Group_604" data-name="Group 604" transform="translate(-32.602 -29.839)">
            <g id="Group_603" data-name="Group 603" transform="translate(0 0)">
              <g id="Group_602" data-name="Group 602" clip-path="url(#clip-path-8)">
                <g id="Group_601" data-name="Group 601" transform="translate(27.629 27.629)">
                  <g id="Group_600" data-name="Group 600" clip-path="url(#clip-path-9)">
                    <rect id="Rectangle_416" data-name="Rectangle 416" width="93.385" height="61.888" transform="translate(-22.656 -25.418)" fill="#f62d2d"/>
                  </g>
                </g>
              </g>
            </g>
          </g>
        </g>
      </g>
    </g>
    <g id="Group_615" data-name="Group 615" transform="translate(110.515 40.438)">
      <g id="Group_614" data-name="Group 614">
        <g id="Group_613" data-name="Group 613" clip-path="url(#clip-path-10)">
          <g id="Group_612" data-name="Group 612" transform="translate(-33.154 -29.839)">
            <g id="Group_611" data-name="Group 611" transform="translate(0 0)">
              <g id="Group_610" data-name="Group 610" clip-path="url(#clip-path-11)">
                <g id="Group_609" data-name="Group 609" transform="translate(27.629 27.629)">
                  <g id="Group_608" data-name="Group 608" clip-path="url(#clip-path-12)">
                    <rect id="Rectangle_419" data-name="Rectangle 419" width="74.598" height="61.888" transform="translate(-22.103 -25.418)" fill="#f62d2d"/>
                  </g>
                </g>
              </g>
            </g>
          </g>
        </g>
      </g>
    </g>
    <g id="Group_623" data-name="Group 623" transform="translate(136.486 40.438)">
      <g id="Group_622" data-name="Group 622">
        <g id="Group_621" data-name="Group 621" clip-path="url(#clip-path-13)">
          <g id="Group_620" data-name="Group 620" transform="translate(-31.497 -29.839)">
            <g id="Group_619" data-name="Group 619" transform="translate(0 0)">
              <g id="Group_618" data-name="Group 618" clip-path="url(#clip-path-14)">
                <g id="Group_617" data-name="Group 617" transform="translate(27.629 27.629)">
                  <g id="Group_616" data-name="Group 616" clip-path="url(#clip-path-15)">
                    <rect id="Rectangle_422" data-name="Rectangle 422" width="112.725" height="61.888" transform="translate(-23.761 -25.418)" fill="#f62d2d"/>
                  </g>
                </g>
              </g>
            </g>
          </g>
        </g>
      </g>
    </g>
    <g id="Group_631" data-name="Group 631" transform="translate(27.629 56.463)">
      <g id="Group_630" data-name="Group 630">
        <g id="Group_629" data-name="Group 629" clip-path="url(#clip-path-16)">
          <g id="Group_628" data-name="Group 628" transform="translate(-33.154 -29.286)">
            <g id="Group_627" data-name="Group 627">
              <g id="Group_626" data-name="Group 626" clip-path="url(#clip-path-11)">
                <g id="Group_625" data-name="Group 625" transform="translate(27.629 27.629)">
                  <g id="Group_624" data-name="Group 624" clip-path="url(#clip-path-18)">
                    <rect id="Rectangle_425" data-name="Rectangle 425" width="74.598" height="61.888" transform="translate(-22.103 -25.971)" fill="#f62d2d"/>
                  </g>
                </g>
              </g>
            </g>
          </g>
        </g>
      </g>
    </g>
    <g id="Group_639" data-name="Group 639" transform="translate(53.047 56.463)">
      <g id="Group_638" data-name="Group 638">
        <g id="Group_637" data-name="Group 637" clip-path="url(#clip-path-19)">
          <g id="Group_636" data-name="Group 636" transform="translate(-30.944 -29.286)">
            <g id="Group_635" data-name="Group 635">
              <g id="Group_634" data-name="Group 634" clip-path="url(#clip-path-5)">
                <g id="Group_633" data-name="Group 633" transform="translate(27.629 27.629)">
                  <g id="Group_632" data-name="Group 632" clip-path="url(#clip-path-21)">
                    <rect id="Rectangle_428" data-name="Rectangle 428" width="87.307" height="61.888" transform="translate(-24.313 -25.971)" fill="#f62d2d"/>
                  </g>
                </g>
              </g>
            </g>
          </g>
        </g>
      </g>
    </g>
    <g id="Group_647" data-name="Group 647" transform="translate(91.175 56.463)">
      <g id="Group_646" data-name="Group 646">
        <g id="Group_645" data-name="Group 645" clip-path="url(#clip-path-22)">
          <g id="Group_644" data-name="Group 644" transform="translate(-30.392 -29.286)">
            <g id="Group_643" data-name="Group 643">
              <g id="Group_642" data-name="Group 642" clip-path="url(#clip-path-8)">
                <g id="Group_641" data-name="Group 641" transform="translate(27.629 27.629)">
                  <g id="Group_640" data-name="Group 640" clip-path="url(#clip-path-24)">
                    <rect id="Rectangle_431" data-name="Rectangle 431" width="93.385" height="61.888" transform="translate(-24.313 -25.971)" fill="#f62d2d"/>
                  </g>
                </g>
              </g>
            </g>
          </g>
        </g>
      </g>
    </g>
    <g id="Group_655" data-name="Group 655" transform="translate(136.486 56.463)">
      <g id="Group_654" data-name="Group 654">
        <g id="Group_653" data-name="Group 653" clip-path="url(#clip-path-25)">
          <g id="Group_652" data-name="Group 652" transform="translate(-31.497 -29.286)">
            <g id="Group_651" data-name="Group 651">
              <g id="Group_650" data-name="Group 650" clip-path="url(#clip-path-11)">
                <g id="Group_649" data-name="Group 649" transform="translate(27.629 27.629)">
                  <g id="Group_648" data-name="Group 648" clip-path="url(#clip-path-18)">
                    <rect id="Rectangle_434" data-name="Rectangle 434" width="74.598" height="61.888" transform="translate(-23.761 -25.971)" fill="#f62d2d"/>
                  </g>
                </g>
              </g>
            </g>
          </g>
        </g>
      </g>
    </g>
    <g id="Group_663" data-name="Group 663" transform="translate(161.904 56.463)">
      <g id="Group_662" data-name="Group 662">
        <g id="Group_661" data-name="Group 661" clip-path="url(#clip-path-28)">
          <g id="Group_660" data-name="Group 660" transform="translate(-29.286 -29.286)">
            <g id="Group_659" data-name="Group 659">
              <g id="Group_658" data-name="Group 658" clip-path="url(#clip-path-5)">
                <g id="Group_657" data-name="Group 657" transform="translate(27.629 27.629)">
                  <g id="Group_656" data-name="Group 656" clip-path="url(#clip-path-21)">
                    <rect id="Rectangle_437" data-name="Rectangle 437" width="87.307" height="61.888" transform="translate(-25.418 -25.971)" fill="#f62d2d"/>
                  </g>
                </g>
              </g>
            </g>
          </g>
        </g>
      </g>
    </g>
    <g id="Group_666" data-name="Group 666" transform="translate(5.526 104.537)">
      <g id="Group_665" data-name="Group 665">
        <g id="Group_664" data-name="Group 664" clip-path="url(#clip-path-31)">
          <rect id="Rectangle_440" data-name="Rectangle 440" width="281.813" height="60.783" transform="translate(-27.629 -27.629)" fill="#f62d2d"/>
        </g>
      </g>
    </g>
    <g id="Group_669" data-name="Group 669" transform="translate(5.526 121.114)">
      <g id="Group_668" data-name="Group 668">
        <g id="Group_667" data-name="Group 667" clip-path="url(#clip-path-31)">
          <rect id="Rectangle_442" data-name="Rectangle 442" width="281.813" height="60.783" transform="translate(-27.629 -27.629)" fill="#f62d2d"/>
        </g>
      </g>
    </g>
  </g>
</svg>
