<svg id="elastyczne-godziny-pracy" xmlns="http://www.w3.org/2000/svg" xmlns:xlink="http://www.w3.org/1999/xlink" width="163.851" height="163.852" viewBox="0 0 163.851 163.852">
  <defs>
    <clipPath id="clip-path">
      <path id="Path_459" data-name="Path 459" d="M10.923,81.925a71,71,0,1,1,71,71A70.86,70.86,0,0,1,10.923,81.925ZM0,81.925A81.925,81.925,0,1,0,81.925,0,82.049,82.049,0,0,0,0,81.925Z" fill="#f62d2d"/>
    </clipPath>
    <clipPath id="clip-path-2">
      <rect id="Rectangle_227" data-name="Rectangle 227" width="200.018" height="200.018" fill="#f62d2d"/>
    </clipPath>
    <clipPath id="clip-path-3">
      <rect id="Rectangle_226" data-name="Rectangle 226" width="163.949" height="163.949" fill="#f62d2d"/>
    </clipPath>
    <clipPath id="clip-path-4">
      <path id="Path_460" data-name="Path 460" d="M5.5,24.349A62.11,62.11,0,0,0,36.814,78.237c.364.364.728.364,1.456.364a2,2,0,0,0,2.185-1.456A2.524,2.524,0,0,0,39.362,73.5a56.888,56.888,0,0,1-28.4-49.155A2.489,2.489,0,0,0,8.413,21.8,2.814,2.814,0,0,0,5.5,24.349Z" transform="translate(-5.5 -21.8)" fill="#f62d2d"/>
    </clipPath>
    <clipPath id="clip-path-5">
      <rect id="Rectangle_230" data-name="Rectangle 230" width="77.056" height="96.73" fill="#f62d2d"/>
    </clipPath>
    <clipPath id="clip-path-6">
      <rect id="Rectangle_229" data-name="Rectangle 229" width="40.987" height="60.661" fill="#f62d2d"/>
    </clipPath>
    <clipPath id="clip-path-7">
      <path id="Path_461" data-name="Path 461" d="M17.167,39.688a2.605,2.605,0,0,0,1.821,3.277l3.277,1.092h.728a2.66,2.66,0,0,0,2.549-2.185A2.605,2.605,0,0,0,23.721,38.6a10.632,10.632,0,0,0-3.277-.728h-.728C18.624,37.5,17.531,38.231,17.167,39.688Z" transform="translate(-17.075 -37.775)" fill="#f62d2d"/>
    </clipPath>
    <clipPath id="clip-path-8">
      <rect id="Rectangle_233" data-name="Rectangle 233" width="47.545" height="47.545" fill="#f62d2d"/>
    </clipPath>
    <clipPath id="clip-path-9">
      <rect id="Rectangle_232" data-name="Rectangle 232" width="9.837" height="11.476" fill="#f62d2d"/>
    </clipPath>
    <clipPath id="clip-path-10">
      <path id="Path_462" data-name="Path 462" d="M20.9,14.262V59.776a5.847,5.847,0,0,0,1.821,4.005L38.377,78.71a5.216,5.216,0,0,0,3.641,1.456,5.847,5.847,0,0,0,4.005-1.821c2.185-2.185,1.821-5.462-.364-7.646l-14.2-13.108V14.262A5.6,5.6,0,0,0,26,8.8,5.839,5.839,0,0,0,20.9,14.262Z" transform="translate(-20.9 -8.8)" fill="#f62d2d"/>
    </clipPath>
    <clipPath id="clip-path-11">
      <rect id="Rectangle_236" data-name="Rectangle 236" width="70.498" height="113.125" fill="#f62d2d"/>
    </clipPath>
    <clipPath id="clip-path-12">
      <rect id="Rectangle_235" data-name="Rectangle 235" width="32.79" height="75.417" fill="#f62d2d"/>
    </clipPath>
  </defs>
  <g id="Group_115" data-name="Group 115">
    <g id="Group_114" data-name="Group 114">
      <g id="Group_113" data-name="Group 113" clip-path="url(#clip-path)">
        <g id="Group_112" data-name="Group 112" transform="translate(-18.034 -18.034)">
          <g id="Group_111" data-name="Group 111" transform="translate(0 0)">
            <g id="Group_110" data-name="Group 110" clip-path="url(#clip-path-2)">
              <g id="Group_109" data-name="Group 109" transform="translate(18.034 18.034)">
                <g id="Group_108" data-name="Group 108" clip-path="url(#clip-path-3)">
                  <rect id="Rectangle_225" data-name="Rectangle 225" width="200.018" height="200.018" transform="translate(-18.034 -18.034)" fill="#f62d2d"/>
                </g>
              </g>
            </g>
          </g>
        </g>
      </g>
    </g>
  </g>
  <g id="Group_123" data-name="Group 123" transform="translate(20.026 79.377)">
    <g id="Group_122" data-name="Group 122">
      <g id="Group_121" data-name="Group 121" clip-path="url(#clip-path-4)">
        <g id="Group_120" data-name="Group 120" transform="translate(-20.026 -20.355)">
          <g id="Group_119" data-name="Group 119" transform="translate(0 0)">
            <g id="Group_118" data-name="Group 118" clip-path="url(#clip-path-5)">
              <g id="Group_117" data-name="Group 117" transform="translate(18.034 18.034)">
                <g id="Group_116" data-name="Group 116" transform="translate(0 0)" clip-path="url(#clip-path-6)">
                  <rect id="Rectangle_228" data-name="Rectangle 228" width="71.73" height="93.213" transform="translate(-16.214 -15.885)" fill="#f62d2d"/>
                </g>
              </g>
            </g>
          </g>
        </g>
      </g>
    </g>
  </g>
  <g id="Group_131" data-name="Group 131" transform="translate(62.17 137.542)">
    <g id="Group_130" data-name="Group 130">
      <g id="Group_129" data-name="Group 129" clip-path="url(#clip-path-7)">
        <g id="Group_128" data-name="Group 128" transform="translate(-17.905 -21.138)">
          <g id="Group_127" data-name="Group 127" transform="translate(0 0)">
            <g id="Group_126" data-name="Group 126" clip-path="url(#clip-path-8)">
              <g id="Group_125" data-name="Group 125" transform="translate(18.034 18.035)">
                <g id="Group_124" data-name="Group 124" transform="translate(0 0)" clip-path="url(#clip-path-9)">
                  <rect id="Rectangle_231" data-name="Rectangle 231" width="45.15" height="42.601" transform="translate(-18.243 -15.374)" fill="#f62d2d"/>
                </g>
              </g>
            </g>
          </g>
        </g>
      </g>
    </g>
  </g>
  <g id="Group_139" data-name="Group 139" transform="translate(76.099 32.042)">
    <g id="Group_138" data-name="Group 138">
      <g id="Group_137" data-name="Group 137" clip-path="url(#clip-path-10)">
        <g id="Group_136" data-name="Group 136" transform="translate(-21.997 -20.566)">
          <g id="Group_135" data-name="Group 135" transform="translate(0 0)">
            <g id="Group_134" data-name="Group 134" clip-path="url(#clip-path-11)">
              <g id="Group_133" data-name="Group 133" transform="translate(18.035 18.035)">
                <g id="Group_132" data-name="Group 132" transform="translate(0 0)" clip-path="url(#clip-path-12)">
                  <rect id="Rectangle_234" data-name="Rectangle 234" width="62.991" height="107.777" transform="translate(-14.244 -15.31)" fill="#f62d2d"/>
                </g>
              </g>
            </g>
          </g>
        </g>
      </g>
    </g>
  </g>
</svg>
