<svg xmlns="http://www.w3.org/2000/svg" xmlns:xlink="http://www.w3.org/1999/xlink" width="223.224" height="199.314" viewBox="0 0 223.224 199.314">
  <defs>
    <clipPath id="clip-path">
      <path id="Path_481" data-name="Path 481" d="M86.15,136.657a5.272,5.272,0,0,0,4.518-2.51l85.85-114.969a19.4,19.4,0,0,1,13.555-5.523,21.576,21.576,0,0,1,14.057,5.523,19.7,19.7,0,0,1,0,27.613l-.5.5L99.706,180.838A19.4,19.4,0,0,1,86.15,186.36l-.5.5H84.142c-5.02,0-10.041-2.51-14.057-6.527l-50.2-46.691a18.231,18.231,0,0,1-6.025-14.057,20.612,20.612,0,0,1,5.523-14.057,21.576,21.576,0,0,1,14.057-5.523,21.576,21.576,0,0,1,14.057,5.523l.5.5L81.13,135.151a7.008,7.008,0,0,0,4.518,1.506C85.648,137.159,85.648,137.159,86.15,136.657ZM166.478,9.639l-.5.5L84.142,120.09l-27.613-24.1a33.11,33.11,0,0,0-23.094-9.539,34.309,34.309,0,0,0-23.6,9.539A32.231,32.231,0,0,0,.3,119.086v1c0,8.535,3.514,16.568,10.041,23.094l50.707,46.691a33.41,33.41,0,0,0,23.6,9.539h1c9.037,0,18.074-3.012,24.6-9.539l.5-.5L214.173,56.329A33.139,33.139,0,0,0,190.074.1,34.309,34.309,0,0,0,166.478,9.639Z" transform="translate(-0.3 -0.1)" fill="#f62d2d"/>
    </clipPath>
    <clipPath id="clip-path-2">
      <rect id="Rectangle_280" data-name="Rectangle 280" width="278" height="252" transform="translate(-0.406 0.399)" fill="#f62d2d"/>
    </clipPath>
    <clipPath id="clip-path-3">
      <rect id="Rectangle_279" data-name="Rectangle 279" width="226" height="201" transform="translate(0.196)" fill="#f62d2d"/>
    </clipPath>
    <clipPath id="clip-path-4">
      <path id="Path_482" data-name="Path 482" d="M41.048,136.539c-1,1-1,2.51,0,3.012l7.531,7.029a2.51,2.51,0,0,0,3.012,0c1-1,1-2.51,0-3.012l-7.531-7.029a1.844,1.844,0,0,0-1.506-.5A1.844,1.844,0,0,0,41.048,136.539ZM24.982,121.979c-1,1-1,2.51,0,3.012l5.523,5.021a1.844,1.844,0,0,0,1.506.5,1.844,1.844,0,0,0,1.506-.5c1-1,1-2.51,0-3.012l-5.523-5.02a1.844,1.844,0,0,0-1.506-.5A1.844,1.844,0,0,0,24.982,121.979ZM7.912,94.367A10.217,10.217,0,0,0,4.9,101.9a9.912,9.912,0,0,0,3.012,7.029l7.531,7.029a1.844,1.844,0,0,0,1.506.5,1.844,1.844,0,0,0,1.506-.5c1-1,1-2.51,0-3.012l-7.531-7.029a6.108,6.108,0,0,1,0-8.033c1-1,1-2.51,0-3.012a1.844,1.844,0,0,0-1.506-.5A.941.941,0,0,0,7.912,94.367ZM141.959,62.738l-3.514,4.518h0L121.877,88.844a1.892,1.892,0,0,0,.5,3.012,1.844,1.844,0,0,0,1.506.5,3.806,3.806,0,0,0,2.008-1l16.568-21.588,3.514-4.518a1.892,1.892,0,0,0-.5-3.012,1.844,1.844,0,0,0-1.506-.5C142.963,61.734,142.461,61.734,141.959,62.738Zm12.049-16.066-3.514,4.518A1.892,1.892,0,0,0,151,54.2a1.844,1.844,0,0,0,1.506.5,3.806,3.806,0,0,0,2.008-1l3.514-4.518a1.892,1.892,0,0,0-.5-3.012,1.844,1.844,0,0,0-1.506-.5C155.013,46.17,154.511,46.17,154.009,46.672Zm7.531-9.539-2.008,3.012a1.892,1.892,0,0,0,.5,3.012,1.844,1.844,0,0,0,1.506.5,3.806,3.806,0,0,0,2.008-1l2.008-3.012a1.892,1.892,0,0,0-.5-3.012,1.844,1.844,0,0,0-1.506-.5A3.806,3.806,0,0,0,161.539,37.133ZM165.054,7.01a2.365,2.365,0,0,0-.5,3.012,2.365,2.365,0,0,0,3.012.5c2.008-2.008,5.523-1.506,7.531.5,2.51,2.51,2.51,6.025,0,8.033-1,1-1.506,1.506-1.506,2.008L167.564,29.1c-.5,1-.5,2.51.5,3.012a1.844,1.844,0,0,0,1.506.5,3.806,3.806,0,0,0,2.008-1l6.025-8.033q0-.753,1.506-1.506A10.3,10.3,0,0,0,171.58,4.5,14.8,14.8,0,0,0,165.054,7.01Z" transform="translate(-4.9 -4.5)" fill="#f62d2d"/>
    </clipPath>
    <clipPath id="clip-path-5">
      <rect id="Rectangle_283" data-name="Rectangle 283" width="230" height="197" transform="translate(0.103 -0.137)" fill="#f62d2d"/>
    </clipPath>
    <clipPath id="clip-path-6">
      <rect id="Rectangle_282" data-name="Rectangle 282" width="188" height="146" transform="translate(-0.342 0.463)" fill="#f62d2d"/>
    </clipPath>
  </defs>
  <g id="atmosfera" transform="translate(-0.3 -0.1)">
    <g id="Group_240" data-name="Group 240" transform="translate(0.3 0.1)">
      <g id="Group_239" data-name="Group 239" clip-path="url(#clip-path)">
        <g id="Group_238" data-name="Group 238" transform="translate(-25.798 -25.399)">
          <g id="Group_237" data-name="Group 237" transform="translate(0)" clip-path="url(#clip-path-2)">
            <g id="Group_236" data-name="Group 236" transform="translate(25.398 25.399)" clip-path="url(#clip-path-3)">
              <rect id="Rectangle_278" data-name="Rectangle 278" width="272.613" height="250.02" transform="translate(-24.702 -25.102)" fill="#f62d2d"/>
            </g>
          </g>
        </g>
      </g>
    </g>
    <g id="Group_245" data-name="Group 245" transform="translate(23.394 22.19)">
      <g id="Group_244" data-name="Group 244" clip-path="url(#clip-path-4)">
        <g id="Group_243" data-name="Group 243" transform="translate(-27.402 -27.953)">
          <g id="Group_242" data-name="Group 242" transform="translate(0 0)" clip-path="url(#clip-path-5)">
            <g id="Group_241" data-name="Group 241" transform="translate(23.444 25.399)" clip-path="url(#clip-path-6)">
              <rect id="Rectangle_281" data-name="Rectangle 281" width="227.428" height="192.787" transform="translate(-21.145 -22.047)" fill="#f62d2d"/>
            </g>
          </g>
        </g>
      </g>
    </g>
  </g>
</svg>
