<svg xmlns="http://www.w3.org/2000/svg" xmlns:xlink="http://www.w3.org/1999/xlink" width="134.49" height="163.805" viewBox="0 0 134.49 163.805">
  <defs>
    <clipPath id="clip-path">
      <path id="Path_473" data-name="Path 473" d="M25.027.4A4.556,4.556,0,0,0,21.4,4.933V17.325a4.545,4.545,0,0,0,3.022,4.231,4.068,4.068,0,0,0,5.44-3.929v-13A4.132,4.132,0,0,0,25.631.4h-.6" transform="translate(-21.4 -0.4)" fill="#f62d2d"/>
    </clipPath>
    <clipPath id="clip-path-2">
      <path id="Path_474" data-name="Path 474" d="M12.784,4.011a5.406,5.406,0,0,0-.3,4.836L16.411,16.4A4.049,4.049,0,0,0,20.34,18.82a4.875,4.875,0,0,0,2.72-.907,4.545,4.545,0,0,0,.907-5.44L20.037,4.918A4.049,4.049,0,0,0,16.109,2.5a3.85,3.85,0,0,0-3.324,1.511" transform="translate(-12.061 -2.5)" fill="#f62d2d"/>
    </clipPath>
    <clipPath id="clip-path-3">
      <path id="Path_475" data-name="Path 475" d="M3.8,8.92a4.563,4.563,0,0,0,.6,4.836L9.845,19.8a4.809,4.809,0,0,0,3.022,1.511A3.946,3.946,0,0,0,16.494,19.2a4.2,4.2,0,0,0-.6-5.44l-5.44-6.044A4.809,4.809,0,0,0,7.427,6.2,4.817,4.817,0,0,0,3.8,8.92" transform="translate(-3.352 -6.2)" fill="#f62d2d"/>
    </clipPath>
    <clipPath id="clip-path-4">
      <path id="Path_476" data-name="Path 476" d="M33.068,5.322l-3.627,7.253a4.545,4.545,0,0,0,.907,5.44,4.875,4.875,0,0,0,2.72.907A3.927,3.927,0,0,0,36.695,16.5l3.929-7.858A4.333,4.333,0,0,0,38.206,2.6c-.3,0-.907-.3-1.209-.3-1.511.6-3.324,1.511-3.929,3.022" transform="translate(-28.931 -2.3)" fill="#f62d2d"/>
    </clipPath>
    <clipPath id="clip-path-5">
      <path id="Path_477" data-name="Path 477" d="M43.483,7.662,38.345,13.4a4.556,4.556,0,0,0-.6,5.44,4.609,4.609,0,0,0,3.627,2.116,3.72,3.72,0,0,0,3.022-1.511L49.83,13.4a4.219,4.219,0,0,0-1.511-6.649,2.725,2.725,0,0,0-1.511-.3,3.6,3.6,0,0,0-3.324,1.209" transform="translate(-37.082 -6.374)" fill="#f62d2d"/>
    </clipPath>
    <clipPath id="clip-path-6">
      <rect id="Rectangle_275" data-name="Rectangle 275" width="134.49" height="129.352" fill="#f62d2d"/>
    </clipPath>
    <clipPath id="clip-path-7">
      <rect id="Rectangle_274" data-name="Rectangle 274" width="139.05" height="133.208" fill="#f62d2d"/>
    </clipPath>
    <clipPath id="clip-path-8">
      <path id="Path_478" data-name="Path 478" d="M34.83,11.8c-6.044,0-12.693,3.324-15.716,8.16L3.1,43.534c-3.929,5.138-3.627,13,0,17.831L59.31,136.921a10.034,10.034,0,0,0,8.16,4.231,10.463,10.463,0,0,0,8.16-4.231l56.214-75.556c3.627-5.138,3.929-12.693.3-17.831L116.129,19.96c-3.022-4.533-9.973-8.16-16.018-8.16ZM65.657,50.183l-32.64-29.92c.6,0,1.209-.3,1.813-.3h65.885L99.2,21.471a1.7,1.7,0,0,0,0,2.72,2.309,2.309,0,0,0,1.511.6,1.57,1.57,0,0,0,1.209-.6l3.324-2.72A12.184,12.184,0,0,1,109.48,24.8L125.5,48.369c.3.6.6,1.511.907,2.116H73.817L90.44,35.071a1.7,1.7,0,0,0,0-2.72,1.7,1.7,0,0,0-2.72,0L68.075,50.485a.3.3,0,0,1-.3.3l-2.116-.6ZM9.443,48.067,25.461,24.493a7.7,7.7,0,0,1,3.324-2.72L59.915,50.485H8.234A6.075,6.075,0,0,1,9.443,48.067Zm0,8.462a14.734,14.734,0,0,1-.907-2.116H34.226l1.813,4.836a1.879,1.879,0,0,0,1.813,1.209h.6a2.27,2.27,0,0,0,1.209-2.72l-.907-3.324H95.88L67.47,128.459,45.408,71.641a2.1,2.1,0,1,0-3.929,1.511l21.458,55.307Zm90.667-2.116H126.4a14.734,14.734,0,0,1-.907,2.116L71.7,128.761Z" transform="translate(-0.262 -11.8)" fill="#f62d2d"/>
    </clipPath>
    <clipPath id="clip-path-9">
      <rect id="Rectangle_273" data-name="Rectangle 273" width="135.545" height="133.208" fill="#f62d2d"/>
    </clipPath>
    <clipPath id="clip-path-10">
      <path id="Path_479" data-name="Path 479" d="M32.866,16.9l-1.511,1.209a1.7,1.7,0,0,0,0,2.72,2.309,2.309,0,0,0,1.511.6,1.57,1.57,0,0,0,1.209-.6l1.511-1.209a1.7,1.7,0,0,0,0-2.72,2.308,2.308,0,0,0-1.511-.6,2.291,2.291,0,0,0-1.209.6" transform="translate(-30.675 -16.3)" fill="#f62d2d"/>
    </clipPath>
    <clipPath id="clip-path-11">
      <path id="Path_480" data-name="Path 480" d="M14.062,28.3a2.27,2.27,0,0,0-1.209,2.72l.6,1.813a1.879,1.879,0,0,0,1.813,1.209h.6a2.27,2.27,0,0,0,1.209-2.72l-.6-1.813A1.879,1.879,0,0,0,14.666,28.3h-.6" transform="translate(-12.774 -28.3)" fill="#f62d2d"/>
    </clipPath>
  </defs>
  <g id="wysokie-wynagrodzenie" transform="translate(-0.3 -0.4)">
    <g id="Group_207" data-name="Group 207" transform="translate(64.069 0.4)">
      <g id="Group_206" data-name="Group 206" transform="translate(0 0)">
        <g id="Group_205" data-name="Group 205" clip-path="url(#clip-path)">
          <rect id="Rectangle_267" data-name="Rectangle 267" width="38.685" height="51.378" transform="translate(-15.111 -15.111)" fill="#f62d2d"/>
        </g>
      </g>
    </g>
    <g id="Group_210" data-name="Group 210" transform="translate(35.843 6.747)">
      <g id="Group_209" data-name="Group 209" transform="translate(0 0)">
        <g id="Group_208" data-name="Group 208" clip-path="url(#clip-path-2)">
          <rect id="Rectangle_268" data-name="Rectangle 268" width="42.614" height="46.543" transform="translate(-15.294 -15.111)" fill="#f62d2d"/>
        </g>
      </g>
    </g>
    <g id="Group_213" data-name="Group 213" transform="translate(9.523 17.929)">
      <g id="Group_212" data-name="Group 212" transform="translate(0 0)">
        <g id="Group_211" data-name="Group 211" clip-path="url(#clip-path-3)">
          <rect id="Rectangle_269" data-name="Rectangle 269" width="44.125" height="45.031" transform="translate(-15.267 -14.809)" fill="#f62d2d"/>
        </g>
      </g>
    </g>
    <g id="Group_216" data-name="Group 216" transform="translate(86.831 6.142)">
      <g id="Group_215" data-name="Group 215">
        <g id="Group_214" data-name="Group 214" clip-path="url(#clip-path-4)">
          <rect id="Rectangle_270" data-name="Rectangle 270" width="42.614" height="46.543" transform="translate(-15.206 -14.507)" fill="#f62d2d"/>
        </g>
      </g>
    </g>
    <g id="Group_219" data-name="Group 219" transform="translate(111.464 18.455)">
      <g id="Group_218" data-name="Group 218" transform="translate(0 0)">
        <g id="Group_217" data-name="Group 217" clip-path="url(#clip-path-5)">
          <rect id="Rectangle_271" data-name="Rectangle 271" width="44.125" height="45.031" transform="translate(-15.359 -15.335)" fill="#f62d2d"/>
        </g>
      </g>
    </g>
    <g id="Group_229" data-name="Group 229" transform="translate(0.3 34.854)">
      <g id="Group_228" data-name="Group 228">
        <g id="Group_227" data-name="Group 227" clip-path="url(#clip-path-6)">
          <g id="Group_226" data-name="Group 226" transform="translate(-3.506 -1.735)">
            <g id="Group_225" data-name="Group 225" transform="translate(0 0)">
              <g id="Group_224" data-name="Group 224" clip-path="url(#clip-path-7)">
                <g id="Group_223" data-name="Group 223" transform="translate(3.391 1.735)">
                  <g id="Group_222" data-name="Group 222" transform="translate(0)" clip-path="url(#clip-path-8)">
                    <g id="Group_221" data-name="Group 221" transform="translate(0.114 -1.736)">
                      <g id="Group_220" data-name="Group 220" transform="translate(0 0)" clip-path="url(#clip-path-9)">
                        <rect id="Rectangle_272" data-name="Rectangle 272" width="164.713" height="159.575" transform="translate(-15.111 -13.376)" fill="#f62d2d"/>
                      </g>
                    </g>
                  </g>
                </g>
              </g>
            </g>
          </g>
        </g>
      </g>
    </g>
    <g id="Group_232" data-name="Group 232" transform="translate(92.101 48.454)">
      <g id="Group_231" data-name="Group 231">
        <g id="Group_230" data-name="Group 230" clip-path="url(#clip-path-10)">
          <rect id="Rectangle_276" data-name="Rectangle 276" width="35.663" height="35.663" transform="translate(-15.036 -15.111)" fill="#f62d2d"/>
        </g>
      </g>
    </g>
    <g id="Group_235" data-name="Group 235" transform="translate(37.999 84.721)">
      <g id="Group_234" data-name="Group 234">
        <g id="Group_233" data-name="Group 233" clip-path="url(#clip-path-11)">
          <rect id="Rectangle_277" data-name="Rectangle 277" width="35.058" height="35.965" transform="translate(-15.033 -15.111)" fill="#f62d2d"/>
        </g>
      </g>
    </g>
  </g>
</svg>
