<svg xmlns="http://www.w3.org/2000/svg" width="160.175" height="204.623" viewBox="0 0 160.175 204.623">
  <g id="ksiazki" transform="translate(-0.5 -0.5)">
    <path id="Path_507" data-name="Path 507" d="M16.209,159.468H33.027V5.7H16.209A8.458,8.458,0,0,0,7.8,14.109V151.058A8.211,8.211,0,0,0,16.209,159.468Z" transform="translate(21.932 15.623)" fill="none"/>
    <path id="Path_508" data-name="Path 508" d="M14.711,46.1,4.7,56.111a17.82,17.82,0,0,0,9.21,2.8H97.6a18.526,18.526,0,0,0,10.011-3.2l9.21-6.407h-91.7A17.848,17.848,0,0,1,14.711,46.1Z" transform="translate(12.618 136.999)" fill="none"/>
    <path id="Path_509" data-name="Path 509" d="M11.91,135.135V11L5.9,20.21A17.522,17.522,0,0,0,2.7,30.221V146.748a18.227,18.227,0,0,0,2,8.009l9.61-10.011A19.024,19.024,0,0,1,11.91,135.135Z" transform="translate(6.61 31.546)" fill="none"/>
    <path id="Path_510" data-name="Path 510" d="M95.988,5.8h-9.21V33.831a2.854,2.854,0,0,1-1.2,2.4,2.408,2.408,0,0,1-1.6.4c-.4,0-.8-.4-1.2-.4L67.156,28.625,51.539,36.233a3.42,3.42,0,0,1-2.8,0,2.854,2.854,0,0,1-1.2-2.4V5.8H15.5V159.167H95.988a8.458,8.458,0,0,0,8.409-8.409V14.209A8.458,8.458,0,0,0,95.988,5.8Zm-4,103.313c.8-.4,1.2-.8,2-.8a2.737,2.737,0,1,1-2,.8Zm6.807,25.228c0,11.613-7.208,19.221-15.217,19.221H37.524a2.8,2.8,0,1,1,0-5.606h46.05c4.4,0,9.61-5.206,9.61-13.615v-8.81a3.009,3.009,0,0,1,2.8-2.8,2.737,2.737,0,0,1,2.8,2.8S98.791,134.34,98.791,134.34Z" transform="translate(45.065 15.923)" fill="none"/>
    <path id="Path_511" data-name="Path 511" d="M141.053,10.11h-9.21V.5H92.6A3.9,3.9,0,0,0,89,2.1L80.988,10.11H38.141A20.174,20.174,0,0,0,18.92,25.327L4.9,46.951A28.2,28.2,0,0,0,.5,62.167V178.694a26.4,26.4,0,0,0,26.429,26.429h82.89a25.482,25.482,0,0,0,15.217-4.805L146.659,185.5a19.827,19.827,0,0,0,14.015-18.821V29.732A19.653,19.653,0,0,0,141.053,10.11ZM98.207,21.723V6.106h28.031V45.349l-12.814-6.007c-.4,0-.8-.4-1.2-.4a1.471,1.471,0,0,0-1.2.4L98.207,45.349ZM29.732,30.132h0a8.551,8.551,0,0,1,8.409-8.81H54.959V175.09H38.141a8.211,8.211,0,0,1-8.409-8.409S29.732,30.132,29.732,30.132ZM9.31,178.294V61.767a17.522,17.522,0,0,1,3.2-10.011l6.007-9.21V166.681a19.024,19.024,0,0,0,2.4,9.61L11.312,186.3A18.228,18.228,0,0,1,9.31,178.294ZM120.231,192.71a18.526,18.526,0,0,1-10.011,3.2H26.528a17.82,17.82,0,0,1-9.21-2.8L27.329,183.1a19.848,19.848,0,0,0,10.411,3.2h91.7Zm29.232-26.028a8.458,8.458,0,0,1-8.409,8.409H60.565V21.723H92.6V49.754a2.854,2.854,0,0,0,1.2,2.4,3.42,3.42,0,0,0,2.8,0l15.617-7.608,15.617,7.608c.4,0,.8.4,1.2.4a2.408,2.408,0,0,0,1.6-.4,2.854,2.854,0,0,0,1.2-2.4V21.723h9.21a8.458,8.458,0,0,1,8.409,8.409S149.462,166.681,149.462,166.681Z" fill="#f62d2d"/>
    <path id="Path_512" data-name="Path 512" d="M81.567,35a3.009,3.009,0,0,0-2.8,2.8v8.81c0,8.409-5.206,13.615-9.61,13.615H23.1a2.8,2.8,0,1,0,0,5.606h46.05c8.009,0,15.217-7.608,15.217-19.221V37.8A2.737,2.737,0,0,0,81.567,35Z" transform="translate(59.486 103.651)" fill="#f62d2d"/>
    <path id="Path_513" data-name="Path 513" d="M37.2,37.006a2.832,2.832,0,0,0,2-4.805,3.059,3.059,0,0,0-2-.8c-.8,0-1.2.4-2,.8a2.8,2.8,0,0,0,2,4.805Z" transform="translate(101.848 92.835)" fill="#f62d2d"/>
    <path id="Path_514" data-name="Path 514" d="M38.915,34.736c.4,0,.8.4,1.2.4l12.814,6.007V1.9H24.9V41.143l12.814-6.007A1.471,1.471,0,0,1,38.915,34.736Z" transform="translate(73.307 4.206)" fill="#f62d2d"/>
  </g>
</svg>
