<svg id="najnowsze-oprogramowanie" xmlns="http://www.w3.org/2000/svg" xmlns:xlink="http://www.w3.org/1999/xlink" width="142.43" height="127.582" viewBox="0 0 142.43 127.582">
  <defs>
    <clipPath id="clip-path">
      <path id="Path_543" data-name="Path 543" d="M8.788,112.126V15.152c0-3.637,1.818-6.667,5.455-6.667H51.82l4.546,18.789a4.861,4.861,0,0,0,4.243,3.333H125.46c3.637,0,7.879,3.03,7.879,6.667v74.852c0,3.637-4.243,6.364-7.879,6.364H14.243C10.607,118.49,8.788,115.762,8.788,112.126ZM14.243,0C5.758,0,0,6.97,0,15.455v96.974c0,8.485,5.758,15.152,14.243,15.152h111.52c8.485,0,16.667-6.667,16.667-15.152V37.274c0-8.485-8.182-15.455-16.667-15.455H64.245L59.7,3.333A4.545,4.545,0,0,0,55.457,0Z" fill="#f62d2d"/>
    </clipPath>
    <clipPath id="clip-path-2">
      <rect id="Rectangle_446" data-name="Rectangle 446" width="176" height="157" transform="translate(0.041 0.033)" fill="#f62d2d"/>
    </clipPath>
    <clipPath id="clip-path-3">
      <rect id="Rectangle_445" data-name="Rectangle 445" width="142" height="127" transform="translate(0.007)" fill="#f62d2d"/>
    </clipPath>
    <clipPath id="clip-path-4">
      <path id="Path_544" data-name="Path 544" d="M58.489,33.121V40.7c0,4.546-2.727,4.849-4.849,4.849H31.821a2.121,2.121,0,0,0,0,4.243H53.64c5.152,0,9.091-3.03,9.091-9.091V33.121a2.121,2.121,0,1,0-4.243,0Z" transform="translate(-29.7 -31)" fill="#f62d2d"/>
    </clipPath>
    <clipPath id="clip-path-5">
      <rect id="Rectangle_449" data-name="Rectangle 449" width="67" height="51" transform="translate(0.494 0.297)" fill="#f62d2d"/>
    </clipPath>
    <clipPath id="clip-path-6">
      <rect id="Rectangle_448" data-name="Rectangle 448" width="36" height="21" transform="translate(0.46 0.262)" fill="#f62d2d"/>
    </clipPath>
    <clipPath id="clip-path-7">
      <path id="Path_545" data-name="Path 545" d="M39.406,28.406a2.2,2.2,0,1,0,1.515-.606A5.12,5.12,0,0,0,39.406,28.406Z" transform="translate(-38.8 -27.8)" fill="#f62d2d"/>
    </clipPath>
    <clipPath id="clip-path-8">
      <rect id="Rectangle_452" data-name="Rectangle 452" width="40" height="40" transform="translate(0.08 -0.324)" fill="#f62d2d"/>
    </clipPath>
    <clipPath id="clip-path-9">
      <rect id="Rectangle_451" data-name="Rectangle 451" width="9" height="9" transform="translate(0.047 -0.239)" fill="#f62d2d"/>
    </clipPath>
  </defs>
  <g id="Group_677" data-name="Group 677">
    <g id="Group_676" data-name="Group 676">
      <g id="Group_675" data-name="Group 675" clip-path="url(#clip-path)">
        <g id="Group_674" data-name="Group 674" transform="translate(-14.978 -15.033)">
          <g id="Group_673" data-name="Group 673" transform="translate(0 0)">
            <g id="Group_672" data-name="Group 672" clip-path="url(#clip-path-2)">
              <g id="Group_671" data-name="Group 671" transform="translate(15.033 15.033)">
                <g id="Group_670" data-name="Group 670" transform="translate(0)" clip-path="url(#clip-path-3)">
                  <rect id="Rectangle_444" data-name="Rectangle 444" width="172" height="157" transform="translate(-14.993 -15)" fill="#f62d2d"/>
                </g>
              </g>
            </g>
          </g>
        </g>
      </g>
    </g>
  </g>
  <g id="Group_685" data-name="Group 685" transform="translate(90.004 93.943)">
    <g id="Group_684" data-name="Group 684">
      <g id="Group_683" data-name="Group 683" clip-path="url(#clip-path-4)">
        <g id="Group_682" data-name="Group 682" transform="translate(-17.434 -15.24)">
          <g id="Group_681" data-name="Group 681" transform="translate(0 0)">
            <g id="Group_680" data-name="Group 680" clip-path="url(#clip-path-5)">
              <g id="Group_679" data-name="Group 679" transform="translate(15.034 15.035)">
                <g id="Group_678" data-name="Group 678" transform="translate(0 0)" clip-path="url(#clip-path-6)">
                  <rect id="Rectangle_447" data-name="Rectangle 447" width="63.033" height="49.093" transform="translate(-12.751 -14.947)" fill="#f62d2d"/>
                </g>
              </g>
            </g>
          </g>
        </g>
      </g>
    </g>
  </g>
  <g id="Group_693" data-name="Group 693" transform="translate(117.581 84.246)">
    <g id="Group_692" data-name="Group 692">
      <g id="Group_691" data-name="Group 691" clip-path="url(#clip-path-7)">
        <g id="Group_690" data-name="Group 690" transform="translate(-17.597 -17.922)">
          <g id="Group_689" data-name="Group 689" transform="translate(0 0)">
            <g id="Group_688" data-name="Group 688" clip-path="url(#clip-path-8)">
              <g id="Group_687" data-name="Group 687" transform="translate(15.033 15.916)">
                <g id="Group_686" data-name="Group 686" transform="translate(0 0)" clip-path="url(#clip-path-9)">
                  <rect id="Rectangle_450" data-name="Rectangle 450" width="34.547" height="34.547" transform="translate(-12.588 -13.146)" fill="#f62d2d"/>
                </g>
              </g>
            </g>
          </g>
        </g>
      </g>
    </g>
  </g>
</svg>
