<svg xmlns="http://www.w3.org/2000/svg" xmlns:xlink="http://www.w3.org/1999/xlink" width="234.82" height="137.391" viewBox="0 0 234.82 137.391">
  <defs>
    <clipPath id="clip-path">
      <path id="Path_528" data-name="Path 528" d="M175.649,118.662a4.628,4.628,0,0,0,4.567-4.567h39.961a6.011,6.011,0,0,1,6.089,6.089v3.425a6.011,6.011,0,0,1-6.089,6.089H86.212a6.011,6.011,0,0,1-6.089-6.089v-3.425a5.425,5.425,0,0,1,2.284-4.567h44.148a4.589,4.589,0,0,0,4.567,3.045ZM62.616,115.617v-2.284H73.272l-1.142,2.284a19.1,19.1,0,0,0-.761,4.567v3.425a11.168,11.168,0,0,0,1.522,6.089H62.235V115.617h.381ZM8.953,97.73V88.6H83.167v15.6H15.423A6.415,6.415,0,0,1,8.953,97.73ZM91.54,104.2V35.314a6.011,6.011,0,0,1,6.089-6.089H208a6.011,6.011,0,0,1,6.089,6.089h0v70.027H91.54ZM8.953,24.657H87.734a15.263,15.263,0,0,0-4.567,10.656v49.1H8.953Zm0-9.134a6.669,6.669,0,0,1,6.47-6.47H130.74a6.669,6.669,0,0,1,6.47,6.47V20.09H8.953ZM15.423.3A15.268,15.268,0,0,0,.2,15.523V97.73a15.268,15.268,0,0,0,15.223,15.223H53.482v16.365H42.064a4.186,4.186,0,1,0,0,8.373H220.178a14.861,14.861,0,0,0,14.843-14.843v-3.425a14.694,14.694,0,0,0-11.8-14.462v-.381h0V35.314A14.861,14.861,0,0,0,208.38,20.471H146.344V15.523A15.268,15.268,0,0,0,131.121.3Z" transform="translate(-0.2 -0.3)" fill="#f62d2d"/>
    </clipPath>
    <clipPath id="clip-path-2">
      <rect id="Rectangle_397" data-name="Rectangle 397" width="274.021" height="178.875" fill="#f62d2d"/>
    </clipPath>
    <clipPath id="clip-path-3">
      <rect id="Rectangle_396" data-name="Rectangle 396" width="235.962" height="140.816" transform="translate(0 0)" fill="#f62d2d"/>
    </clipPath>
    <clipPath id="clip-path-4">
      <path id="Path_529" data-name="Path 529" d="M34.366,19.222l-.761,1.522a1.966,1.966,0,0,0,1.142,2.664h.761a1.942,1.942,0,0,0,1.9-1.522l.761-1.522A1.966,1.966,0,0,0,37.03,17.7h-.761A1.942,1.942,0,0,0,34.366,19.222Z" transform="translate(-33.463 -17.7)" fill="#f62d2d"/>
    </clipPath>
    <clipPath id="clip-path-5">
      <rect id="Rectangle_400" data-name="Rectangle 400" width="45.67" height="49.476" fill="#f62d2d"/>
    </clipPath>
    <clipPath id="clip-path-6">
      <rect id="Rectangle_399" data-name="Rectangle 399" width="7.612" height="11.418" fill="#f62d2d"/>
    </clipPath>
    <clipPath id="clip-path-7">
      <path id="Path_530" data-name="Path 530" d="M37.595,21.022l-3.806,9.515-1.9,4.567-.381,1.522a1.966,1.966,0,0,0,1.142,2.664h.761a1.942,1.942,0,0,0,1.9-1.522l1.142-3.045,1.9-4.567L41.4,22.164A1.966,1.966,0,0,0,40.259,19.5H39.5A1.942,1.942,0,0,0,37.595,21.022Z" transform="translate(-31.362 -19.5)" fill="#f62d2d"/>
    </clipPath>
    <clipPath id="clip-path-8">
      <rect id="Rectangle_403" data-name="Rectangle 403" width="49.476" height="60.893" fill="#f62d2d"/>
    </clipPath>
    <clipPath id="clip-path-9">
      <rect id="Rectangle_402" data-name="Rectangle 402" width="11.418" height="22.835" transform="translate(0 0)" fill="#f62d2d"/>
    </clipPath>
    <clipPath id="clip-path-10">
      <path id="Path_531" data-name="Path 531" d="M38.059,15.322,29.305,37.777a1.966,1.966,0,0,0,1.142,2.664h.761a1.942,1.942,0,0,0,1.9-1.522l8.753-22.454A1.966,1.966,0,0,0,40.723,13.8h-.761C39.2,13.8,38.059,14.561,38.059,15.322Z" transform="translate(-29.162 -13.8)" fill="#f62d2d"/>
    </clipPath>
    <clipPath id="clip-path-11">
      <rect id="Rectangle_406" data-name="Rectangle 406" width="57.088" height="68.505" fill="#f62d2d"/>
    </clipPath>
    <clipPath id="clip-path-12">
      <rect id="Rectangle_405" data-name="Rectangle 405" width="19.029" height="30.447" transform="translate(0)" fill="#f62d2d"/>
    </clipPath>
    <clipPath id="clip-path-13">
      <path id="Path_532" data-name="Path 532" d="M29.352,23.4l-.381,1.142-.761,1.9a1.83,1.83,0,0,0,.761,2.284l.381.381h.761a1.4,1.4,0,0,0,1.142-.381l.761-.761,1.142-3.425v-.381A2.322,2.322,0,0,0,32.016,21.5h-.761C30.494,22.261,29.732,22.642,29.352,23.4Z" transform="translate(-28.061 -21.5)" fill="#f62d2d"/>
    </clipPath>
    <clipPath id="clip-path-14">
      <rect id="Rectangle_409" data-name="Rectangle 409" width="49.476" height="49.476" fill="#f62d2d"/>
    </clipPath>
    <clipPath id="clip-path-15">
      <rect id="Rectangle_408" data-name="Rectangle 408" width="11.418" height="11.418" transform="translate(0 0)" fill="#f62d2d"/>
    </clipPath>
  </defs>
  <g id="mac-book-pro" transform="translate(-0.2 -0.301)">
    <g id="Group_551" data-name="Group 551" transform="translate(0.2 0.3)">
      <g id="Group_550" data-name="Group 550">
        <g id="Group_549" data-name="Group 549" clip-path="url(#clip-path)">
          <g id="Group_548" data-name="Group 548" transform="translate(-19.029 -19.41)">
            <g id="Group_547" data-name="Group 547">
              <g id="Group_546" data-name="Group 546" clip-path="url(#clip-path-2)">
                <g id="Group_545" data-name="Group 545" transform="translate(19.029 19.029)">
                  <g id="Group_544" data-name="Group 544" transform="translate(0 0)" clip-path="url(#clip-path-3)">
                    <rect id="Rectangle_395" data-name="Rectangle 395" width="272.498" height="175.83" transform="translate(-19.029 -18.649)" fill="#f62d2d"/>
                  </g>
                </g>
              </g>
            </g>
          </g>
        </g>
      </g>
    </g>
    <g id="Group_559" data-name="Group 559" transform="translate(126.792 66.522)">
      <g id="Group_558" data-name="Group 558">
        <g id="Group_557" data-name="Group 557" clip-path="url(#clip-path-4)">
          <g id="Group_556" data-name="Group 556" transform="translate(-20.028 -20.932)">
            <g id="Group_555" data-name="Group 555">
              <g id="Group_554" data-name="Group 554" clip-path="url(#clip-path-5)">
                <g id="Group_553" data-name="Group 553" transform="translate(19.029 19.029)">
                  <g id="Group_552" data-name="Group 552" clip-path="url(#clip-path-6)">
                    <rect id="Rectangle_398" data-name="Rectangle 398" width="43.006" height="43.767" transform="translate(-17.887 -17.126)" fill="#f62d2d"/>
                  </g>
                </g>
              </g>
            </g>
          </g>
        </g>
      </g>
    </g>
    <g id="Group_567" data-name="Group 567" transform="translate(118.8 73.372)">
      <g id="Group_566" data-name="Group 566">
        <g id="Group_565" data-name="Group 565" clip-path="url(#clip-path-7)">
          <g id="Group_564" data-name="Group 564" transform="translate(-19.648 -20.171)">
            <g id="Group_563" data-name="Group 563">
              <g id="Group_562" data-name="Group 562" clip-path="url(#clip-path-8)">
                <g id="Group_561" data-name="Group 561" transform="translate(19.029 19.029)">
                  <g id="Group_560" data-name="Group 560" clip-path="url(#clip-path-9)">
                    <rect id="Rectangle_401" data-name="Rectangle 401" width="48.334" height="57.849" transform="translate(-18.268 -17.887)" fill="#f62d2d"/>
                  </g>
                </g>
              </g>
            </g>
          </g>
        </g>
      </g>
    </g>
    <g id="Group_575" data-name="Group 575" transform="translate(110.427 51.679)">
      <g id="Group_574" data-name="Group 574">
        <g id="Group_573" data-name="Group 573" clip-path="url(#clip-path-10)">
          <g id="Group_572" data-name="Group 572" transform="translate(-22.692 -21.313)">
            <g id="Group_571" data-name="Group 571">
              <g id="Group_570" data-name="Group 570" clip-path="url(#clip-path-11)">
                <g id="Group_569" data-name="Group 569" transform="translate(19.029 19.029)">
                  <g id="Group_568" data-name="Group 568" clip-path="url(#clip-path-12)">
                    <rect id="Rectangle_404" data-name="Rectangle 404" width="50.998" height="64.699" transform="translate(-15.604 -16.746)" fill="#f62d2d"/>
                  </g>
                </g>
              </g>
            </g>
          </g>
        </g>
      </g>
    </g>
    <g id="Group_583" data-name="Group 583" transform="translate(106.234 80.984)">
      <g id="Group_582" data-name="Group 582">
        <g id="Group_581" data-name="Group 581" clip-path="url(#clip-path-13)">
          <g id="Group_580" data-name="Group 580" transform="translate(-22.305 -20.171)">
            <g id="Group_579" data-name="Group 579">
              <g id="Group_578" data-name="Group 578" clip-path="url(#clip-path-14)">
                <g id="Group_577" data-name="Group 577" transform="translate(19.029 19.029)">
                  <g id="Group_576" data-name="Group 576" clip-path="url(#clip-path-15)">
                    <rect id="Rectangle_407" data-name="Rectangle 407" width="43.387" height="45.67" transform="translate(-15.985 -17.126)" fill="#f62d2d"/>
                  </g>
                </g>
              </g>
            </g>
          </g>
        </g>
      </g>
    </g>
  </g>
</svg>
