<svg xmlns="http://www.w3.org/2000/svg" width="194.339" height="172.094" viewBox="0 0 194.339 172.094">
  <g id="ASSETY" transform="translate(0 -0.707)">
    <g id="medicover-copy" transform="translate(0 0.707)">
      <g id="Group-10">
        <g id="Group-3">
          <path id="Fill-1" d="M54.408,12.452A41.025,41.025,0,0,0,25.7,23.958l-1.408,1.365a38.135,38.135,0,0,0,0,55.335,5.54,5.54,0,0,1,.388.411c20.159,23.5,59.9,69.511,66.031,75.442,2.766,2.673,5,4.029,6.657,4.032,2.062,0,4.766-2.193,6.666-4.032,7.088-6.861,46.014-52.335,65.6-75.419.13-.153.267-.3.409-.435a38.136,38.136,0,0,0,0-55.335l-1.408-1.365a41.57,41.57,0,0,0-57.052-.345,17.882,17.882,0,0,1-14.417,6.729,18.99,18.99,0,0,1-14.3-6.618A41.03,41.03,0,0,0,54.408,12.452m42.96,160.093c-6.84,0-12.08-4.311-15.425-7.549-7.919-7.662-62.425-71.158-66.627-76.055a49.858,49.858,0,0,1,.208-72.106l1.408-1.362A53.549,53.549,0,0,1,54.408.452,53.56,53.56,0,0,1,91.883,15.473a6.375,6.375,0,0,1,.632.717,6.556,6.556,0,0,0,4.654,2.151,5.485,5.485,0,0,0,4.48-1.905,4.569,4.569,0,0,1,.806-.963,54.257,54.257,0,0,1,74.951,0l1.408,1.362a49.857,49.857,0,0,1,.22,72.094C174.843,93.868,121.911,156.182,112.8,165c-3.349,3.24-8.592,7.549-15.435,7.549" transform="translate(0 -0.452)" fill="#f62d2d" fill-rule="evenodd"/>
        </g>
        <path id="Fill-4" d="M8.731,33.258A3.3,3.3,0,0,1,7.9,33.15a2.992,2.992,0,0,1-2.164-3.69A30.894,30.894,0,0,1,14,15.752l.871-.843A32.667,32.667,0,0,1,44.9,6.62a3,3,0,0,1,2.316,3.6A3.111,3.111,0,0,1,43.5,12.464a26.366,26.366,0,0,0-24.24,6.687l-.871.843a24.922,24.922,0,0,0-6.672,11.059,3.091,3.091,0,0,1-2.986,2.205" transform="translate(18.269 15.807)" fill="#f62d2d" fill-rule="evenodd"/>
        <path id="Fill-6" d="M23.235,16.086a3.146,3.146,0,0,1-2.192-.879,25.829,25.829,0,0,0-3.367-2.748,2.939,2.939,0,0,1-.735-4.185,3.159,3.159,0,0,1,4.319-.711,31.751,31.751,0,0,1,4.167,3.4,2.929,2.929,0,0,1,0,4.242,3.146,3.146,0,0,1-2.192.879" transform="translate(53.136 19.751)" fill="#f62d2d" fill-rule="evenodd"/>
        <path id="Fill-8" d="M23.886,46.38a5.819,5.819,0,1,0,0,11.632H47.894c1.475,0,3.215,1.157,3.215,2.588V84.51a6.014,6.014,0,0,0,12.021,0V60.6c0-1.431.654-2.588,2.129-2.588h24.08a5.819,5.819,0,1,0,0-11.632H65.26c-1.475,0-2.129-1.157-2.129-2.584V21.178a6.014,6.014,0,0,0-12.021,0V43.8c0,1.427-1.741,2.584-3.215,2.584ZM57.122,95.5A11.186,11.186,0,0,1,45.769,84.51V63.184H23.886a10.992,10.992,0,1,1,0-21.972H45.769V21.178a11.36,11.36,0,0,1,22.707,0V41.212H89.339a10.992,10.992,0,1,1,0,21.972H68.475V84.51A11.186,11.186,0,0,1,57.122,95.5Z" transform="translate(40.685 30.085)" fill="#f62d2d" fill-rule="evenodd"/>
      </g>
    </g>
  </g>
</svg>
