<svg xmlns="http://www.w3.org/2000/svg" xmlns:xlink="http://www.w3.org/1999/xlink" width="152.748" height="140.186" viewBox="0 0 152.748 140.186">
  <defs>
    <clipPath id="clip-path">
      <path id="Path_468" data-name="Path 468" d="M8.612,83.632V32.078a6.987,6.987,0,0,1,6.967-6.967H36.827a6.987,6.987,0,0,1,6.967,6.967v51.9a6.987,6.987,0,0,1-6.967,6.967H15.578A7.541,7.541,0,0,1,8.612,83.632ZM15.578,17.1A14.868,14.868,0,0,0,.6,32.078v51.9A14.867,14.867,0,0,0,15.578,98.958H36.827A14.868,14.868,0,0,0,51.805,83.98v-51.9A14.868,14.868,0,0,0,36.827,17.1Z" transform="translate(-0.6 -17.1)" fill="#f62d2d"/>
    </clipPath>
    <clipPath id="clip-path-2">
      <rect id="Rectangle_254" data-name="Rectangle 254" width="90.567" height="118.434" fill="#f62d2d"/>
    </clipPath>
    <clipPath id="clip-path-3">
      <rect id="Rectangle_253" data-name="Rectangle 253" width="55.733" height="83.6" fill="#f62d2d"/>
    </clipPath>
    <clipPath id="clip-path-4">
      <path id="Path_469" data-name="Path 469" d="M10.48,33.5A4.236,4.236,0,0,0,6.3,37.68v1.045a4.236,4.236,0,0,0,4.18,4.18h1.045a4.236,4.236,0,0,0,4.18-4.18V37.68a4.236,4.236,0,0,0-4.18-4.18Z" transform="translate(-6.3 -33.5)" fill="#f62d2d"/>
    </clipPath>
    <clipPath id="clip-path-5">
      <rect id="Rectangle_257" data-name="Rectangle 257" width="45.283" height="48.767" fill="#f62d2d"/>
    </clipPath>
    <clipPath id="clip-path-6">
      <rect id="Rectangle_256" data-name="Rectangle 256" width="10.45" height="13.933" transform="translate(0 0)" fill="#f62d2d"/>
    </clipPath>
    <clipPath id="clip-path-7">
      <path id="Path_470" data-name="Path 470" d="M26.012,120.786V63.31l.348-1.393v-.7c1.045-3.135,6.27-11.147,10.1-17.765,4.528-7.315,9.057-13.933,10.8-18.113C49.7,19.42,50.047,12.8,50.047,8.622H51.44a6.562,6.562,0,0,1,2.787.7c4.528,3.135,9.057,6.967,8.36,16.372A33.156,33.156,0,0,1,59.1,35.444a90.716,90.716,0,0,0-3.483,8.708,26.364,26.364,0,0,0-.348,5.225v3.832a5.885,5.885,0,0,0,1.045,3.483,4.156,4.156,0,0,0,3.135,1.742h1.393a170.2,170.2,0,0,0,18.81,1.045H93.588a10.843,10.843,0,0,1,6.618,3.832,9.177,9.177,0,0,1,2.09,7.315,8.6,8.6,0,0,1-4.18,6.618c-3.135,2.09-4.18,7.663-2.09,10.8a6.866,6.866,0,0,1,1.045,5.225,8.258,8.258,0,0,1-3.135,5.225c-3.135,2.438-3.135,8.012-2.09,10.45a4.918,4.918,0,0,1,.348,3.135,6.934,6.934,0,0,1-2.787,4.18c-1.393.7-2.438,2.438-3.135,4.18a7.024,7.024,0,0,0,.7,5.922,4.418,4.418,0,0,1,.348,2.09c0,1.393-1.393,2.09-2.438,2.438-.348,0-.7.348-1.045.348-1.393.7-5.225.7-6.618.7H64.328c-3.832,0-7.315,0-10.8.348-2.787,0-5.573.348-8.012.348C33.675,131.932,28.45,130.539,26.012,120.786ZM48.653.61,42.035,2V8.622c0,3.135-.348,9.057-2.09,13.585-1.393,3.483-5.573,10.45-10.1,16.72C23.922,48.332,19.742,54.6,18.7,58.782c0,.7-.348,1.393-.348,2.09v.348L18,62.265v59.565l.348,1.045c3.832,16.372,15.327,17.765,26.822,17.765a61.663,61.663,0,0,0,8.012-.348h.7c3.135,0,6.618-.348,10.1-.348H77.217c5.225,0,8.012-.348,10.45-1.742a11.357,11.357,0,0,0,7.663-9.057,10.727,10.727,0,0,0-1.045-6.618,14.323,14.323,0,0,0,5.922-9.405,13.449,13.449,0,0,0-1.045-7.315v-1.045a14.835,14.835,0,0,0,5.573-10.1,16.618,16.618,0,0,0-2.09-10.1v-.348a18.608,18.608,0,0,0,7.315-12.192,17.862,17.862,0,0,0-3.483-13.237,17.433,17.433,0,0,0-11.843-6.967H80A132.22,132.22,0,0,1,63.98,50.77V49.725c0-1.393,0-2.787.348-3.135a67.76,67.76,0,0,1,2.787-7.663c1.742-3.832,3.483-8.012,3.832-12.192C72.34,11.757,63.283,5.487,59.1,2.7A13.709,13.709,0,0,0,51.788.61,9.406,9.406,0,0,0,48.653.61Z" transform="translate(-18 -0.456)" fill="#f62d2d"/>
    </clipPath>
    <clipPath id="clip-path-8">
      <rect id="Rectangle_260" data-name="Rectangle 260" width="132.367" height="177.65" fill="#f62d2d"/>
    </clipPath>
    <clipPath id="clip-path-9">
      <rect id="Rectangle_259" data-name="Rectangle 259" width="97.534" height="142.817" fill="#f62d2d"/>
    </clipPath>
    <clipPath id="clip-path-10">
      <path id="Path_471" data-name="Path 471" d="M30.8,37.19c0,1.393,1.045,2.09,2.438,2.09.348,0,.348-.348.7-.348h0a2.106,2.106,0,0,0,2.09-1.045c0-.348.348,0,.348-.348,0-2.438-2.438-2.438-3.135-2.438C31.845,35.1,30.8,35.8,30.8,37.19Z" transform="translate(-30.8 -35.1)" fill="#f62d2d"/>
    </clipPath>
    <clipPath id="clip-path-11">
      <rect id="Rectangle_263" data-name="Rectangle 263" width="45.283" height="41.8" fill="#f62d2d"/>
    </clipPath>
    <clipPath id="clip-path-12">
      <rect id="Rectangle_262" data-name="Rectangle 262" width="10.45" height="6.967" transform="translate(0)" fill="#f62d2d"/>
    </clipPath>
    <clipPath id="clip-path-13">
      <path id="Path_472" data-name="Path 472" d="M23.094,34.4a2.238,2.238,0,0,0-.348,3.135c4.528,5.225,9.405,6.27,14.978,6.27a44.415,44.415,0,0,0,6.618-.348,13.067,13.067,0,0,0,3.483-.348,1.96,1.96,0,0,0,2.09-2.438,1.96,1.96,0,0,0-2.438-2.09,11.85,11.85,0,0,0-3.483.348c-8.36.7-13.237,1.045-17.765-4.528-.348-.7-1.045-.7-1.742-.7C24.139,33.7,23.791,34.048,23.094,34.4Z" transform="translate(-22.261 -33.7)" fill="#f62d2d"/>
    </clipPath>
    <clipPath id="clip-path-14">
      <rect id="Rectangle_266" data-name="Rectangle 266" width="66.183" height="48.767" fill="#f62d2d"/>
    </clipPath>
    <clipPath id="clip-path-15">
      <rect id="Rectangle_265" data-name="Rectangle 265" width="31.35" height="13.933" transform="translate(0 0)" fill="#f62d2d"/>
    </clipPath>
  </defs>
  <g id="stabilne-zatrudnienie" transform="translate(-0.6 -0.455)">
    <g id="Group_172" data-name="Group 172" transform="translate(0.6 58.434)">
      <g id="Group_171" data-name="Group 171">
        <g id="Group_170" data-name="Group 170" clip-path="url(#clip-path)">
          <g id="Group_169" data-name="Group 169" transform="translate(-19.158 -17.765)">
            <g id="Group_168" data-name="Group 168">
              <g id="Group_167" data-name="Group 167" clip-path="url(#clip-path-2)">
                <g id="Group_166" data-name="Group 166" transform="translate(17.417 17.417)">
                  <g id="Group_165" data-name="Group 165" transform="translate(0)" clip-path="url(#clip-path-3)">
                    <rect id="Rectangle_252" data-name="Rectangle 252" width="86.038" height="116.344" transform="translate(-15.675 -17.068)" fill="#f62d2d"/>
                  </g>
                </g>
              </g>
            </g>
          </g>
        </g>
      </g>
    </g>
    <g id="Group_180" data-name="Group 180" transform="translate(20.455 115.561)">
      <g id="Group_179" data-name="Group 179">
        <g id="Group_178" data-name="Group 178" clip-path="url(#clip-path-4)">
          <g id="Group_177" data-name="Group 177" transform="translate(-18.113 -19.158)">
            <g id="Group_176" data-name="Group 176" transform="translate(0)">
              <g id="Group_175" data-name="Group 175" clip-path="url(#clip-path-5)">
                <g id="Group_174" data-name="Group 174" transform="translate(17.417 17.417)">
                  <g id="Group_173" data-name="Group 173" transform="translate(0)" clip-path="url(#clip-path-6)">
                    <rect id="Rectangle_255" data-name="Rectangle 255" width="44.238" height="44.238" transform="translate(-16.72 -15.675)" fill="#f62d2d"/>
                  </g>
                </g>
              </g>
            </g>
          </g>
        </g>
      </g>
    </g>
    <g id="Group_188" data-name="Group 188" transform="translate(61.21 0.456)">
      <g id="Group_187" data-name="Group 187">
        <g id="Group_186" data-name="Group 186" clip-path="url(#clip-path-7)">
          <g id="Group_185" data-name="Group 185" transform="translate(-20.552 -19.004)">
            <g id="Group_184" data-name="Group 184">
              <g id="Group_183" data-name="Group 183" clip-path="url(#clip-path-8)">
                <g id="Group_182" data-name="Group 182" transform="translate(17.417 17.417)">
                  <g id="Group_181" data-name="Group 181" clip-path="url(#clip-path-9)">
                    <rect id="Rectangle_258" data-name="Rectangle 258" width="126.794" height="174.515" transform="translate(-14.282 -16.023)" fill="#f62d2d"/>
                  </g>
                </g>
              </g>
            </g>
          </g>
        </g>
      </g>
    </g>
    <g id="Group_196" data-name="Group 196" transform="translate(105.797 121.134)">
      <g id="Group_195" data-name="Group 195">
        <g id="Group_194" data-name="Group 194" clip-path="url(#clip-path-10)">
          <g id="Group_193" data-name="Group 193" transform="translate(-19.855 -17.765)">
            <g id="Group_192" data-name="Group 192">
              <g id="Group_191" data-name="Group 191" clip-path="url(#clip-path-11)">
                <g id="Group_190" data-name="Group 190" transform="translate(17.417 17.417)">
                  <g id="Group_189" data-name="Group 189" clip-path="url(#clip-path-12)">
                    <rect id="Rectangle_261" data-name="Rectangle 261" width="40.407" height="39.013" transform="translate(-14.978 -17.068)" fill="#f62d2d"/>
                  </g>
                </g>
              </g>
            </g>
          </g>
        </g>
      </g>
    </g>
    <g id="Group_204" data-name="Group 204" transform="translate(76.051 116.257)">
      <g id="Group_203" data-name="Group 203">
        <g id="Group_202" data-name="Group 202" clip-path="url(#clip-path-13)">
          <g id="Group_201" data-name="Group 201" transform="translate(-17.976 -19.855)">
            <g id="Group_200" data-name="Group 200">
              <g id="Group_199" data-name="Group 199" clip-path="url(#clip-path-14)">
                <g id="Group_198" data-name="Group 198" transform="translate(17.417 17.417)">
                  <g id="Group_197" data-name="Group 197" clip-path="url(#clip-path-15)">
                    <rect id="Rectangle_264" data-name="Rectangle 264" width="62.352" height="44.935" transform="translate(-16.72 -14.978)" fill="#f62d2d"/>
                  </g>
                </g>
              </g>
            </g>
          </g>
        </g>
      </g>
    </g>
  </g>
</svg>
