<svg xmlns="http://www.w3.org/2000/svg" xmlns:xlink="http://www.w3.org/1999/xlink" width="148.636" height="152.031" viewBox="0 0 148.636 152.031">
  <defs>
    <clipPath id="clip-path">
      <path id="Path_483" data-name="Path 483" d="M52.44,38.683c0,5.09-1.7,5.43-4.072,5.43H33.775a2.375,2.375,0,1,0,0,4.751H48.368c5.43,0,8.484-3.054,8.823-8.823l.339-.339v-.679a2.623,2.623,0,0,0-2.715-2.375A1.909,1.909,0,0,0,52.44,38.683Z" transform="translate(-31.4 -36.581)" fill="#f62d2d"/>
    </clipPath>
    <clipPath id="clip-path-2">
      <rect id="Rectangle_286" data-name="Rectangle 286" width="61.083" height="50.903" fill="#f62d2d"/>
    </clipPath>
    <clipPath id="clip-path-3">
      <rect id="Rectangle_285" data-name="Rectangle 285" width="27.148" height="16.968" fill="#f62d2d"/>
    </clipPath>
    <clipPath id="clip-path-4">
      <path id="Path_484" data-name="Path 484" d="M38.279,34.279a2.4,2.4,0,0,0,3.394,3.394,2.376,2.376,0,0,0-1.7-4.072C39.3,33.6,38.957,33.939,38.279,34.279Z" transform="translate(-37.6 -33.6)" fill="#f62d2d"/>
    </clipPath>
    <clipPath id="clip-path-5">
      <rect id="Rectangle_289" data-name="Rectangle 289" width="40.722" height="44.116" fill="#f62d2d"/>
    </clipPath>
    <clipPath id="clip-path-6">
      <rect id="Rectangle_288" data-name="Rectangle 288" width="6.787" height="10.181" fill="#f62d2d"/>
    </clipPath>
    <clipPath id="clip-path-7">
      <path id="Path_485" data-name="Path 485" d="M11.275,23.2a2.375,2.375,0,0,0,0,4.751h2.375a2.375,2.375,0,0,0,0-4.751Z" transform="translate(-8.9 -23.2)" fill="#f62d2d"/>
    </clipPath>
    <clipPath id="clip-path-8">
      <rect id="Rectangle_292" data-name="Rectangle 292" width="44.116" height="40.722" fill="#f62d2d"/>
    </clipPath>
    <clipPath id="clip-path-9">
      <rect id="Rectangle_291" data-name="Rectangle 291" width="10.181" height="6.787" fill="#f62d2d"/>
    </clipPath>
    <clipPath id="clip-path-10">
      <path id="Path_486" data-name="Path 486" d="M15.975,23.2a2.375,2.375,0,1,0,0,4.751h2.375a2.375,2.375,0,0,0,0-4.751Z" transform="translate(-13.6 -23.2)" fill="#f62d2d"/>
    </clipPath>
    <clipPath id="clip-path-13">
      <path id="Path_487" data-name="Path 487" d="M20.775,23.2a2.375,2.375,0,1,0,0,4.751h2.375a2.375,2.375,0,1,0,0-4.751Z" transform="translate(-18.4 -23.2)" fill="#f62d2d"/>
    </clipPath>
    <clipPath id="clip-path-16">
      <path id="Path_488" data-name="Path 488" d="M24.875,23.2a2.375,2.375,0,1,0,0,4.751h2.375a2.375,2.375,0,1,0,0-4.751Z" transform="translate(-22.5 -23.2)" fill="#f62d2d"/>
    </clipPath>
    <clipPath id="clip-path-19">
      <path id="Path_489" data-name="Path 489" d="M29.675,23.2a2.375,2.375,0,1,0,0,4.751h2.375a2.375,2.375,0,1,0,0-4.751Z" transform="translate(-27.3 -23.2)" fill="#f62d2d"/>
    </clipPath>
    <clipPath id="clip-path-22">
      <path id="Path_490" data-name="Path 490" d="M34.475,23.2a2.375,2.375,0,1,0,0,4.751h2.375a2.375,2.375,0,0,0,0-4.751Z" transform="translate(-32.1 -23.2)" fill="#f62d2d"/>
    </clipPath>
    <clipPath id="clip-path-23">
      <rect id="Rectangle_307" data-name="Rectangle 307" width="47.509" height="40.722" fill="#f62d2d"/>
    </clipPath>
    <clipPath id="clip-path-24">
      <rect id="Rectangle_306" data-name="Rectangle 306" width="13.574" height="6.787" fill="#f62d2d"/>
    </clipPath>
    <clipPath id="clip-path-25">
      <path id="Path_491" data-name="Path 491" d="M11.275,27.2a2.375,2.375,0,0,0,0,4.751h2.375a2.375,2.375,0,0,0,0-4.751Z" transform="translate(-8.9 -27.2)" fill="#f62d2d"/>
    </clipPath>
    <clipPath id="clip-path-28">
      <path id="Path_492" data-name="Path 492" d="M15.975,27.2a2.375,2.375,0,1,0,0,4.751h2.375a2.375,2.375,0,0,0,0-4.751Z" transform="translate(-13.6 -27.2)" fill="#f62d2d"/>
    </clipPath>
    <clipPath id="clip-path-31">
      <path id="Path_493" data-name="Path 493" d="M20.775,27.2a2.375,2.375,0,1,0,0,4.751h2.375a2.375,2.375,0,1,0,0-4.751Z" transform="translate(-18.4 -27.2)" fill="#f62d2d"/>
    </clipPath>
    <clipPath id="clip-path-34">
      <path id="Path_494" data-name="Path 494" d="M24.875,27.2a2.375,2.375,0,1,0,0,4.751h2.375a2.375,2.375,0,1,0,0-4.751Z" transform="translate(-22.5 -27.2)" fill="#f62d2d"/>
    </clipPath>
    <clipPath id="clip-path-37">
      <path id="Path_495" data-name="Path 495" d="M29.675,27.2a2.375,2.375,0,1,0,0,4.751h2.375a2.375,2.375,0,1,0,0-4.751Z" transform="translate(-27.3 -27.2)" fill="#f62d2d"/>
    </clipPath>
    <clipPath id="clip-path-40">
      <path id="Path_496" data-name="Path 496" d="M34.475,27.2a2.375,2.375,0,1,0,0,4.751h2.375a2.375,2.375,0,0,0,0-4.751Z" transform="translate(-32.1 -27.2)" fill="#f62d2d"/>
    </clipPath>
    <clipPath id="clip-path-43">
      <path id="Path_497" data-name="Path 497" d="M11.275,35.4a2.375,2.375,0,0,0,0,4.751h2.375a2.375,2.375,0,0,0,0-4.751Z" transform="translate(-8.9 -35.4)" fill="#f62d2d"/>
    </clipPath>
    <clipPath id="clip-path-46">
      <path id="Path_498" data-name="Path 498" d="M15.975,35.4a2.375,2.375,0,0,0,0,4.751h2.375a2.375,2.375,0,0,0,0-4.751Z" transform="translate(-13.6 -35.4)" fill="#f62d2d"/>
    </clipPath>
    <clipPath id="clip-path-49">
      <path id="Path_499" data-name="Path 499" d="M20.775,35.4a2.375,2.375,0,0,0,0,4.751h2.375a2.375,2.375,0,1,0,0-4.751Z" transform="translate(-18.4 -35.4)" fill="#f62d2d"/>
    </clipPath>
    <clipPath id="clip-path-52">
      <path id="Path_500" data-name="Path 500" d="M24.875,35.4a2.375,2.375,0,1,0,0,4.751h2.375a2.375,2.375,0,1,0,0-4.751Z" transform="translate(-22.5 -35.4)" fill="#f62d2d"/>
    </clipPath>
    <clipPath id="clip-path-55">
      <path id="Path_501" data-name="Path 501" d="M11.275,31.3a2.375,2.375,0,0,0,0,4.751h2.375a2.375,2.375,0,0,0,0-4.751Z" transform="translate(-8.9 -31.3)" fill="#f62d2d"/>
    </clipPath>
    <clipPath id="clip-path-58">
      <path id="Path_502" data-name="Path 502" d="M15.975,31.3a2.375,2.375,0,0,0,0,4.751h2.375a2.375,2.375,0,0,0,0-4.751Z" transform="translate(-13.6 -31.3)" fill="#f62d2d"/>
    </clipPath>
    <clipPath id="clip-path-61">
      <path id="Path_503" data-name="Path 503" d="M20.775,31.3a2.375,2.375,0,0,0,0,4.751h2.375a2.375,2.375,0,0,0,0-4.751Z" transform="translate(-18.4 -31.3)" fill="#f62d2d"/>
    </clipPath>
    <clipPath id="clip-path-64">
      <path id="Path_504" data-name="Path 504" d="M24.875,31.3a2.375,2.375,0,1,0,0,4.751h2.375a2.375,2.375,0,0,0,0-4.751Z" transform="translate(-22.5 -31.3)" fill="#f62d2d"/>
    </clipPath>
    <clipPath id="clip-path-67">
      <path id="Path_505" data-name="Path 505" d="M29.675,31.3a2.375,2.375,0,0,0,0,4.751h2.375a2.375,2.375,0,0,0,0-4.751Z" transform="translate(-27.3 -31.3)" fill="#f62d2d"/>
    </clipPath>
    <clipPath id="clip-path-70">
      <path id="Path_506" data-name="Path 506" d="M34.475,31.3a2.375,2.375,0,0,0,0,4.751h2.375a2.375,2.375,0,0,0,0-4.751Z" transform="translate(-32.1 -31.3)" fill="#f62d2d"/>
    </clipPath>
  </defs>
  <g id="konferencje" transform="translate(-0.2 -0.1)">
    <g id="Group_247" data-name="Group 247" transform="translate(0.2 0.1)">
      <g id="Group_246" data-name="Group 246">
        <path id="SVGID_1_" d="M9.363,136.18V62.2H139.335v73.639a6.807,6.807,0,0,1-6.787,6.787H16.15A6.324,6.324,0,0,1,9.363,136.18ZM118.295,39.465V27.927h13.913A6.807,6.807,0,0,1,139,34.714V57.79H9.363V34.714a6.807,6.807,0,0,1,6.787-6.787H28.027V39.465a4.853,4.853,0,0,0,4.751,4.751,4.639,4.639,0,0,0,4.751-4.751V27.927h71.943V39.465a4.853,4.853,0,0,0,4.751,4.751A5.082,5.082,0,0,0,118.295,39.465ZM113.544.1a4.573,4.573,0,0,0-4.412,4.751V18.764H37.189V4.851A5.067,5.067,0,0,0,32.778.1h-.339a4.573,4.573,0,0,0-4.412,4.751V18.764H16.15A15.931,15.931,0,0,0,.2,34.714V136.18a15.931,15.931,0,0,0,15.95,15.95H132.887a15.931,15.931,0,0,0,15.95-15.95V34.375a15.931,15.931,0,0,0-15.95-15.95H118.295V4.851A4.639,4.639,0,0,0,113.544.1Z" transform="translate(-0.2 -0.1)" fill="#f62d2d" fill-rule="evenodd"/>
      </g>
    </g>
    <g id="Group_255" data-name="Group 255" transform="translate(106.078 123.898)">
      <g id="Group_254" data-name="Group 254">
        <g id="Group_253" data-name="Group 253" clip-path="url(#clip-path)">
          <g id="Group_252" data-name="Group 252" transform="translate(-17.986 -18.938)">
            <g id="Group_251" data-name="Group 251">
              <g id="Group_250" data-name="Group 250" clip-path="url(#clip-path-2)">
                <g id="Group_249" data-name="Group 249" transform="translate(16.968 16.968)">
                  <g id="Group_248" data-name="Group 248" transform="translate(0 0)" clip-path="url(#clip-path-3)">
                    <rect id="Rectangle_284" data-name="Rectangle 284" width="60.065" height="46.152" transform="translate(-15.95 -15.271)" fill="#f62d2d"/>
                  </g>
                </g>
              </g>
            </g>
          </g>
        </g>
      </g>
    </g>
    <g id="Group_263" data-name="Group 263" transform="translate(127.118 113.783)">
      <g id="Group_262" data-name="Group 262">
        <g id="Group_261" data-name="Group 261" clip-path="url(#clip-path-4)">
          <g id="Group_260" data-name="Group 260" transform="translate(-18.664 -19.004)">
            <g id="Group_259" data-name="Group 259">
              <g id="Group_258" data-name="Group 258" clip-path="url(#clip-path-5)">
                <g id="Group_257" data-name="Group 257" transform="translate(16.968 16.968)">
                  <g id="Group_256" data-name="Group 256" transform="translate(0 0)" clip-path="url(#clip-path-6)">
                    <rect id="Rectangle_287" data-name="Rectangle 287" width="38.686" height="38.347" transform="translate(-15.271 -14.932)" fill="#f62d2d"/>
                  </g>
                </g>
              </g>
            </g>
          </g>
        </g>
      </g>
    </g>
    <g id="Group_271" data-name="Group 271" transform="translate(29.724 78.49)">
      <g id="Group_270" data-name="Group 270">
        <g id="Group_269" data-name="Group 269" clip-path="url(#clip-path-7)">
          <g id="Group_268" data-name="Group 268" transform="translate(-19.682 -17.646)">
            <g id="Group_267" data-name="Group 267">
              <g id="Group_266" data-name="Group 266" clip-path="url(#clip-path-8)">
                <g id="Group_265" data-name="Group 265" transform="translate(16.968 16.968)">
                  <g id="Group_264" data-name="Group 264" transform="translate(0 0)" clip-path="url(#clip-path-9)">
                    <rect id="Rectangle_290" data-name="Rectangle 290" width="41.062" height="38.686" transform="translate(-14.253 -16.289)" fill="#f62d2d"/>
                  </g>
                </g>
              </g>
            </g>
          </g>
        </g>
      </g>
    </g>
    <g id="Group_279" data-name="Group 279" transform="translate(45.673 78.49)">
      <g id="Group_278" data-name="Group 278">
        <g id="Group_277" data-name="Group 277" clip-path="url(#clip-path-10)">
          <g id="Group_276" data-name="Group 276" transform="translate(-18.664 -17.646)">
            <g id="Group_275" data-name="Group 275">
              <g id="Group_274" data-name="Group 274" clip-path="url(#clip-path-8)">
                <g id="Group_273" data-name="Group 273" transform="translate(16.968 16.968)">
                  <g id="Group_272" data-name="Group 272" transform="translate(0 0)" clip-path="url(#clip-path-9)">
                    <rect id="Rectangle_293" data-name="Rectangle 293" width="41.062" height="38.686" transform="translate(-14.932 -16.289)" fill="#f62d2d"/>
                  </g>
                </g>
              </g>
            </g>
          </g>
        </g>
      </g>
    </g>
    <g id="Group_287" data-name="Group 287" transform="translate(61.962 78.49)">
      <g id="Group_286" data-name="Group 286">
        <g id="Group_285" data-name="Group 285" clip-path="url(#clip-path-13)">
          <g id="Group_284" data-name="Group 284" transform="translate(-17.986 -17.646)">
            <g id="Group_283" data-name="Group 283">
              <g id="Group_282" data-name="Group 282" clip-path="url(#clip-path-8)">
                <g id="Group_281" data-name="Group 281" transform="translate(16.968 16.968)">
                  <g id="Group_280" data-name="Group 280" transform="translate(0 0)" clip-path="url(#clip-path-9)">
                    <rect id="Rectangle_296" data-name="Rectangle 296" width="40.722" height="38.686" transform="translate(-15.95 -16.289)" fill="#f62d2d"/>
                  </g>
                </g>
              </g>
            </g>
          </g>
        </g>
      </g>
    </g>
    <g id="Group_295" data-name="Group 295" transform="translate(75.876 78.49)">
      <g id="Group_294" data-name="Group 294">
        <g id="Group_293" data-name="Group 293" clip-path="url(#clip-path-16)">
          <g id="Group_292" data-name="Group 292" transform="translate(-18.325 -17.646)">
            <g id="Group_291" data-name="Group 291">
              <g id="Group_290" data-name="Group 290" clip-path="url(#clip-path-8)">
                <g id="Group_289" data-name="Group 289" transform="translate(16.968 16.968)">
                  <g id="Group_288" data-name="Group 288" transform="translate(0 0)" clip-path="url(#clip-path-9)">
                    <rect id="Rectangle_299" data-name="Rectangle 299" width="40.722" height="38.686" transform="translate(-15.61 -16.289)" fill="#f62d2d"/>
                  </g>
                </g>
              </g>
            </g>
          </g>
        </g>
      </g>
    </g>
    <g id="Group_303" data-name="Group 303" transform="translate(92.165 78.49)">
      <g id="Group_302" data-name="Group 302">
        <g id="Group_301" data-name="Group 301" clip-path="url(#clip-path-19)">
          <g id="Group_300" data-name="Group 300" transform="translate(-17.646 -17.646)">
            <g id="Group_299" data-name="Group 299">
              <g id="Group_298" data-name="Group 298" clip-path="url(#clip-path-8)">
                <g id="Group_297" data-name="Group 297" transform="translate(16.968 16.968)">
                  <g id="Group_296" data-name="Group 296" transform="translate(0 0)" clip-path="url(#clip-path-9)">
                    <rect id="Rectangle_302" data-name="Rectangle 302" width="40.722" height="38.686" transform="translate(-16.289 -16.289)" fill="#f62d2d"/>
                  </g>
                </g>
              </g>
            </g>
          </g>
        </g>
      </g>
    </g>
    <g id="Group_311" data-name="Group 311" transform="translate(108.453 78.49)">
      <g id="Group_310" data-name="Group 310">
        <g id="Group_309" data-name="Group 309" clip-path="url(#clip-path-22)">
          <g id="Group_308" data-name="Group 308" transform="translate(-20.361 -17.646)">
            <g id="Group_307" data-name="Group 307">
              <g id="Group_306" data-name="Group 306" clip-path="url(#clip-path-23)">
                <g id="Group_305" data-name="Group 305" transform="translate(16.968 16.968)">
                  <g id="Group_304" data-name="Group 304" transform="translate(0 0)" clip-path="url(#clip-path-24)">
                    <rect id="Rectangle_305" data-name="Rectangle 305" width="40.722" height="38.686" transform="translate(-13.574 -16.289)" fill="#f62d2d"/>
                  </g>
                </g>
              </g>
            </g>
          </g>
        </g>
      </g>
    </g>
    <g id="Group_319" data-name="Group 319" transform="translate(29.724 92.065)">
      <g id="Group_318" data-name="Group 318">
        <g id="Group_317" data-name="Group 317" clip-path="url(#clip-path-25)">
          <g id="Group_316" data-name="Group 316" transform="translate(-19.682 -17.646)">
            <g id="Group_315" data-name="Group 315">
              <g id="Group_314" data-name="Group 314" clip-path="url(#clip-path-8)">
                <g id="Group_313" data-name="Group 313" transform="translate(16.968 16.968)">
                  <g id="Group_312" data-name="Group 312" transform="translate(0)" clip-path="url(#clip-path-9)">
                    <rect id="Rectangle_308" data-name="Rectangle 308" width="41.062" height="38.686" transform="translate(-14.253 -16.289)" fill="#f62d2d"/>
                  </g>
                </g>
              </g>
            </g>
          </g>
        </g>
      </g>
    </g>
    <g id="Group_327" data-name="Group 327" transform="translate(45.673 92.065)">
      <g id="Group_326" data-name="Group 326">
        <g id="Group_325" data-name="Group 325" clip-path="url(#clip-path-28)">
          <g id="Group_324" data-name="Group 324" transform="translate(-18.664 -17.646)">
            <g id="Group_323" data-name="Group 323">
              <g id="Group_322" data-name="Group 322" clip-path="url(#clip-path-8)">
                <g id="Group_321" data-name="Group 321" transform="translate(16.968 16.968)">
                  <g id="Group_320" data-name="Group 320" transform="translate(0)" clip-path="url(#clip-path-9)">
                    <rect id="Rectangle_311" data-name="Rectangle 311" width="41.062" height="38.686" transform="translate(-14.932 -16.289)" fill="#f62d2d"/>
                  </g>
                </g>
              </g>
            </g>
          </g>
        </g>
      </g>
    </g>
    <g id="Group_335" data-name="Group 335" transform="translate(61.962 92.065)">
      <g id="Group_334" data-name="Group 334">
        <g id="Group_333" data-name="Group 333" clip-path="url(#clip-path-31)">
          <g id="Group_332" data-name="Group 332" transform="translate(-17.986 -17.646)">
            <g id="Group_331" data-name="Group 331">
              <g id="Group_330" data-name="Group 330" clip-path="url(#clip-path-8)">
                <g id="Group_329" data-name="Group 329" transform="translate(16.968 16.968)">
                  <g id="Group_328" data-name="Group 328" transform="translate(0)" clip-path="url(#clip-path-9)">
                    <rect id="Rectangle_314" data-name="Rectangle 314" width="40.722" height="38.686" transform="translate(-15.95 -16.289)" fill="#f62d2d"/>
                  </g>
                </g>
              </g>
            </g>
          </g>
        </g>
      </g>
    </g>
    <g id="Group_343" data-name="Group 343" transform="translate(75.876 92.065)">
      <g id="Group_342" data-name="Group 342">
        <g id="Group_341" data-name="Group 341" clip-path="url(#clip-path-34)">
          <g id="Group_340" data-name="Group 340" transform="translate(-18.325 -17.646)">
            <g id="Group_339" data-name="Group 339">
              <g id="Group_338" data-name="Group 338" clip-path="url(#clip-path-8)">
                <g id="Group_337" data-name="Group 337" transform="translate(16.968 16.968)">
                  <g id="Group_336" data-name="Group 336" transform="translate(0)" clip-path="url(#clip-path-9)">
                    <rect id="Rectangle_317" data-name="Rectangle 317" width="40.722" height="38.686" transform="translate(-15.61 -16.289)" fill="#f62d2d"/>
                  </g>
                </g>
              </g>
            </g>
          </g>
        </g>
      </g>
    </g>
    <g id="Group_351" data-name="Group 351" transform="translate(92.165 92.065)">
      <g id="Group_350" data-name="Group 350">
        <g id="Group_349" data-name="Group 349" clip-path="url(#clip-path-37)">
          <g id="Group_348" data-name="Group 348" transform="translate(-17.646 -17.646)">
            <g id="Group_347" data-name="Group 347">
              <g id="Group_346" data-name="Group 346" clip-path="url(#clip-path-8)">
                <g id="Group_345" data-name="Group 345" transform="translate(16.968 16.968)">
                  <g id="Group_344" data-name="Group 344" transform="translate(0)" clip-path="url(#clip-path-9)">
                    <rect id="Rectangle_320" data-name="Rectangle 320" width="40.722" height="38.686" transform="translate(-16.289 -16.289)" fill="#f62d2d"/>
                  </g>
                </g>
              </g>
            </g>
          </g>
        </g>
      </g>
    </g>
    <g id="Group_359" data-name="Group 359" transform="translate(108.453 92.065)">
      <g id="Group_358" data-name="Group 358">
        <g id="Group_357" data-name="Group 357" clip-path="url(#clip-path-40)">
          <g id="Group_356" data-name="Group 356" transform="translate(-20.361 -17.646)">
            <g id="Group_355" data-name="Group 355">
              <g id="Group_354" data-name="Group 354" clip-path="url(#clip-path-23)">
                <g id="Group_353" data-name="Group 353" transform="translate(16.968 16.968)">
                  <g id="Group_352" data-name="Group 352" clip-path="url(#clip-path-24)">
                    <rect id="Rectangle_323" data-name="Rectangle 323" width="40.722" height="38.686" transform="translate(-13.574 -16.289)" fill="#f62d2d"/>
                  </g>
                </g>
              </g>
            </g>
          </g>
        </g>
      </g>
    </g>
    <g id="Group_367" data-name="Group 367" transform="translate(29.724 119.891)">
      <g id="Group_366" data-name="Group 366">
        <g id="Group_365" data-name="Group 365" clip-path="url(#clip-path-43)">
          <g id="Group_364" data-name="Group 364" transform="translate(-19.682 -18.325)">
            <g id="Group_363" data-name="Group 363">
              <g id="Group_362" data-name="Group 362" clip-path="url(#clip-path-8)">
                <g id="Group_361" data-name="Group 361" transform="translate(16.968 16.968)">
                  <g id="Group_360" data-name="Group 360" transform="translate(0 0)" clip-path="url(#clip-path-9)">
                    <rect id="Rectangle_326" data-name="Rectangle 326" width="41.062" height="38.686" transform="translate(-14.253 -15.61)" fill="#f62d2d"/>
                  </g>
                </g>
              </g>
            </g>
          </g>
        </g>
      </g>
    </g>
    <g id="Group_375" data-name="Group 375" transform="translate(45.673 119.891)">
      <g id="Group_374" data-name="Group 374">
        <g id="Group_373" data-name="Group 373" clip-path="url(#clip-path-46)">
          <g id="Group_372" data-name="Group 372" transform="translate(-18.664 -18.325)">
            <g id="Group_371" data-name="Group 371">
              <g id="Group_370" data-name="Group 370" clip-path="url(#clip-path-8)">
                <g id="Group_369" data-name="Group 369" transform="translate(16.968 16.968)">
                  <g id="Group_368" data-name="Group 368" transform="translate(0 0)" clip-path="url(#clip-path-9)">
                    <rect id="Rectangle_329" data-name="Rectangle 329" width="41.062" height="38.686" transform="translate(-14.932 -15.61)" fill="#f62d2d"/>
                  </g>
                </g>
              </g>
            </g>
          </g>
        </g>
      </g>
    </g>
    <g id="Group_383" data-name="Group 383" transform="translate(61.962 119.891)">
      <g id="Group_382" data-name="Group 382">
        <g id="Group_381" data-name="Group 381" clip-path="url(#clip-path-49)">
          <g id="Group_380" data-name="Group 380" transform="translate(-17.986 -18.325)">
            <g id="Group_379" data-name="Group 379">
              <g id="Group_378" data-name="Group 378" clip-path="url(#clip-path-8)">
                <g id="Group_377" data-name="Group 377" transform="translate(16.968 16.968)">
                  <g id="Group_376" data-name="Group 376" transform="translate(0 0)" clip-path="url(#clip-path-9)">
                    <rect id="Rectangle_332" data-name="Rectangle 332" width="40.722" height="38.686" transform="translate(-15.95 -15.61)" fill="#f62d2d"/>
                  </g>
                </g>
              </g>
            </g>
          </g>
        </g>
      </g>
    </g>
    <g id="Group_391" data-name="Group 391" transform="translate(75.876 119.891)">
      <g id="Group_390" data-name="Group 390">
        <g id="Group_389" data-name="Group 389" clip-path="url(#clip-path-52)">
          <g id="Group_388" data-name="Group 388" transform="translate(-18.325 -18.325)">
            <g id="Group_387" data-name="Group 387">
              <g id="Group_386" data-name="Group 386" clip-path="url(#clip-path-8)">
                <g id="Group_385" data-name="Group 385" transform="translate(16.968 16.968)">
                  <g id="Group_384" data-name="Group 384" transform="translate(0 0)" clip-path="url(#clip-path-9)">
                    <rect id="Rectangle_335" data-name="Rectangle 335" width="40.722" height="38.686" transform="translate(-15.61 -15.61)" fill="#f62d2d"/>
                  </g>
                </g>
              </g>
            </g>
          </g>
        </g>
      </g>
    </g>
    <g id="Group_399" data-name="Group 399" transform="translate(29.724 105.978)">
      <g id="Group_398" data-name="Group 398">
        <g id="Group_397" data-name="Group 397" clip-path="url(#clip-path-55)">
          <g id="Group_396" data-name="Group 396" transform="translate(-19.682 -17.986)">
            <g id="Group_395" data-name="Group 395">
              <g id="Group_394" data-name="Group 394" clip-path="url(#clip-path-8)">
                <g id="Group_393" data-name="Group 393" transform="translate(16.968 16.968)">
                  <g id="Group_392" data-name="Group 392" transform="translate(0 0)" clip-path="url(#clip-path-9)">
                    <rect id="Rectangle_338" data-name="Rectangle 338" width="41.062" height="38.686" transform="translate(-14.253 -15.95)" fill="#f62d2d"/>
                  </g>
                </g>
              </g>
            </g>
          </g>
        </g>
      </g>
    </g>
    <g id="Group_407" data-name="Group 407" transform="translate(45.673 105.978)">
      <g id="Group_406" data-name="Group 406">
        <g id="Group_405" data-name="Group 405" clip-path="url(#clip-path-58)">
          <g id="Group_404" data-name="Group 404" transform="translate(-18.664 -17.986)">
            <g id="Group_403" data-name="Group 403">
              <g id="Group_402" data-name="Group 402" clip-path="url(#clip-path-8)">
                <g id="Group_401" data-name="Group 401" transform="translate(16.968 16.968)">
                  <g id="Group_400" data-name="Group 400" transform="translate(0 0)" clip-path="url(#clip-path-9)">
                    <rect id="Rectangle_341" data-name="Rectangle 341" width="41.062" height="38.686" transform="translate(-14.932 -15.95)" fill="#f62d2d"/>
                  </g>
                </g>
              </g>
            </g>
          </g>
        </g>
      </g>
    </g>
    <g id="Group_415" data-name="Group 415" transform="translate(61.962 105.978)">
      <g id="Group_414" data-name="Group 414">
        <g id="Group_413" data-name="Group 413" clip-path="url(#clip-path-61)">
          <g id="Group_412" data-name="Group 412" transform="translate(-17.986 -17.986)">
            <g id="Group_411" data-name="Group 411">
              <g id="Group_410" data-name="Group 410" clip-path="url(#clip-path-8)">
                <g id="Group_409" data-name="Group 409" transform="translate(16.968 16.968)">
                  <g id="Group_408" data-name="Group 408" transform="translate(0 0)" clip-path="url(#clip-path-9)">
                    <rect id="Rectangle_344" data-name="Rectangle 344" width="40.722" height="38.686" transform="translate(-15.95 -15.95)" fill="#f62d2d"/>
                  </g>
                </g>
              </g>
            </g>
          </g>
        </g>
      </g>
    </g>
    <g id="Group_423" data-name="Group 423" transform="translate(75.876 105.978)">
      <g id="Group_422" data-name="Group 422">
        <g id="Group_421" data-name="Group 421" clip-path="url(#clip-path-64)">
          <g id="Group_420" data-name="Group 420" transform="translate(-18.325 -17.986)">
            <g id="Group_419" data-name="Group 419">
              <g id="Group_418" data-name="Group 418" clip-path="url(#clip-path-8)">
                <g id="Group_417" data-name="Group 417" transform="translate(16.968 16.968)">
                  <g id="Group_416" data-name="Group 416" transform="translate(0 0)" clip-path="url(#clip-path-9)">
                    <rect id="Rectangle_347" data-name="Rectangle 347" width="40.722" height="38.686" transform="translate(-15.61 -15.95)" fill="#f62d2d"/>
                  </g>
                </g>
              </g>
            </g>
          </g>
        </g>
      </g>
    </g>
    <g id="Group_431" data-name="Group 431" transform="translate(92.165 105.978)">
      <g id="Group_430" data-name="Group 430">
        <g id="Group_429" data-name="Group 429" clip-path="url(#clip-path-67)">
          <g id="Group_428" data-name="Group 428" transform="translate(-17.646 -17.986)">
            <g id="Group_427" data-name="Group 427">
              <g id="Group_426" data-name="Group 426" clip-path="url(#clip-path-8)">
                <g id="Group_425" data-name="Group 425" transform="translate(16.968 16.968)">
                  <g id="Group_424" data-name="Group 424" transform="translate(0 0)" clip-path="url(#clip-path-9)">
                    <rect id="Rectangle_350" data-name="Rectangle 350" width="40.722" height="38.686" transform="translate(-16.289 -15.95)" fill="#f62d2d"/>
                  </g>
                </g>
              </g>
            </g>
          </g>
        </g>
      </g>
    </g>
    <g id="Group_439" data-name="Group 439" transform="translate(108.453 105.978)">
      <g id="Group_438" data-name="Group 438">
        <g id="Group_437" data-name="Group 437" clip-path="url(#clip-path-70)">
          <g id="Group_436" data-name="Group 436" transform="translate(-20.361 -17.986)">
            <g id="Group_435" data-name="Group 435">
              <g id="Group_434" data-name="Group 434" clip-path="url(#clip-path-23)">
                <g id="Group_433" data-name="Group 433" transform="translate(16.968 16.968)">
                  <g id="Group_432" data-name="Group 432" transform="translate(0 0)" clip-path="url(#clip-path-24)">
                    <rect id="Rectangle_353" data-name="Rectangle 353" width="40.722" height="38.686" transform="translate(-13.574 -15.95)" fill="#f62d2d"/>
                  </g>
                </g>
              </g>
            </g>
          </g>
        </g>
      </g>
    </g>
  </g>
</svg>
